<svg width="79" height="77" viewBox="0 0 79 77" fill="none" xmlns="http://www.w3.org/2000/svg">
<ellipse cx="39.3191" cy="38.5" rx="39.3191" ry="38.5" fill="#7A9533"/>
<path d="M19.7719 39.4736L23.9847 29.6438C24.0922 29.39 24.272 29.1734 24.5017 29.0211C24.7314 28.8688 25.0009 28.7875 25.2766 28.7872H29.4893V25.9787C29.4893 25.6063 29.6373 25.2491 29.9006 24.9858C30.164 24.7224 30.5212 24.5745 30.8936 24.5745H57.5744C57.9469 24.5745 58.3041 24.7224 58.5674 24.9858C58.8308 25.2491 58.9787 25.6063 58.9787 25.9787V49.8511C58.9787 50.2235 58.8308 50.5807 58.5674 50.844C58.3041 51.1074 57.9469 51.2553 57.5744 51.2553H54.5693C54.246 52.4452 53.54 53.4957 52.5604 54.2446C51.5808 54.9935 50.382 55.3993 49.1489 55.3993C47.9158 55.3993 46.717 54.9935 45.7374 54.2446C44.7578 53.4957 44.0519 52.4452 43.7285 51.2553H34.9098C34.5864 52.4452 33.8804 53.4957 32.9008 54.2446C31.9212 54.9935 30.7224 55.3993 29.4893 55.3993C28.2563 55.3993 27.0574 54.9935 26.0778 54.2446C25.0982 53.4957 24.3923 52.4452 24.0689 51.2553H21.0638C20.6914 51.2553 20.3342 51.1074 20.0709 50.844C19.8075 50.5807 19.6596 50.2235 19.6596 49.8511V40.0213C19.6599 39.833 19.6981 39.6468 19.7719 39.4736ZM29.4893 31.5957H26.2034L23.1983 38.617H29.4893V31.5957ZM49.1489 52.6596C49.7044 52.6596 50.2474 52.4949 50.7092 52.1862C51.1711 51.8776 51.5311 51.439 51.7436 50.9258C51.9562 50.4126 52.0118 49.8479 51.9035 49.3031C51.7951 48.7583 51.5276 48.2579 51.1348 47.8651C50.7421 47.4724 50.2416 47.2049 49.6968 47.0965C49.152 46.9881 48.5873 47.0438 48.0741 47.2563C47.561 47.4689 47.1223 47.8289 46.8137 48.2907C46.5051 48.7526 46.3404 49.2956 46.3404 49.8511C46.3404 50.5959 46.6363 51.3103 47.163 51.837C47.6897 52.3637 48.404 52.6596 49.1489 52.6596ZM34.9098 48.4468H43.7285C44.0519 47.2569 44.7578 46.2064 45.7374 45.4575C46.717 44.7086 47.9158 44.3028 49.1489 44.3028C50.382 44.3028 51.5808 44.7086 52.5604 45.4575C53.54 46.2064 54.246 47.2569 54.5693 48.4468H56.1702V27.383H32.2979V45.0204C32.9373 45.3915 33.4972 45.8853 33.9454 46.4732C34.3936 47.0612 34.7213 47.7319 34.9098 48.4468ZM29.4893 52.6596C30.0448 52.6596 30.5878 52.4949 31.0497 52.1862C31.5115 51.8776 31.8715 51.439 32.0841 50.9258C32.2966 50.4126 32.3523 49.8479 32.2439 49.3031C32.1355 48.7583 31.868 48.2579 31.4753 47.8651C31.0825 47.4724 30.5821 47.2049 30.0373 47.0965C29.4925 46.9881 28.9278 47.0438 28.4146 47.2563C27.9014 47.4689 27.4628 47.8289 27.1542 48.2907C26.8455 48.7526 26.6808 49.2956 26.6808 49.8511C26.6808 50.5959 26.9767 51.3103 27.5034 51.837C28.0301 52.3637 28.7445 52.6596 29.4893 52.6596ZM22.4681 48.4468H24.0689C24.3794 47.2441 25.0799 46.1782 26.0607 45.416C27.0414 44.6537 28.2472 44.2381 29.4893 44.234V41.4255H22.4681V48.4468Z" fill="white"/>
</svg>
