<svg width="27" height="26" viewBox="0 0 27 26" fill="none" xmlns="http://www.w3.org/2000/svg">
<path d="M26.6028 5.57792C26.3618 5.1605 26.0169 4.81264 25.6014 4.56828C25.186 4.32392 24.7144 4.1914 24.2325 4.18364H6.38578L5.5771 1.03258C5.49539 0.728403 5.31311 0.46085 5.05993 0.273499C4.80675 0.086147 4.4976 -0.00996454 4.18282 0.000817715H1.39427C1.02449 0.000817715 0.669851 0.147714 0.408374 0.409191C0.146896 0.670668 0 1.02531 0 1.39509C0 1.76488 0.146896 2.11952 0.408374 2.38099C0.669851 2.64247 1.02449 2.78937 1.39427 2.78937H3.12317L6.97137 17.0946C7.05308 17.3988 7.23536 17.6664 7.48854 17.8537C7.74172 18.0411 8.05087 18.1372 8.36565 18.1264H20.9141C21.1716 18.1256 21.4238 18.0535 21.6429 17.9182C21.8619 17.7828 22.0392 17.5895 22.155 17.3595L26.7282 8.2131C26.9265 7.79762 27.0187 7.33954 26.9968 6.87973C26.9749 6.41991 26.8396 5.97267 26.6028 5.57792ZM20.0497 15.3378H9.4253L7.15263 6.97219H24.2325L20.0497 15.3378Z" fill="#FF393D"/>
<path d="M7.66856 25.0976C8.82362 25.0976 9.75997 24.1613 9.75997 23.0062C9.75997 21.8512 8.82362 20.9148 7.66856 20.9148C6.51351 20.9148 5.57715 21.8512 5.57715 23.0062C5.57715 24.1613 6.51351 25.0976 7.66856 25.0976Z" fill="#FF393D"/>
<path d="M21.6114 25.0976C22.7665 25.0976 23.7028 24.1613 23.7028 23.0062C23.7028 21.8512 22.7665 20.9148 21.6114 20.9148C20.4564 20.9148 19.52 21.8512 19.52 23.0062C19.52 24.1613 20.4564 25.0976 21.6114 25.0976Z" fill="#FF393D"/>
</svg>
