<svg width="65" height="111" viewBox="0 0 65 111" fill="none" xmlns="http://www.w3.org/2000/svg">
<path d="M46.4291 1.72686H47.0023C47.0023 3.58623 47.9576 4.41261 48.3398 6.06539H48.7219C48.7219 7.51156 48.5308 8.95774 48.5308 10.4039C48.913 12.8831 51.5879 15.3622 49.2951 16.6018C49.2951 16.1886 47.5755 15.982 47.3844 15.5688C47.3844 17.2216 46.6202 17.6348 46.4291 19.2876C46.238 19.2876 45.8559 19.2876 45.6648 19.081C45.6648 20.3206 45.6648 21.3535 45.4738 22.5931C47.7666 24.4525 46.8112 30.4438 48.913 32.3032C50.8236 32.923 52.5432 33.3361 54.4539 33.9559C56.1735 34.9889 59.2305 39.3275 60.7591 41.1868C61.3323 41.8066 62.0965 42.4264 62.6697 42.8396C62.8608 43.4594 62.8608 44.2858 63.0519 44.9056C63.434 45.1122 63.6251 45.5253 64.0072 45.7319C64.5804 46.9715 65.1536 52.7562 64.9625 54.6156C64.5804 57.0948 62.2876 58.3343 61.7144 60.6069V62.8795C61.3323 64.1191 60.568 65.152 59.9948 65.9784C60.568 67.6312 59.4216 69.9038 59.0395 71.1433C58.4663 73.4159 57.8931 76.1017 56.9377 77.961C56.5556 78.3742 55.9824 78.7874 55.6003 79.2006C54.2628 81.06 51.5879 82.7127 50.0593 84.3655C50.0593 93.0426 52.9254 101.306 59.0395 103.166C62.4787 104.199 62.6697 101.926 64.9625 104.612C64.7715 105.852 64.5804 104.612 63.434 105.232C60.7591 106.471 56.5556 103.992 58.0841 106.678C58.6573 107.711 58.8484 108.744 58.6573 108.744C58.2752 109.157 59.0395 110.397 58.8484 110.397C58.0841 109.984 57.3199 109.57 56.5556 108.951C54.836 107.918 52.1611 106.678 50.6326 105.645C47.5755 106.678 42.9899 108.744 38.9775 107.711C38.9775 107.504 37.2579 108.331 37.2579 108.124C37.449 107.504 37.449 107.711 37.8311 107.091C39.7418 105.025 40.315 106.265 42.9899 105.232C43.9452 104.612 45.4738 102.959 45.4738 102.959C44.7095 103.579 43.372 103.579 41.8435 103.166C41.2703 102.959 40.506 103.579 39.5507 103.579C39.7418 102.753 40.315 102.959 40.506 102.133C41.8435 100.893 47.9576 100.273 48.7219 98.8273C51.2058 95.1086 43.5631 84.5721 42.0346 82.5062C40.315 83.5391 38.2133 85.6051 35.1562 84.9853C34.3919 84.5721 33.4366 84.3655 32.6723 83.9523C31.5259 83.7457 30.7617 84.7787 29.2331 84.5721C27.7046 84.3655 23.6922 83.1259 22.1637 83.7457C20.062 84.7787 16.0496 95.7283 17.7692 99.8603C18.7245 102.133 24.8386 105.025 25.0297 105.232C24.4565 105.232 22.9279 105.232 21.3994 105.025C20.4441 104.819 20.4441 105.232 20.4441 105.232C20.4441 105.232 25.7939 106.058 27.1314 107.918C27.1314 108.331 28.2778 108.951 28.2778 109.364C27.5135 109.364 26.3671 108.951 25.7939 108.744C22.7369 107.298 19.1066 108.951 16.4317 108.331C15.4764 108.124 14.1389 106.471 13.3746 107.091C11.655 107.918 3.63026 110.19 2.86599 110.81C2.67493 109.57 8.21585 106.885 8.40692 106.471C8.40692 106.471 0.573199 105.232 0 105.438C1.33746 101.926 4.58559 103.992 8.21585 103.992C13.1836 103.992 14.9032 97.5877 16.4317 92.6294C16.8138 91.3898 14.9032 89.1172 15.2853 87.8777C15.2853 87.2579 14.7121 86.8447 14.521 86.6381C14.521 86.0183 13.9478 86.0183 14.1389 85.1919C13.7568 84.5721 13.3746 83.7457 12.9925 83.1259C12.8014 83.1259 12.8014 83.3325 12.6104 83.3325C12.4193 80.2336 10.6997 77.1346 9.17118 75.0687C8.59798 74.2423 6.87839 74.0357 6.49625 73.0027V71.7631C5.92306 71.1433 5.54092 70.317 4.96772 69.6972C4.96772 68.4576 4.96772 67.218 5.15879 65.9784C4.77666 64.5322 4.39452 63.0861 4.01239 61.6399C3.63026 59.9871 4.20346 58.7475 4.77666 58.1277C4.96772 57.9211 4.96772 57.9212 5.15879 57.7146C4.20346 56.0618 2.10173 49.2441 3.43919 46.1451C3.63026 45.5253 4.39452 45.3188 4.77666 44.699C4.39452 44.4924 4.39452 44.699 4.39452 44.0792C5.15879 43.0462 5.73199 42.0132 6.49625 40.7736C6.11412 40.7736 6.11412 40.7736 5.92305 40.3604C6.11412 40.1538 6.30519 39.9472 6.49625 39.7406C6.87839 39.534 7.45158 39.3274 7.83371 38.9143V37.8813C9.17118 37.8813 9.17118 37.2615 9.93545 36.4351C9.74438 36.2285 9.74438 36.2285 9.55331 35.6087C10.3176 34.9889 11.0818 34.5757 12.0372 35.1955C12.0372 33.3361 13.3746 32.5098 15.0942 32.7164C15.0942 32.923 15.2853 32.923 15.2853 33.1296C16.6228 32.0966 18.7245 32.5098 20.253 31.6834C21.2083 29.4108 23.119 27.758 24.0743 25.2789C25.7939 20.7338 26.1761 15.982 28.2778 12.0567C29.0421 10.8171 29.8063 9.78413 30.5706 8.54455C31.1438 8.13136 31.717 7.92476 32.2902 7.51157V6.47858C33.2455 3.99942 38.7864 1.93345 42.2256 1.93345C42.2256 1.52026 42.4167 1.31366 42.4167 0.900471C44.5184 -0.132512 44.1363 0.074085 46.6202 0.487278V1.72686" fill="#4F1026" fill-opacity="0.81"/>
</svg>
