<svg width="307" height="226" viewBox="0 0 307 226" fill="none" xmlns="http://www.w3.org/2000/svg">
<path d="M14.5401 118.327C14.5401 121.213 13.0096 128.22 12.2443 130.694C11.479 133.167 8.03532 140.999 8.03532 142.648C8.03532 142.648 7.27006 139.762 7.27006 138.114C7.27006 136.465 8.03532 108.434 8.41796 101.426C8.80059 94.4186 10.3311 78.7543 9.94849 76.6932C9.56586 74.6322 15.3054 90.7086 14.5401 118.327ZM304.195 46.6014C301.516 43.7159 298.072 42.067 292.715 35.4715C286.211 27.6394 289.272 24.3417 290.802 20.6317C294.629 11.1507 287.359 10.3263 283.915 10.3263C282.002 10.3263 280.471 11.1507 278.175 11.1507C276.262 10.3263 273.966 6.20409 270.14 2.08192C266.696 -1.62803 260.957 0.845269 259.426 3.31857C258.278 4.96744 254.069 10.7385 254.452 7.02853C254.835 4.96744 251.008 4.96744 249.86 7.44074C249.478 8.67739 246.034 15.2729 246.034 15.2729C241.06 21.0439 217.336 32.586 201.266 32.586C173.716 32.586 136.218 36.7082 83.0317 37.5326C48.9772 37.9448 19.897 34.2349 14.5401 37.5326C11.0964 40.0059 7.65269 45.3647 6.12215 49.4869C5.35688 51.548 4.97425 54.4335 4.97425 56.0824C4.97425 57.7313 4.59161 62.6779 4.97425 64.739C5.35688 66.8 4.97425 71.7466 4.59161 72.9833C4.59161 74.2199 4.97425 81.6399 4.97425 83.2887C4.97425 84.9376 4.97425 86.9987 5.35688 88.6475C5.35688 90.2964 4.97425 98.953 4.97425 101.014C4.97425 103.075 4.59161 104.312 4.59161 105.961C4.97425 107.61 4.20898 112.968 4.97425 114.205C5.73952 115.442 4.59161 119.564 4.59161 121.625C4.59161 123.686 4.59161 124.923 4.59161 126.572C4.59161 128.22 3.44371 133.167 3.44371 135.228C3.44371 137.289 3.06107 139.762 3.06107 140.587C3.44371 141.824 2.67844 144.297 2.67844 145.121C2.67844 145.946 3.44371 150.892 3.44371 151.305C3.44371 151.717 0.382635 154.602 0 155.839C0 156.663 0.765266 159.961 1.1479 161.61C1.53054 163.259 2.2958 170.267 2.2958 173.152C2.2958 176.038 3.06107 179.335 3.06107 180.16C3.06107 180.984 3.06107 191.702 3.06107 194.175C3.06107 196.648 3.06107 206.954 3.06107 209.427C3.06107 211.901 2.67844 214.374 2.67844 215.198C2.67844 216.023 1.91317 216.435 2.2958 217.259C2.67844 218.084 3.44371 219.733 3.44371 220.557C3.44371 221.382 4.59161 223.03 4.59161 223.443C4.59161 223.855 17.6012 225.504 18.3665 223.443C19.1317 221.382 17.9838 220.145 17.2186 219.32C16.4533 218.084 14.5401 214.374 14.5401 212.725C14.5401 211.488 14.5401 209.839 14.5401 208.603C14.5401 207.778 14.1575 200.358 14.1575 198.297C14.1575 196.236 14.5401 180.16 21.8102 166.557C24.8712 160.786 26.7844 157.076 29.0802 152.953C30.9934 155.015 35.585 158.312 37.8808 159.137C37.1156 162.434 35.585 166.144 35.585 168.205C35.9677 170.267 38.2635 172.74 39.794 174.801C40.9419 176.45 45.5335 185.106 46.2988 186.343C47.0641 187.58 47.0641 188.816 48.212 189.229C49.3599 189.641 50.5078 190.053 51.6557 192.526C52.8036 195 56.6299 203.656 59.691 208.603C63.1347 213.549 65.0479 216.847 65.4305 218.908C65.8131 220.969 65.8131 224.267 66.1958 224.679C66.5784 225.091 77.2922 226.74 79.588 225.091C81.8838 223.443 83.0317 222.618 78.0574 215.198C73.0832 207.778 69.2569 200.771 67.7263 199.122C66.1958 197.473 59.691 183.458 59.691 179.748C59.691 176.45 60.0736 167.381 60.4563 165.32C60.8389 163.671 64.6653 162.022 67.7263 160.786C71.5527 159.549 80.7359 154.19 81.8838 152.953C94.1281 159.961 128.948 157.488 164.15 143.06C175.247 138.526 176.395 143.472 176.395 145.121C176.395 146.77 176.777 151.305 176.777 152.129C176.777 153.366 176.777 157.076 176.395 159.137C176.012 161.198 176.012 163.671 176.395 164.908C176.777 166.144 177.542 169.03 176.777 171.503C176.012 173.564 176.395 175.625 176.777 177.274C177.16 178.511 177.925 183.045 177.925 187.992C177.925 192.939 177.925 196.236 177.542 199.534C177.16 202.832 176.777 209.015 176.777 210.664C176.395 212.725 176.012 216.023 176.395 216.435C176.777 216.847 176.777 217.672 176.777 217.672C176.395 218.084 175.629 219.32 175.629 219.32C175.629 219.733 176.395 220.969 176.395 221.382C176.777 221.794 178.69 221.794 179.073 221.794C179.456 221.794 180.221 223.03 180.604 224.267C180.986 225.504 190.552 225.916 192.465 225.091C194.378 224.267 191.7 220.145 190.935 219.32C190.169 218.496 188.639 217.259 188.639 216.435C188.639 215.61 188.256 209.427 187.874 207.778C187.491 206.542 186.726 200.358 186.726 199.534C187.108 198.71 187.491 197.473 187.108 196.648C187.108 195.824 186.343 193.763 186.726 192.526C187.108 191.29 189.787 184.282 190.552 181.396C191.317 178.511 192.083 175.213 192.465 172.74C192.848 170.267 193.23 164.496 193.613 164.083C193.996 163.671 195.144 169.03 195.526 171.091C195.526 173.152 195.144 175.213 195.526 176.038C195.909 176.862 197.439 178.511 197.822 180.16C198.205 181.809 199.353 188.404 199.735 190.465C199.735 192.114 201.648 209.839 201.648 211.488C201.648 213.137 202.031 214.786 202.031 215.198C202.031 215.61 201.648 216.847 201.648 217.259C201.648 217.672 202.031 218.908 202.414 218.908C202.796 218.908 203.562 218.496 204.327 218.908C205.092 218.908 205.092 219.733 205.857 220.969C206.623 222.206 206.623 223.855 210.066 224.267C213.893 224.679 218.867 224.679 218.484 222.618C218.102 220.145 216.571 216.847 216.189 216.435C215.806 216.023 214.275 215.61 213.893 214.374C213.51 213.137 212.745 206.954 211.98 205.305C211.214 203.656 210.066 197.061 209.684 195.824C209.301 194.587 208.536 187.992 209.301 185.519C210.066 183.045 211.597 177.686 211.214 171.915C210.832 166.144 210.066 154.602 210.449 153.778C210.449 153.778 210.066 149.656 214.275 148.419C220.78 145.946 225.754 137.701 227.285 123.686C230.346 98.953 255.6 63.9145 257.513 61.4412C260.574 62.2656 282.002 59.3801 286.593 63.0901C293.481 68.4489 298.838 65.5634 304.577 61.029C308.404 57.7313 307.256 49.8991 304.195 46.6014Z" fill="#4F1026" fill-opacity="0.81"/>
</svg>
