<svg width="146" height="131" viewBox="0 0 146 131" fill="none" xmlns="http://www.w3.org/2000/svg">
<path d="M25.6435 21.3939C25.6435 21.3939 27.4274 22.6029 30.1032 24.0536C31.8871 26.7132 30.9952 31.5489 30.9952 31.5489C30.9952 31.5489 28.3194 36.8682 27.2044 38.319C26.3125 39.7697 16.2781 54.7604 18.2849 70.2347C18.9539 73.1362 20.2918 76.0376 21.8527 78.939C22.7447 80.3897 23.6366 81.5987 24.7516 83.0494C33.671 91.9955 43.4825 101.425 55.5237 105.536C56.4157 105.777 57.0846 106.019 57.9766 106.261C60.6524 106.986 63.5513 107.47 67.1191 107.953C67.565 110.613 67.1191 113.998 67.1191 113.998C67.1191 113.998 63.9972 120.284 63.9972 121.252C64.2202 122.461 55.3008 120.526 52.4019 121.493C49.5031 122.461 47.4962 121.735 47.4962 123.669C44.8204 124.878 45.7123 125.846 45.7123 125.846C45.7123 125.846 41.6986 128.747 45.4893 129.714C49.2801 130.681 59.9835 129.231 64.8892 128.263C69.7949 127.296 68.457 128.989 68.903 128.747C69.3489 128.505 67.565 126.087 69.7949 126.571C72.0248 127.054 75.5926 127.054 74.2546 125.846C72.9167 124.637 70.4639 123.186 72.2478 122.461C74.0317 121.735 73.5857 119.801 72.9167 118.592C72.2478 117.383 72.4707 109.646 73.1397 107.712C80.0523 106.986 90.5327 104.327 90.5327 104.327C90.5327 104.327 102.351 104.568 115.061 103.843C122.643 100.942 127.549 98.5237 127.549 98.5237C127.549 98.5237 141.82 93.9298 145.164 95.1387C148.063 94.6551 142.489 92.2373 142.489 92.2373C142.489 92.2373 133.569 89.3358 132.231 87.8851C130.893 86.6762 127.994 84.9837 127.994 82.5658C128.886 81.5987 141.597 87.1598 141.597 87.1598C141.597 87.1598 138.029 82.5658 131.785 79.9062C135.13 79.4226 141.597 84.2583 141.597 84.2583C141.597 84.2583 132.677 77.4883 130.893 77.2465C129.109 77.0047 108.149 66.8497 105.696 66.6079C104.804 66.6079 102.797 65.1572 100.344 63.7065C90.9787 56.2111 80.2753 51.1336 69.1259 48.474C66.4501 47.5068 63.5513 46.5397 62.4363 46.5397C60.4295 46.5397 56.4157 45.3308 51.287 47.0233C50.395 38.8025 48.8341 34.6922 48.8341 34.6922C48.8341 34.6922 48.3882 23.3282 49.2801 19.7014C48.6112 14.1403 46.1583 1.08389 35.2319 0.116744C24.3056 -0.850401 20.7378 6.88676 20.7378 6.88676C20.7378 6.88676 18.2849 12.6896 16.0551 15.3493C13.8252 18.0089 0 20.9104 0 23.57C3.3448 26.4714 22.5217 20.9104 22.5217 20.9104L25.6435 21.3939Z" fill="#4F1026" fill-opacity="0.81"/>
</svg>
