<svg width="10" height="8" viewBox="0 0 10 8" fill="none" xmlns="http://www.w3.org/2000/svg">
<path fill-rule="evenodd" clip-rule="evenodd" d="M0.766602 1.91895C0.766602 1.63353 0.879984 1.3598 1.08181 1.15798C1.28363 0.956156 1.55736 0.842773 1.84278 0.842773H8.29986C8.58528 0.842773 8.85901 0.956156 9.06083 1.15798C9.26266 1.3598 9.37604 1.63353 9.37604 1.91895V6.22367C9.37604 6.50909 9.26266 6.78282 9.06083 6.98465C8.85901 7.18647 8.58528 7.29985 8.29986 7.29985H1.84278C1.55736 7.29985 1.28363 7.18647 1.08181 6.98465C0.879984 6.78282 0.766602 6.50909 0.766602 6.22367V1.91895ZM1.84278 1.38086C1.70007 1.38086 1.56321 1.43755 1.46229 1.53847C1.36138 1.63938 1.30469 1.77624 1.30469 1.91895V2.03572L5.07132 4.2957L8.83795 2.03572V1.91895C8.83795 1.77624 8.78126 1.63938 8.68035 1.53847C8.57944 1.43755 8.44257 1.38086 8.29986 1.38086H1.84278ZM8.83795 2.66313L6.27772 4.19938L8.83795 5.74693V2.66367V2.66313ZM8.81965 6.36411L5.75523 4.51255L5.07132 4.92311L4.38687 4.51255L1.32299 6.36358C1.35376 6.47788 1.42138 6.57885 1.51535 6.65083C1.60932 6.72282 1.72441 6.76181 1.84278 6.76176H8.29986C8.41816 6.76184 8.5332 6.72293 8.62716 6.65105C8.72112 6.57916 8.78878 6.47832 8.81965 6.36411ZM1.30469 5.74693L3.86492 4.19938L1.30469 2.66313V5.74639V5.74693Z" fill="white"/>
</svg>
