<svg width="137" height="66" viewBox="0 0 137 66" fill="none" xmlns="http://www.w3.org/2000/svg">
<path d="M13.0714 53.1614C13.0714 53.1614 6.14472 44.0817 20.127 38.0406C14.7253 37.4565 6.81035 32.3797 6.81035 32.3797C6.81035 32.3797 10.7956 27.368 19.2906 25.643C12.7848 23.6621 8.37596 20.675 9.35333 12.9721C12.9662 17.3615 13.9701 18.6586 21.27 18.6371C28.57 18.6157 42.6635 16.3743 44.1096 32.0701C44.3346 40.5695 40.351 46.1812 31.4546 47.4073C22.5582 48.6335 18.3588 48.8458 15.7588 48.8535C13.2588 48.8608 13.0714 53.1614 13.0714 53.1614Z" fill="#F68B1F"/>
<path d="M31.6714 53.1067C31.6714 53.1067 47.9596 49.0588 46.9102 32.2619C45.9644 16.6646 31.5491 11.5069 31.5491 11.5069C31.5491 11.5069 30.9627 16.1086 35.1835 23.1963C30.1788 21.611 25.4812 22.4248 25.4812 22.4248C25.4812 22.4248 27.6953 27.2183 34.8014 29.2974C28.4997 28.7159 23.5103 32.3306 23.5103 32.3306C23.5103 32.3306 27.4244 37.1191 35.8202 35.6945C29.6288 38.6127 26.4423 43.222 26.4423 43.222C26.4423 43.222 31.4458 44.4073 36.1405 42.5935C33.2537 47.102 31.6714 53.1067 31.6714 53.1067Z" fill="#A03535"/>
<path d="M7.63179 39.6773C9.03766 41.6732 10.8329 40.0679 10.2277 38.2697C9.62237 36.4714 8.62532 37.4744 7.62532 37.4773C6.62562 37.5802 7.63179 39.6773 7.63179 39.6773Z" fill="#192E36"/>
<path d="M0.112409 33.0994C0.115641 34.1994 -0.0831834 34.6 1.51799 34.9952C3.11915 35.3905 3.91504 33.9882 3.91034 32.3882C3.90563 30.7882 1.90505 30.5941 0.905059 30.597C-0.0949365 30.6 0.112409 33.0994 0.112409 33.0994Z" fill="#192E36"/>
<path d="M4.78951 25.2856C5.18305 23.0844 5.88422 23.4824 7.08421 23.4788C8.28421 23.4753 8.38421 23.475 8.68949 25.2741C8.99478 27.0732 8.39478 27.075 6.79479 27.0797C5.1948 27.0844 4.78951 25.2856 4.78951 25.2856Z" fill="#192E36"/>
<path d="M41.9122 32.9765C42.7328 39.9742 45.0396 42.2674 45.1396 42.2671C46.4316 39.5633 47.1219 36.2613 46.9102 32.2619C46.6996 28.6625 45.6905 25.5654 44.3828 22.9692C43.0867 24.2731 41.1952 27.1786 41.9122 32.9765Z" fill="#B4CBC0"/>
<path d="M136.112 32.6998L136.112 32.7998C136.014 33.3001 135.615 33.6012 135.115 33.6027C135.015 33.603 128.312 32.6227 117.313 32.955C113.313 33.0668 108.715 33.6803 103.916 34.1944C94.9194 35.3208 84.623 36.5511 73.5204 35.6837C56.5163 34.3336 50.6128 33.151 50.3125 33.0519C49.8122 32.9533 49.5108 32.4542 49.6093 31.9539C49.7078 31.4536 50.2069 31.1522 50.7072 31.2507C50.8072 31.2504 56.811 32.5328 73.6148 33.7834C84.5174 34.6514 94.6138 33.4217 103.611 32.2953C108.509 31.6809 113.107 31.1674 117.207 31.0553C128.406 30.7224 135.109 31.7027 135.309 31.7021C135.81 31.9007 136.111 32.2998 136.112 32.6998Z" fill="#192E36"/>
<path d="M51.3101 32.2489C51.3066 31.0339 50.0948 30.0525 48.6037 30.0569C47.1125 30.0612 45.9066 31.0498 45.9102 32.2648C45.9137 33.4798 47.1255 34.4612 48.6166 34.4568C50.1078 34.4525 51.3137 33.4639 51.3101 32.2489Z" fill="#7A9533"/>
<path d="M43.5123 32.9718C43.924 36.9706 44.9311 39.3677 45.6352 40.7656C46.5281 38.363 47.0199 35.5615 46.8102 32.2621C46.6014 29.2627 45.8935 26.5648 44.8867 24.2678C43.9917 25.9704 43.0996 28.673 43.5123 32.9718Z" fill="#192E36"/>
<path d="M40.1281 38.3818C40.1251 37.3325 39.2719 36.4843 38.2226 36.4874C37.1732 36.4905 36.3251 37.3436 36.3282 38.393C36.3312 39.4423 37.1844 40.2905 38.2337 40.2874C39.2831 40.2843 40.1312 39.4311 40.1281 38.3818Z" fill="#B4CBC0"/>
<path d="M39.7946 26.9827C39.7916 25.9334 38.9384 25.0852 37.8891 25.0883C36.8397 25.0914 35.9916 25.9446 35.9947 26.9939C35.9977 28.0432 36.8509 28.8914 37.9002 28.8883C38.9496 28.8852 39.7977 28.0321 39.7946 26.9827Z" fill="#B4CBC0"/>
<path d="M42.4808 22.2748C42.4782 21.3912 41.7598 20.6769 40.8761 20.6795C39.9925 20.6821 39.2782 21.4006 39.2808 22.2842C39.2834 23.1679 40.0019 23.8821 40.8855 23.8795C41.7692 23.8769 42.4834 23.1585 42.4808 22.2748Z" fill="#B4CBC0"/>
<path d="M43.0434 43.5733C43.0408 42.6896 42.3223 41.9754 41.4387 41.978C40.555 41.9806 39.8408 42.699 39.8434 43.5827C39.846 44.4663 40.5644 45.1806 41.4481 45.178C42.3317 45.1754 43.046 44.4569 43.0434 43.5733Z" fill="#B4CBC0"/>
<path d="M39.3102 32.2842C39.3076 31.4005 37.6489 30.6891 35.6055 30.6951C33.5621 30.7011 31.9076 31.4223 31.9102 32.3059C31.9128 33.1896 33.5715 33.901 35.6149 33.895C37.6583 33.889 39.3128 33.1678 39.3102 32.2842Z" fill="#B4CBC0"/>
<path d="M130.607 30.9159C130.607 30.9159 106.105 30.5879 98.5949 27.01C91.0841 23.332 85.1574 14.2494 74.816 0.179721C85.5171 0.54828 98.3212 1.91067 109.441 8.47803C120.56 15.0454 124.781 22.133 127.292 25.8257C129.702 29.5186 130.607 30.9159 130.607 30.9159Z" fill="#7A9533"/>
<path d="M119.695 26.848C119.695 26.848 116.205 30.2582 106.197 27.5876C110.887 24.1738 119.695 26.848 119.695 26.848Z" fill="#192E36"/>
<path d="M113.185 23.6671C113.185 23.6671 98.9967 27.6088 93.4741 19.925C100.069 18.2056 113.185 23.6671 113.185 23.6671Z" fill="#192E36"/>
<path d="M103.568 17.8953C103.568 17.8953 92.7756 20.4271 87.9544 13.2412C93.7488 11.3242 103.568 17.8953 103.568 17.8953Z" fill="#192E36"/>
<path d="M121.191 25.6436C121.191 25.6436 115.283 22.7609 116.163 16.2583C121.168 17.7436 121.191 25.6436 121.191 25.6436Z" fill="#192E36"/>
<path d="M114.281 22.3638C114.281 22.3638 104.177 20.7935 104.14 8.19358C114.643 9.46272 114.281 22.3638 114.281 22.3638Z" fill="#192E36"/>
<path d="M104.263 16.1933C104.263 16.1933 95.9591 14.8177 95.6315 5.41859C105.029 4.59097 104.263 16.1933 104.263 16.1933Z" fill="#192E36"/>
<path d="M93.0506 11.9262C93.0506 11.9262 85.2562 13.8491 81.2319 5.56089C86.7374 7.44472 93.0506 11.9262 93.0506 11.9262Z" fill="#192E36"/>
<path d="M94.8476 10.9209C94.8476 10.9209 87.3318 5.54298 81.4239 2.86033C92.8177 0.726839 94.8476 10.9209 94.8476 10.9209Z" fill="#192E36"/>
<path d="M66.7124 33.0037C66.7124 33.0037 45.4037 30.0663 46.6361 7.06257C68.3469 10.6988 66.7124 33.0037 66.7124 33.0037Z" fill="#7A9533"/>
<path d="M61.4021 29.5193C61.4021 29.5193 57.2998 28.7313 55.0898 25.3378C59.8883 24.8237 61.4021 29.5193 61.4021 29.5193Z" fill="#192E36"/>
<path d="M65.2077 31.4081C65.2077 31.4081 60.0974 27.9231 62.5816 22.5158C65.6865 24.2067 65.2077 31.4081 65.2077 31.4081Z" fill="#192E36"/>
<path d="M56.7848 23.6328C56.7848 23.6328 51.3872 24.4487 50.3725 19.4516C53.8731 19.6414 56.7848 23.6328 56.7848 23.6328Z" fill="#192E36"/>
<path d="M60.1863 24.1228C60.1863 24.1228 55.5802 22.0364 57.3602 15.2311C62.8666 17.4149 60.1863 24.1228 60.1863 24.1228Z" fill="#192E36"/>
<path d="M53.7702 18.6417C53.7702 18.6417 47.472 19.2602 48.1517 12.3581C51.9567 14.047 53.7702 18.6417 53.7702 18.6417Z" fill="#192E36"/>
<path d="M55.6681 17.9361C55.6681 17.9361 51.7546 13.3476 50.242 9.05198C58.6531 12.8273 55.6681 17.9361 55.6681 17.9361Z" fill="#192E36"/>
<path d="M91.0138 33.4323C91.0138 33.4323 71.4259 37.5899 63.844 9.71201C75.046 10.3791 80.8566 13.962 83.6665 17.3538C86.5768 20.8453 91.0138 33.4323 91.0138 33.4323Z" fill="#7A9533"/>
<path d="M88.5059 30.7396C88.5059 30.7396 84.4035 29.9517 85.9874 24.447C88.6959 27.3391 88.5059 30.7396 88.5059 30.7396Z" fill="#192E36"/>
<path d="M83.6936 26.5538C83.6936 26.5538 79.2863 24.0667 81.3677 17.7606C85.4745 20.0485 83.6936 26.5538 83.6936 26.5538Z" fill="#192E36"/>
<path d="M78.8801 21.9679C78.8801 21.9679 75.173 19.5788 76.1575 14.2758C81.0619 15.7614 78.8801 21.9679 78.8801 21.9679Z" fill="#192E36"/>
<path d="M74.0666 17.382C74.0666 17.382 70.1634 16.2935 67.9528 12.7C73.1498 11.6847 74.0666 17.382 74.0666 17.382Z" fill="#192E36"/>
<path d="M73.573 19.5835C73.573 19.5835 71.176 20.5905 68.6675 17.6979C70.5639 16.4923 73.573 19.5835 73.573 19.5835Z" fill="#192E36"/>
<path d="M78.2874 24.4696C78.2874 24.4696 73.8912 25.7826 71.1807 22.1905C73.8768 20.8826 78.2874 24.4696 78.2874 24.4696Z" fill="#192E36"/>
<path d="M85.6059 30.7481C85.6059 30.7481 79.9098 32.0649 75.9966 27.5764C79.8939 26.6649 85.6059 30.7481 85.6059 30.7481Z" fill="#192E36"/>
<path d="M82.0079 65.4589C86.4838 57.2457 95.137 41.3202 103.728 38.295C112.219 35.27 123.215 33.6377 131.013 33.1148C126.949 45.4268 120.17 52.6467 107.69 59.1834C95.2087 65.7201 82.0079 65.4589 82.0079 65.4589Z" fill="#7A9533"/>
<path d="M126.222 36.0289C126.222 36.0289 122.042 42.9412 109.23 38.7788C115.124 36.9615 126.222 36.0289 126.222 36.0289Z" fill="#192E36"/>
<path d="M128.322 36.1227C128.322 36.1227 124.944 43.8327 120.553 46.6456C120.04 42.4471 128.322 36.1227 128.322 36.1227Z" fill="#192E36"/>
<path d="M118.24 42.1523C118.24 42.1523 109.73 38.7773 103.143 43.1967C109.852 46.477 118.24 42.1523 118.24 42.1523Z" fill="#192E36"/>
<path d="M117.546 44.3544C117.546 44.3544 109.552 46.2779 111.972 53.0708C119.068 51.8499 117.546 44.3544 117.546 44.3544Z" fill="#192E36"/>
<path d="M111.75 45.7714C111.75 45.7714 98.9437 43.609 96.6608 49.4158C107.465 50.984 111.75 45.7714 111.75 45.7714Z" fill="#192E36"/>
<path d="M110.46 49.1752C110.46 49.1752 103.463 50.1958 102.786 58.0978C111.783 57.0714 110.46 49.1752 110.46 49.1752Z" fill="#192E36"/>
<path d="M90.0955 61.2351C94.3852 57.7225 102.771 52.9978 102.771 52.9978C102.771 52.9978 102.582 56.5984 98.9896 59.209C95.3975 61.9195 90.0955 61.2351 90.0955 61.2351Z" fill="#192E36"/>
<path d="M89.7872 58.436C92.9699 52.5266 95.7658 51.1184 103.665 50.7952C96.7787 55.5155 89.7872 58.436 89.7872 58.436Z" fill="#192E36"/>
<path d="M45.9839 57.3647C57.9853 57.8294 67.065 50.9027 66.4198 35.5046C45.0293 38.7674 45.9839 57.3647 45.9839 57.3647Z" fill="#7A9533"/>
<path d="M64.1277 38.2113C64.1277 38.2113 57.8266 37.8298 56.7363 41.133C60.7407 42.6213 64.1277 38.2113 64.1277 38.2113Z" fill="#192E36"/>
<path d="M64.5324 39.8101C64.5324 39.8101 60.7362 41.1213 64.0474 44.9116C65.8409 42.7063 64.5324 39.8101 64.5324 39.8101Z" fill="#192E36"/>
<path d="M59.7421 43.1242C59.7421 43.1242 55.6372 41.4363 51.9457 44.3471C55.953 46.8354 59.7421 43.1242 59.7421 43.1242Z" fill="#192E36"/>
<path d="M61.5433 43.5189C61.5433 43.5189 58.4503 45.928 61.5618 49.8189C63.4556 47.7133 61.5433 43.5189 61.5433 43.5189Z" fill="#192E36"/>
<path d="M49.2604 49.355C51.6492 45.548 55.8545 47.3357 55.8545 47.3357C53.6633 50.3421 49.2604 49.355 49.2604 49.355Z" fill="#192E36"/>
<path d="M58.6522 46.5274C58.6522 46.5274 55.6551 47.5362 57.171 52.9318C61.2648 50.8198 58.6522 46.5274 58.6522 46.5274Z" fill="#192E36"/>
<path d="M47.576 54.66C50.8727 53.5503 50.4677 51.8515 51.0651 50.9497C47.063 50.2615 47.576 54.66 47.576 54.66Z" fill="#192E36"/>
<path d="M50.878 55.3503C54.1809 56.3406 56.4747 54.2339 55.8636 50.4357C51.0651 50.9498 50.878 55.3503 50.878 55.3503Z" fill="#192E36"/>
<path d="M66.4859 58.0045C87.4899 59.3428 90.7388 41.9331 89.7206 35.7361C65.7265 37.8066 66.4859 58.0045 66.4859 58.0045Z" fill="#7A9533"/>
<path d="M69.3794 55.796C72.875 54.2857 74.9747 54.1795 76.5617 49.7748C69.86 49.1945 69.3794 55.796 69.3794 55.796Z" fill="#192E36"/>
<path d="M80.1491 45.4643C74.5465 44.5807 72.3506 45.9872 70.558 48.4925C74.9621 49.8795 80.1491 45.4643 80.1491 45.4643Z" fill="#192E36"/>
<path d="M75.2427 43.2787C78.9503 45.8678 81.0435 43.5616 82.84 42.3564C78.5327 39.869 75.2427 43.2787 75.2427 43.2787Z" fill="#192E36"/>
<path d="M80.1326 39.8643C82.527 37.9573 83.7276 38.1537 86.2288 38.5464C84.5397 42.2514 80.1326 39.8643 80.1326 39.8643Z" fill="#192E36"/>
<path d="M88.0303 39.0411C88.0303 39.0411 83.7388 41.9537 87.3479 45.0431C90.0402 42.4352 88.0303 39.0411 88.0303 39.0411Z" fill="#192E36"/>
<path d="M83.8629 50.1534C86.6564 47.9452 85.7435 43.5478 84.8391 42.0505C81.9485 45.259 83.8629 50.1534 83.8629 50.1534Z" fill="#192E36"/>
<path d="M77.8744 54.071C82.7699 52.5566 82.8594 48.9563 82.2508 46.0581C76.0544 47.2763 77.8744 54.071 77.8744 54.071Z" fill="#192E36"/>
</svg>
