<svg width="470" height="394" viewBox="0 0 470 394" fill="none" xmlns="http://www.w3.org/2000/svg">
<g filter="url(#filter0_d)">
<path d="M88.5009 377.673C88.5009 377.673 68.2511 331.887 49.176 349.869C30.101 367.851 43.7379 376.675 61.2356 381.329C78.4805 386.298 90.9863 383.615 90.9863 383.615L88.5009 377.673Z" fill="#7A9533"/>
<path d="M84.3684 379.624C84.3684 379.624 73.8258 353.367 63.9174 360.559C54.0089 367.751 64.6363 375.813 72.5249 378.248C80.9884 380.611 84.3684 379.624 84.3684 379.624Z" fill="#192E36"/>
<path d="M95.312 384.913C95.312 384.913 92.2838 402.903 109.697 418.65C127.111 434.396 138.882 428.11 143.18 422.749C147.478 417.387 142.988 402.316 131.073 393.277C119.549 385.042 95.312 384.913 95.312 384.913Z" fill="#7A9533"/>
<path d="M97.6141 387.165C97.6141 387.165 110.057 391.025 116.083 392.553C122.109 394.081 125.193 402.508 121.47 407.799C117.747 413.09 105.855 406.604 102.08 399.683C98.3062 392.762 97.6141 387.165 97.6141 387.165Z" fill="#192E36"/>
<path d="M123.17 344.954C123.17 344.954 150.527 337.31 165.57 352.779C180.613 368.247 173.628 380.19 165.882 385.977C158.136 391.764 143.488 384.201 135.757 371.237C128.096 358.833 123.17 344.954 123.17 344.954Z" fill="#7A9533"/>
<path d="M123.924 346.542C125.327 346.084 158.873 343.641 150.395 360.03C141.917 376.42 123.924 346.542 123.924 346.542Z" fill="#192E36"/>
<path d="M149.724 313.096C149.724 313.096 166.551 307.607 183.795 312.576C201.039 317.544 208.471 332.816 198.589 342.559C188.707 352.303 175.327 350.265 167.392 342.724C159.71 334.869 149.724 313.096 149.724 313.096Z" fill="#7A9533"/>
<path d="M152.14 313.915C152.14 313.915 184.647 310.179 184.054 321.899C183.461 333.618 166.448 332.882 161.272 326.42C155.522 320.03 152.14 313.915 152.14 313.915Z" fill="#192E36"/>
<path d="M145.335 309.28C145.335 309.28 151.465 288.069 137.847 267.596C124.228 247.123 108.899 262.37 114.631 280.409C120.616 298.133 145.335 309.28 145.335 309.28Z" fill="#7A9533"/>
<path d="M144.765 306.803C144.765 306.803 143.559 280.537 137.213 278.766C130.868 276.994 124.182 286.626 130.576 293.504C136.716 300.698 144.765 306.803 144.765 306.803Z" fill="#192E36"/>
<path d="M117.484 342.111C117.484 342.111 95.8487 346.491 81.1751 336.374C66.5014 326.256 65.945 314.677 72.2649 306.793C78.5849 298.909 93.7161 303.288 102.227 310.759C110.737 318.229 117.484 342.111 117.484 342.111Z" fill="#7A9533"/>
<path d="M116.143 340.601C116.143 340.601 105.025 321.51 96.7873 316.275C88.55 311.041 84.2773 326.066 91.5482 330.567C98.5662 335.384 116.143 340.601 116.143 340.601Z" fill="#192E36"/>
<path d="M60.2941 440.737C59.3318 440.006 58.8732 438.648 59.3079 437.461C121.151 321.649 165.001 290.741 166.902 289.657C167.978 288.957 169.765 289.302 170.475 290.347C171.186 291.392 170.82 293.136 169.744 293.835C169.492 294.15 124.817 325.443 63.9815 439.998C63.5468 441.184 61.5772 441.711 60.2941 440.737C60.6149 440.98 60.2941 440.737 60.2941 440.737Z" fill="#192E36"/>
<path d="M189.403 248.63C171.254 248.034 158.925 261.478 159.759 275.282C160.593 289.086 165.215 298.164 184.235 296.382C203.002 294.915 209.983 290.079 210.734 274.943C211.962 249.532 189.403 248.63 189.403 248.63Z" fill="#A03535"/>
<path d="M175.878 288.963C183.784 294.023 194.442 291.851 199.683 284.112C204.924 276.372 202.764 265.996 194.858 260.936C186.951 255.876 176.294 258.048 171.053 265.787C165.811 273.526 167.972 283.902 175.878 288.963Z" fill="#F68B1F"/>
<path d="M300.068 73.229C300.068 73.229 245.286 108.657 210.029 148.766C174.772 188.876 172.036 230.358 205.582 258.845C238.553 287.402 259.461 303.263 324.456 253.804C389.52 204.904 406.616 175.835 406.616 175.835C406.616 175.835 329.709 194.986 286.355 209.706C314.84 176.109 346.829 121.364 346.829 121.364C346.829 121.364 288.665 143.59 259.277 162.828C283.626 124.066 300.068 73.229 300.068 73.229Z" fill="#EF413D"/>
<path d="M228.105 147.745C230.363 149.191 233.409 148.57 234.906 146.359C236.404 144.147 235.787 141.183 233.528 139.737C231.269 138.291 228.224 138.912 226.727 141.124C225.229 143.335 225.846 146.3 228.105 147.745Z" fill="#B4CBC0"/>
<path d="M222.505 167.241C225.516 169.169 229.576 168.341 231.573 165.393C233.57 162.444 232.748 158.491 229.736 156.564C226.724 154.636 222.664 155.464 220.667 158.412C218.671 161.361 219.493 165.314 222.505 167.241Z" fill="#B4CBC0"/>
<path d="M196.472 196.509C199.484 198.436 203.544 197.609 205.541 194.66C207.538 191.712 206.715 187.759 203.703 185.831C200.692 183.904 196.632 184.731 194.635 187.68C192.638 190.628 193.46 194.581 196.472 196.509Z" fill="#B4CBC0"/>
<path d="M218.498 209.174C221.509 211.102 225.569 210.274 227.566 207.326C229.563 204.377 228.741 200.424 225.729 198.497C222.717 196.569 218.657 197.397 216.66 200.345C214.663 203.294 215.486 207.247 218.498 209.174Z" fill="#B4CBC0"/>
<path d="M237.828 222.838C241.593 225.247 246.668 224.212 249.164 220.526C251.66 216.841 250.632 211.9 246.867 209.49C243.103 207.081 238.027 208.116 235.531 211.802C233.035 215.487 234.064 220.428 237.828 222.838Z" fill="#B4CBC0"/>
<path d="M255.258 236.05C259.023 238.46 264.098 237.425 266.594 233.739C269.09 230.053 268.062 225.112 264.297 222.703C260.532 220.294 255.457 221.329 252.961 225.014C250.465 228.7 251.494 233.641 255.258 236.05Z" fill="#B4CBC0"/>
<path d="M211.755 252.535C214.578 254.342 218.385 253.566 220.257 250.802C222.129 248.038 221.358 244.332 218.534 242.525C215.711 240.718 211.905 241.494 210.032 244.258C208.16 247.023 208.932 250.728 211.755 252.535Z" fill="#B4CBC0"/>
<path d="M248.563 273.946C251.386 275.753 255.193 274.977 257.065 272.213C258.937 269.448 258.166 265.743 255.343 263.936C252.519 262.129 248.713 262.904 246.841 265.669C244.969 268.433 245.74 272.139 248.563 273.946Z" fill="#B4CBC0"/>
<path d="M220.029 189.102C223.04 191.029 227.1 190.202 229.097 187.253C231.094 184.305 230.272 180.352 227.26 178.424C224.248 176.497 220.188 177.324 218.191 180.273C216.194 183.221 217.017 187.174 220.029 189.102Z" fill="#B4CBC0"/>
<path d="M295.056 261.243C297.879 263.05 301.686 262.274 303.558 259.509C305.43 256.745 304.659 253.039 301.835 251.232C299.012 249.425 295.205 250.201 293.333 252.966C291.461 255.73 292.233 259.436 295.056 261.243Z" fill="#B4CBC0"/>
<path d="M212.966 229.73C216.166 231.778 220.48 230.898 222.602 227.766C224.723 224.633 223.849 220.433 220.65 218.385C217.45 216.337 213.136 217.217 211.014 220.349C208.893 223.482 209.767 227.682 212.966 229.73Z" fill="#B4CBC0"/>
<path d="M227.481 266.021C230.681 268.069 234.995 267.19 237.116 264.057C239.238 260.924 238.364 256.724 235.164 254.676C231.965 252.628 227.651 253.508 225.529 256.641C223.407 259.773 224.281 263.973 227.481 266.021Z" fill="#B4CBC0"/>
<path d="M255.737 256.64C258.937 258.688 263.251 257.809 265.372 254.676C267.494 251.543 266.62 247.343 263.42 245.295C260.22 243.247 255.906 244.127 253.785 247.26C251.663 250.393 252.537 254.592 255.737 256.64Z" fill="#B4CBC0"/>
<path d="M272.729 271.053C275.929 273.101 280.243 272.221 282.364 269.088C284.486 265.956 283.612 261.756 280.412 259.708C277.212 257.66 272.898 258.539 270.777 261.672C268.655 264.805 269.529 269.005 272.729 271.053Z" fill="#B4CBC0"/>
<path d="M277.515 248.927C280.715 250.975 285.029 250.095 287.151 246.963C289.272 243.83 288.398 239.63 285.198 237.582C281.999 235.534 277.685 236.413 275.563 239.546C273.441 242.679 274.315 246.879 277.515 248.927Z" fill="#B4CBC0"/>
<path d="M233.488 247.832C237.817 250.603 243.654 249.413 246.524 245.175C249.395 240.936 248.212 235.254 243.883 232.483C239.554 229.712 233.717 230.902 230.847 235.141C227.976 239.379 229.159 245.062 233.488 247.832Z" fill="#B4CBC0"/>
<path d="M193.713 216.138C196.724 218.065 200.784 217.238 202.781 214.289C204.778 211.34 203.955 207.388 200.944 205.46C197.932 203.533 193.872 204.361 191.875 207.309C189.878 210.258 190.701 214.211 193.713 216.138Z" fill="#B4CBC0"/>
<path d="M204.6 173.372C207.612 175.299 211.672 174.471 213.669 171.523C215.666 168.574 214.843 164.621 211.831 162.694C208.82 160.766 204.76 161.594 202.763 164.543C200.766 167.491 201.589 171.444 204.6 173.372Z" fill="#B4CBC0"/>
<path d="M239.777 177.836C242.035 179.282 245.081 178.661 246.578 176.449C248.076 174.238 247.459 171.273 245.2 169.828C242.941 168.382 239.896 169.003 238.399 171.214C236.901 173.426 237.518 176.39 239.777 177.836Z" fill="#B4CBC0"/>
<path d="M257.639 198.973C259.898 200.419 262.943 199.798 264.44 197.586C265.938 195.375 265.321 192.41 263.062 190.965C260.803 189.519 257.758 190.14 256.261 192.352C254.763 194.563 255.38 197.528 257.639 198.973Z" fill="#B4CBC0"/>
<path d="M319.514 245.451C321.773 246.897 324.818 246.276 326.316 244.065C327.813 241.853 327.196 238.889 324.938 237.443C322.679 235.997 319.634 236.618 318.136 238.83C316.639 241.041 317.256 244.006 319.514 245.451Z" fill="#B4CBC0"/>
<path d="M297.817 242.116C300.076 243.561 303.121 242.941 304.619 240.729C306.116 238.518 305.499 235.553 303.241 234.108C300.982 232.662 297.937 233.283 296.439 235.494C294.942 237.706 295.559 240.67 297.817 242.116Z" fill="#B4CBC0"/>
<path d="M237.92 197.663C240.179 199.109 243.224 198.488 244.721 196.276C246.219 194.065 245.602 191.1 243.343 189.655C241.085 188.209 238.039 188.83 236.542 191.041C235.044 193.253 235.661 196.217 237.92 197.663Z" fill="#B4CBC0"/>
<path d="M195.128 234.887C197.387 236.332 200.432 235.711 201.93 233.5C203.427 231.289 202.81 228.324 200.551 226.878C198.293 225.433 195.248 226.054 193.75 228.265C192.252 230.477 192.869 233.441 195.128 234.887Z" fill="#B4CBC0"/>
<path d="M253.941 213.843C255.823 215.047 258.361 214.53 259.609 212.687C260.857 210.844 260.342 208.374 258.46 207.169C256.578 205.965 254.04 206.482 252.792 208.325C251.544 210.168 252.059 212.638 253.941 213.843Z" fill="#B4CBC0"/>
<path d="M266.684 215.441C268.566 216.646 271.104 216.128 272.352 214.286C273.6 212.443 273.086 209.972 271.203 208.768C269.321 207.563 266.784 208.08 265.536 209.923C264.287 211.766 264.802 214.236 266.684 215.441Z" fill="#B4CBC0"/>
<path d="M275.534 227.698C277.416 228.903 279.953 228.386 281.201 226.543C282.45 224.7 281.935 222.23 280.053 221.025C278.171 219.82 275.633 220.337 274.385 222.18C273.137 224.023 273.651 226.494 275.534 227.698Z" fill="#B4CBC0"/>
<path d="M336.134 59.4858C338.081 56.4126 337.277 52.2631 334.388 50.0708C331.247 48.193 326.985 49.0031 324.717 51.8327C323.022 54.5915 323.437 57.9395 325.752 60.2026L290.963 108.125C290.459 108.754 290.849 109.555 291.17 109.799C291.812 110.286 292.637 109.901 292.889 109.586L327.678 61.6641C330.498 63.2984 334.119 62.0011 336.134 59.4858Z" fill="#192E36"/>
<path d="M370.194 44.8805C365.128 41.5411 358.322 42.9489 354.863 47.9086C352.665 51.2962 352.644 55.8309 354.525 59.2808C346.049 65.9938 321.513 86.3054 300.829 109.54C275.541 137.876 271.03 146.082 270.778 146.396C270.274 147.025 270.664 147.826 270.985 148.07C271.627 148.557 272.452 148.172 272.956 147.543C272.956 147.543 277.719 139.023 302.755 111.002C323.187 88.0813 347.723 67.7697 355.947 61.3711C356.589 61.8583 357.231 62.3454 357.873 62.8326C362.94 66.172 369.746 64.7642 373.204 59.8046C376.662 54.8449 375.261 48.2199 370.194 44.8805Z" fill="#192E36"/>
<path d="M360.27 70.192C357.128 68.3137 353.438 69.0532 351.491 72.127C350.483 73.3848 350.438 75.3736 350.645 77.0478C344.894 82.2917 327.891 97.7089 314.006 112.457C297.601 130.351 282.957 138.96 282.705 139.275C281.88 139.66 281.697 140.532 282.339 141.02L282.66 141.263C282.981 141.507 283.554 141.436 284.127 141.365C284.127 141.365 299.597 132.371 316.254 114.163C328.993 99.556 345.491 84.7677 351.815 79.453C352.457 79.9403 352.527 80.4984 353.421 80.6712C356.562 82.5494 360.253 81.8099 362.2 78.7361C363.895 75.9768 362.838 72.141 360.27 70.192Z" fill="#192E36"/>
<path d="M354.741 97.8344C351.597 95.955 347.33 96.7658 345.06 99.5976C343.799 101.171 343.754 103.161 344.283 105.08C341.692 107.668 326.076 122.638 308.988 130.419C308.162 130.805 307.979 131.678 308.3 131.922C308.622 132.165 308.622 132.165 308.943 132.409C309.264 132.653 309.838 132.582 310.411 132.511C326.926 124.801 341.854 111.333 346.028 107.416C346.67 107.903 347.061 108.705 347.382 108.949C350.526 110.828 354.793 110.018 357.063 107.186C359.011 104.11 357.885 99.7137 354.741 97.8344Z" fill="#192E36"/>
<path d="M400.426 51.1277C396.32 48.518 390.909 49.4701 387.953 53.8028C386.257 56.5627 386.098 59.9829 387.59 62.6323C373.722 72.8476 334.271 102.094 318.386 114.825C298.512 130.6 296.243 133.431 296.243 133.431C295.739 134.06 295.808 134.618 296.45 135.106C297.093 135.593 297.666 135.522 298.17 134.893C298.17 134.893 301.012 131.992 320.061 116.602C335.946 103.87 375.396 74.6243 389.265 64.409C389.586 64.6526 390.228 65.14 390.549 65.3837C394.655 67.9934 400.067 67.0413 403.023 62.7086C405.796 59.2488 404.532 53.7374 400.426 51.1277Z" fill="#192E36"/>
<path d="M401.393 72.6444C398.251 70.766 394.56 71.5055 392.292 74.336C391.283 75.5939 391.17 77.0247 391.308 78.141C387.092 84.0456 376.827 97.4981 355.306 114.042C354.802 114.671 354.619 115.543 354.94 115.787L355.261 116.031C355.582 116.274 356.476 116.447 356.729 116.133C376.92 100.603 387.575 87.9527 392.295 81.4191C392.685 82.2209 393.328 82.7082 393.97 83.1956C397.112 85.074 400.803 84.3344 402.75 81.2603C405.019 78.4299 403.962 74.5937 401.393 72.6444Z" fill="#192E36"/>
<path d="M399.484 91.8865C395.059 89.0342 389.399 90.3004 386.445 94.6313C384.75 97.3902 384.591 100.809 385.83 103.772C380.332 108.7 367.503 120.2 349.911 140.221C325.882 166.985 318.872 173.8 318.62 174.115C318.116 174.744 318.185 175.302 318.575 176.103C318.575 176.103 318.575 176.103 318.896 176.347C319.538 176.834 320.111 176.763 320.615 176.134C320.615 176.134 327.625 169.319 351.906 142.24C369.567 122.778 381.823 111.349 387.321 106.42C387.963 106.907 388.353 107.709 389.247 107.882C393.672 110.734 399.332 109.468 402.287 105.137C405.241 100.806 403.909 94.7387 399.484 91.8865Z" fill="#192E36"/>
<path d="M392.525 117.398C387.456 114.058 380.648 115.466 377.189 120.427C374.737 124.13 374.717 128.666 377.171 132.045C365.875 144.208 337.781 173.464 305.168 196.761C304.664 197.39 304.481 198.263 304.802 198.506L305.124 198.75C305.445 198.994 306.339 199.166 306.591 198.852C338.883 175.311 367.045 146.614 378.594 134.136C378.915 134.38 379.557 134.867 379.878 135.111C384.947 138.451 391.755 137.043 395.214 132.082C398.995 127.365 397.593 120.738 392.525 117.398Z" fill="#192E36"/>
<path d="M425.655 103.173C428.105 99.4716 426.911 94.5208 423.129 92.156C419.346 89.7911 414.26 90.9864 411.81 94.6881C409.611 98.0755 410.415 102.225 413.052 104.731C403.617 117.793 377.852 149.302 331.74 185.592C331.236 186.221 331.053 187.093 331.374 187.336L331.695 187.58C332.016 187.824 332.91 187.996 333.162 187.682C379.274 151.392 405.291 119.569 414.726 106.507C418.943 107.685 423.457 106.561 425.655 103.173Z" fill="#192E36"/>
<path d="M419.3 131.18C421.247 128.105 420.443 123.955 417.553 121.762C414.411 119.883 410.146 120.694 407.878 123.524C406.183 126.284 406.597 129.633 408.593 131.653C402.222 138.957 382.582 158.952 344.052 183.832C343.227 184.218 343.044 185.09 343.686 185.578L344.007 185.821C344.328 186.065 344.901 185.994 345.475 185.923C384.005 161.043 404.149 140.419 410.519 133.115C413.662 134.993 417.605 133.939 419.3 131.18Z" fill="#192E36"/>
<path d="M414.359 149.679C416.307 146.604 415.571 143.01 412.428 141.131C409.285 139.252 405.592 139.992 403.644 143.067C402.2 145.513 402.225 148.061 403.969 150.396C398.788 155.571 388.035 165.119 367.031 176.501C366.205 176.887 366.022 177.76 366.665 178.247C366.986 178.491 366.986 178.491 367.307 178.735C367.629 178.978 368.202 178.908 368.775 178.837C390.032 167.14 401.358 157.521 406.217 152.102C408.97 153.179 412.663 152.439 414.359 149.679Z" fill="#192E36"/>
<path d="M431.453 139.414C428.309 137.535 424.617 138.275 422.669 141.35C421.156 143.238 421.432 145.471 422.282 147.633C418.752 152.038 410.041 161.617 390.687 172.228C389.862 172.614 389.679 173.487 390.321 173.974C390.642 174.218 390.642 174.218 390.964 174.462C391.285 174.705 391.858 174.634 392.432 174.564C411.533 164.267 420.565 154.931 424.6 149.898L424.921 150.142C428.064 152.021 431.757 151.281 433.705 148.206C435.079 145.202 434.022 141.364 431.453 139.414Z" fill="#192E36"/>
</g>
<defs>
<filter id="filter0_d" x="27.9291" y="31.0629" width="418.381" height="422.182" filterUnits="userSpaceOnUse" color-interpolation-filters="sRGB">
<feFlood flood-opacity="0" result="BackgroundImageFix"/>
<feColorMatrix in="SourceAlpha" type="matrix" values="0 0 0 0 0 0 0 0 0 0 0 0 0 0 0 0 0 0 127 0"/>
<feOffset/>
<feGaussianBlur stdDeviation="6"/>
<feColorMatrix type="matrix" values="0 0 0 0 0.164706 0 0 0 0 0.12549 0 0 0 0 0.129412 0 0 0 0.47 0"/>
<feBlend mode="normal" in2="BackgroundImageFix" result="effect1_dropShadow"/>
<feBlend mode="normal" in="SourceGraphic" in2="effect1_dropShadow" result="shape"/>
</filter>
</defs>
</svg>
