<svg width="107" height="75" viewBox="0 0 107 75" fill="none" xmlns="http://www.w3.org/2000/svg">
<g clip-path="url(#clip0)">
<path d="M27.427 42.0151C27.427 42.0151 32.4972 40.7528 37.275 43.3848C41.9928 46.0132 46.2355 51.562 43.2688 55.8985C40.302 60.2351 37.5175 57.4813 36.804 54.3094C36.0904 51.1375 35.2042 47.8349 32.0348 45.4794C28.8654 43.1239 27.427 42.0151 27.427 42.0151Z" fill="#7A9533"/>
<path d="M29.3809 42.5528C29.3809 42.5528 36.6252 44.1885 39.5718 47.2528C43.0259 50.8891 42.6743 53.7567 40.938 54.6161C39.2018 55.4754 38.6511 51.591 37.1679 49.2158C35.6847 46.8405 33.9752 45.234 32.5261 44.3051C31.077 43.3761 29.3809 42.5528 29.3809 42.5528Z" fill="#192E36"/>
<path d="M38.9842 23.808C36.2222 23.7035 34.536 23.7233 34.4199 27.6882C34.3038 31.6531 32.1606 38.3256 26.6869 41.309C31.0366 41.0268 37.4582 39.3035 40.6648 34.9813C43.8714 30.6591 42.4383 27.4443 41.4591 25.7008C40.3563 24.0102 38.9842 23.808 38.9842 23.808Z" fill="#7A9533"/>
<path d="M30.3286 39.7809C30.3286 39.7809 35.5553 36.9031 38.2285 33.4518C40.4462 30.5751 39.8812 26.9306 38.4178 26.2415C36.9544 25.5525 36.3083 26.2963 35.7339 29.8728C35.0996 33.4457 34.8374 34.8142 33.5344 36.4817C32.2913 38.1528 30.3286 39.7809 30.3286 39.7809Z" fill="#192E36"/>
<path d="M28.3795 29.0732C26.3021 28.5883 24.9936 28.3297 24.3315 31.3593C23.6693 34.389 21.0374 39.1668 16.4362 40.6376C19.78 41.0777 24.98 40.6657 28.0372 37.839C31.0944 35.0124 30.5322 32.331 29.9584 30.8524C29.441 29.4374 28.3795 29.0732 28.3795 29.0732Z" fill="#7A9533"/>
<path d="M19.481 40.0368C19.481 40.0368 24.1762 40.016 26.9237 36.3283C28.9508 33.6208 29.2559 31.5327 27.609 30.8929C26.4311 30.4615 26.0078 30.4965 25.3036 33.2227C24.6772 35.6527 23.5755 36.9712 22.3682 38.0426C21.1645 39.054 19.481 40.0368 19.481 40.0368Z" fill="#192E36"/>
<path d="M17.5291 41.4851C17.5291 41.4851 21.3848 41.4141 24.36 43.9988C27.3352 46.5834 29.462 51.2839 26.659 53.885C23.8524 56.546 22.3128 54.1072 22.2724 51.7578C22.2356 49.3484 22.1423 46.8755 20.2886 44.6586C18.3749 42.4382 17.5291 41.4851 17.5291 41.4851Z" fill="#7A9533"/>
<path d="M18.8126 42.1634C18.8126 42.1634 23.891 43.7902 25.3769 47.1285C26.8628 50.4668 26.5756 52.2551 25.1678 52.6526C23.8235 52.9936 23.9952 50.1153 23.3301 48.1498C22.6014 46.2408 21.6642 44.8008 20.7549 43.9041C19.9054 43.0109 18.8126 42.1634 18.8126 42.1634Z" fill="#192E36"/>
<path d="M43.2535 40.0103C43.2428 40.1902 43.1121 40.3629 42.9287 40.4122C23.5419 43.5888 15.9243 41.1486 15.628 41.0707C15.4517 41 15.2825 40.8094 15.3568 40.5731C15.4275 40.3968 15.6181 40.2276 15.8544 40.3019C15.9144 40.3055 23.592 42.7493 42.7953 39.6219C42.9787 39.5726 43.2114 39.7069 43.2535 40.0103C43.2571 39.9503 43.2571 39.9503 43.2535 40.0103Z" fill="#192E36"/>
<path d="M78.6179 18.168C78.6179 18.168 69.4331 16.7777 60.0767 18.2658C50.7203 19.7538 41.1996 28.0324 43.0736 39.9996C44.8876 51.9631 53.9062 58.1579 65.6211 58.4955C77.3359 58.8331 83.2454 53.5889 83.2454 53.5889L78.0927 52.1983C78.0927 52.1983 81.2215 48.1724 75.8039 47.1873C79.4456 45.6593 81.9229 44.4831 81.9229 44.4831L75.8314 43.6985C75.8314 43.6985 81.1046 40.0411 75.4722 38.622C79.3753 36.7485 81.5107 35.251 81.5107 35.251L75.4299 34.2865C75.4299 34.2865 77.875 33.65 77.5697 31.7061C77.2644 29.7621 74.9293 29.5627 74.9293 29.5627L79.2914 27.0546C79.2914 27.0546 77.3098 25.9735 74.2301 26.1509C75.705 25.6371 76.582 23.0415 73.5389 21.5962C76.7787 19.7433 78.6179 18.168 78.6179 18.168Z" fill="#EF413D"/>
<path d="M65.0089 43.5345C66.8192 38.4068 64.0649 33.1273 59.8813 28.605C57.0547 25.5478 51.8313 24.3336 48.7309 23.8478C44.5899 27.693 41.9715 33.2539 43.07 40.0596C44.2107 47.1686 47.8188 52.2583 53.0584 55.2187C60.3518 53.0058 63.3435 48.2495 65.0089 43.5345Z" fill="#F68B1F"/>
<path d="M43.0136 39.996C43.8383 45.341 46.1736 49.5725 49.4835 52.5983C56.3233 52.9461 60.7801 46.8329 62.142 42.1599C63.6489 37.0743 61.1892 33.9186 57.1534 29.9468C54.1397 26.9988 48.9405 26.3878 46.4219 26.2376C43.6744 29.9252 42.1926 34.591 43.0136 39.996Z" fill="#B4CBC0"/>
<path d="M48.4965 38.8786C47.8187 35.1071 44.5214 33.8874 43.0965 33.5617C42.6751 35.5826 42.6698 37.6886 43.0137 39.9959C43.3611 42.2433 43.9591 44.3251 44.8148 46.1213C46.2584 45.1242 49.1214 42.5267 48.4965 38.8786Z" fill="#192E36"/>
<path d="M74.0994 56.594L68.3771 18.3396C68.3314 18.0962 68.522 17.927 68.7055 17.8777C68.949 17.8321 69.1181 18.0227 69.1674 18.2062L74.8861 56.5206C74.9318 56.764 74.7411 56.9332 74.5577 56.9824C74.3178 56.9681 74.0851 56.8339 74.0994 56.594Z" fill="#192E36"/>
<path d="M72.339 56.85L66.6166 18.5956C66.571 18.3521 66.7616 18.183 66.9451 18.1337C67.1885 18.0881 67.3577 18.2787 67.4069 18.4622L73.1257 56.7766C73.1713 57.02 72.9807 57.1892 72.7972 57.2384C72.5574 57.2241 72.3846 57.0934 72.339 56.85Z" fill="#192E36"/>
<path d="M71.5228 24.6977C71.6308 25.4195 72.3035 25.9171 73.0254 25.8091C73.7472 25.7011 74.2448 25.0284 74.1368 24.3065C74.0288 23.5847 73.3561 23.0871 72.6342 23.1951C71.9124 23.3031 71.4148 23.9758 71.5228 24.6977Z" fill="#A03535"/>
<path d="M72.6835 32.4703C72.7915 33.1921 73.4643 33.6897 74.1861 33.5817C74.908 33.4737 75.4056 32.801 75.2976 32.0791C75.1896 31.3573 74.5168 30.8597 73.795 30.9677C73.0731 31.0757 72.5755 31.7484 72.6835 32.4703Z" fill="#A03535"/>
<path d="M49.5241 37.2262C49.6321 37.9481 50.3049 38.4457 51.0267 38.3377C51.7485 38.2297 52.2462 37.5569 52.1381 36.8351C52.0301 36.1132 51.3574 35.6156 50.6355 35.7237C49.9137 35.8317 49.4161 36.5044 49.5241 37.2262Z" fill="#EF413D"/>
<path d="M49.7564 41.5081C49.8644 42.23 50.5372 42.7276 51.259 42.6195C51.9808 42.5115 52.4785 41.8388 52.3704 41.117C52.2624 40.3951 51.5897 39.8975 50.8678 40.0055C50.146 40.1135 49.6484 40.7863 49.7564 41.5081Z" fill="#EF413D"/>
<path d="M48.521 44.9376C48.6093 45.5282 49.1597 45.9354 49.7503 45.847C50.3409 45.7586 50.7481 45.2082 50.6597 44.6176C50.5713 44.027 50.0209 43.6199 49.4303 43.7082C48.8397 43.7966 48.4326 44.347 48.521 44.9376Z" fill="#EF413D"/>
<path d="M47.5401 34.1707C47.6285 34.7613 48.1789 35.1684 48.7695 35.08C49.3601 34.9916 49.7673 34.4412 49.6789 33.8506C49.5905 33.26 49.0401 32.8529 48.4495 32.9413C47.8589 33.0296 47.4517 33.5801 47.5401 34.1707Z" fill="#EF413D"/>
<path d="M44.7552 32.2599C44.8191 32.6865 45.2166 32.9805 45.6431 32.9167C46.0697 32.8529 46.3637 32.4553 46.2999 32.0288C46.2361 31.6023 45.8385 31.3082 45.412 31.372C44.9855 31.4359 44.6914 31.8334 44.7552 32.2599Z" fill="#EF413D"/>
<path d="M46.5724 47.2298C46.6362 47.6563 47.0337 47.9504 47.4603 47.8865C47.8868 47.8227 48.1809 47.4252 48.117 46.9986C48.0532 46.5721 47.6557 46.2781 47.2291 46.3419C46.8026 46.4057 46.5086 46.8032 46.5724 47.2298Z" fill="#EF413D"/>
<path d="M83.945 17.6432C83.7346 16.1262 81.795 15.3485 80.8034 15.831C79.7518 16.3099 79.2148 17.2407 79.436 18.5779C79.6571 19.915 80.9513 20.4135 82.3484 20.1959C83.6256 19.9712 83.945 17.6432 83.945 17.6432Z" fill="#192E36"/>
<path d="M84.4073 26.0357C84.4681 25.0163 83.0548 23.4877 81.9539 23.7831C80.8531 24.0785 79.8963 24.9844 80.181 26.2651C80.4657 27.5459 81.1881 28.5518 82.6451 28.3378C84.0387 28.1802 84.4073 26.0357 84.4073 26.0357Z" fill="#192E36"/>
<path d="M87.2083 34.5678C87.0014 32.9908 85.6052 32.1854 84.3844 32.4736C83.1636 32.7619 82.4682 33.3222 82.9149 34.9135C83.3616 36.5048 83.8727 37.0168 85.2098 36.7956C87.4536 36.5082 87.2083 34.5678 87.2083 34.5678Z" fill="#192E36"/>
<path d="M87.0281 43.6441C86.9161 42.494 85.8197 41.7065 84.564 41.5714C83.3082 41.4363 82.5735 42.6563 82.8403 44.2369C83.1036 45.8774 84.7719 46.1575 85.8092 45.9184C86.9029 45.7429 87.0281 43.6441 87.0281 43.6441Z" fill="#192E36"/>
<path d="M88.8553 52.3587C88.6378 50.9616 87.5377 50.2341 85.9536 50.5608C84.3694 50.8876 84.4492 52.5774 84.6354 53.4912C84.8216 54.405 86.8632 55.4896 88.4303 54.4397C89.4927 53.7809 88.8553 52.3587 88.8553 52.3587Z" fill="#192E36"/>
<path d="M83.7329 34.8065C83.836 35.4956 84.4781 35.9706 85.1671 35.8674C85.8562 35.7643 86.3312 35.1222 86.2281 34.4332C86.125 33.7441 85.4828 33.2691 84.7938 33.3722C84.1047 33.4753 83.6297 34.1175 83.7329 34.8065Z" fill="#F68B1F"/>
<path d="M83.6636 44.0075C83.7667 44.6965 84.4088 45.1715 85.0979 45.0684C85.7869 44.9653 86.2619 44.3231 86.1588 43.6341C86.0557 42.945 85.4135 42.4701 84.7245 42.5732C84.0355 42.6763 83.5605 43.3184 83.6636 44.0075Z" fill="#F68B1F"/>
<path d="M85.48 52.8384C85.5831 53.5274 86.2252 54.0024 86.9143 53.8993C87.6033 53.7962 88.0783 53.1541 87.9752 52.465C87.8721 51.776 87.2299 51.301 86.5409 51.4041C85.8519 51.5072 85.3769 52.1494 85.48 52.8384Z" fill="#F68B1F"/>
<path d="M81.0496 26.2714C81.1527 26.9604 81.7949 27.4354 82.4839 27.3323C83.173 27.2292 83.6479 26.587 83.5448 25.898C83.4417 25.209 82.7996 24.734 82.1105 24.8371C81.4215 24.9402 80.9465 25.5823 81.0496 26.2714Z" fill="#F68B1F"/>
<path d="M80.2725 18.1696C80.3756 18.8586 81.0177 19.3336 81.7068 19.2305C82.3958 19.1274 82.8708 18.4852 82.7677 17.7962C82.6646 17.1072 82.0224 16.6322 81.3334 16.7353C80.6444 16.8384 80.1694 17.4805 80.2725 18.1696Z" fill="#F68B1F"/>
<path d="M74.0174 41.3345C74.1254 42.0564 74.7981 42.554 75.52 42.446C76.2418 42.338 76.7394 41.6652 76.6314 40.9434C76.5234 40.2215 75.8507 39.7239 75.1288 39.8319C74.407 39.9399 73.9094 40.6127 74.0174 41.3345Z" fill="#A03535"/>
<path d="M75.3087 49.8948C75.4167 50.6167 76.0895 51.1143 76.8113 51.0063C77.5332 50.8983 78.0308 50.2255 77.9227 49.5037C77.8147 48.7818 77.142 48.2842 76.4202 48.3922C75.6983 48.5002 75.2007 49.173 75.3087 49.8948Z" fill="#A03535"/>
<path d="M50.9783 23.5003C50.9819 23.4404 50.989 23.3204 51.0525 23.264L51.6566 22.2168C51.7873 22.0441 52.0307 21.9984 52.207 22.0691C52.3798 22.1998 52.4254 22.4432 52.3548 22.6196L51.7507 23.6668C51.62 23.8395 51.3766 23.8852 51.2003 23.8145C51.0875 23.6874 51.0311 23.6238 50.9783 23.5003Z" fill="#192E36"/>
<path d="M52.3996 23.8861C52.4032 23.8261 52.4067 23.7661 52.4139 23.6462L52.9759 22.2956C53.0466 22.1193 53.2936 22.0137 53.4699 22.0843C53.6462 22.155 53.7519 22.4021 53.6812 22.5784L53.1192 23.929C53.0485 24.1053 52.8015 24.2109 52.6252 24.1402C52.5052 24.1331 52.3924 24.006 52.3996 23.8861Z" fill="#192E36"/>
<path d="M53.5667 24.4973C53.5703 24.4373 53.5775 24.3174 53.641 24.261L54.5171 22.6884C54.6478 22.5157 54.8913 22.47 55.0676 22.5407C55.2403 22.6714 55.286 22.9148 55.2153 23.0911L54.3427 24.6037C54.2121 24.7765 53.9686 24.8222 53.7923 24.7515C53.676 24.6843 53.6196 24.6208 53.5667 24.4973Z" fill="#192E36"/>
<path d="M55.5206 25.035C55.5242 24.9751 55.5313 24.8552 55.5349 24.7952L56.2097 23.5717C56.3403 23.3989 56.5274 23.2897 56.7601 23.424C56.9328 23.5546 57.042 23.7417 56.9078 23.9744L56.233 25.1979C56.1024 25.3706 55.9153 25.4798 55.6826 25.3456C55.6262 25.2821 55.5134 25.155 55.5206 25.035Z" fill="#192E36"/>
<path d="M57.0333 25.9076C57.0369 25.8476 57.044 25.7277 57.1076 25.6713L57.7787 24.5077C57.9094 24.335 58.1528 24.2893 58.3292 24.36C58.5019 24.4907 58.5476 24.7341 58.4769 24.9105L57.8057 26.074C57.675 26.2468 57.4316 26.2924 57.2553 26.2217C57.0825 26.0911 57.0261 26.0275 57.0333 25.9076Z" fill="#192E36"/>
<path d="M58.4787 26.8965C58.4859 26.7766 58.4895 26.7166 58.5566 26.6003L59.4819 25.2112C59.6126 25.0384 59.856 24.9928 60.0288 25.1234C60.2015 25.2541 60.2472 25.4975 60.1165 25.6703L59.1912 27.0594C59.0605 27.2321 58.8171 27.2778 58.6443 27.1471C58.5844 27.1436 58.5315 27.02 58.4787 26.8965Z" fill="#192E36"/>
<path d="M59.7865 28.1781C59.7936 28.0581 59.8008 27.9382 59.8679 27.8218L61.1459 26.5741C61.2766 26.4014 61.5164 26.4157 61.6892 26.5463C61.8619 26.677 61.8476 26.9169 61.7169 27.0896L60.4389 28.3373C60.3083 28.5101 60.0684 28.4958 59.8957 28.3651C59.8357 28.3615 59.8429 28.2416 59.7865 28.1781Z" fill="#192E36"/>
<path d="M61.1049 29.2798C61.112 29.1599 61.1227 28.98 61.2463 28.9272L62.5064 27.9793C62.6934 27.8701 62.9333 27.8844 63.0425 28.0714C63.1517 28.2585 63.1374 28.4983 62.9503 28.6075L61.6902 29.5554C61.5032 29.6646 61.2633 29.6503 61.1541 29.4633C61.0977 29.3997 61.1013 29.3398 61.1049 29.2798Z" fill="#192E36"/>
<path d="M61.9928 30.5363C61.9999 30.4164 62.0107 30.2365 62.1342 30.1837L63.4614 29.1194C63.6485 29.0102 63.8883 29.0245 64.0011 29.1516C64.1103 29.3387 64.096 29.5785 63.9689 29.6913L62.6417 30.7556C62.4546 30.8648 62.2148 30.8504 62.102 30.7234C61.9856 30.6562 61.9892 30.5963 61.9928 30.5363Z" fill="#192E36"/>
<path d="M63.6988 32.2027C63.6496 32.0192 63.7167 31.9029 63.9037 31.7937L64.9025 31.1913C65.0896 31.0821 65.3259 31.1564 65.4351 31.3434C65.5443 31.5305 65.47 31.7667 65.283 31.8759L64.2842 32.4784C64.0971 32.5876 63.8608 32.5133 63.7516 32.3262C63.7516 32.3262 63.6952 32.2627 63.6988 32.2027Z" fill="#192E36"/>
<path d="M64.3182 33.9247C64.3254 33.8048 64.3361 33.6249 64.4596 33.5721L65.3456 32.8426C65.5327 32.7334 65.7726 32.7477 65.8853 32.8747C65.9945 33.0618 65.9802 33.3017 65.8531 33.4144L64.9671 34.1439C64.7801 34.2531 64.5402 34.2388 64.4274 34.1117C64.3675 34.1082 64.371 34.0482 64.3182 33.9247Z" fill="#192E36"/>
<path d="M65.114 35.7174C65.0648 35.5339 65.1919 35.4212 65.319 35.3084L66.3742 34.7695C66.5612 34.6603 66.7975 34.7346 66.9067 34.9216C67.0159 35.1087 66.9416 35.345 66.7546 35.4542L65.6994 35.9931C65.5123 36.1023 65.2761 36.028 65.1668 35.8409C65.1069 35.8374 65.1105 35.7774 65.114 35.7174Z" fill="#192E36"/>
<path d="M65.61 37.4921C65.5643 37.2487 65.7549 37.0795 65.9384 37.0303L67.3919 36.8762C67.6353 36.8306 67.8045 37.0212 67.8537 37.2047C67.8994 37.4481 67.7088 37.6173 67.5253 37.6665L66.1282 37.8841C65.8284 37.8662 65.6556 37.7356 65.61 37.4921Z" fill="#192E36"/>
<path d="M65.9153 39.4362C65.8697 39.1927 66.0603 39.0236 66.2438 38.9743L67.6409 38.7567C67.8843 38.7111 68.0535 38.9017 68.1027 39.0852C68.1484 39.3286 67.9577 39.4978 67.7743 39.547L66.3772 39.7646C66.1337 39.8103 65.961 39.6796 65.9153 39.4362Z" fill="#192E36"/>
<path d="M65.9315 41.1823C65.8858 40.9389 66.0764 40.7697 66.2599 40.7205L67.6534 40.5629C67.8969 40.5172 68.066 40.7079 68.1153 40.8913C68.1609 41.1348 67.9703 41.3039 67.7868 41.3532L66.3933 41.5108C66.1499 41.5564 65.9771 41.4258 65.9315 41.1823Z" fill="#192E36"/>
<path d="M65.6058 42.6072C65.6094 42.5473 65.6129 42.4873 65.6165 42.4273C65.6908 42.1911 65.8778 42.0819 66.1141 42.1561L67.3555 42.5311C67.5918 42.6053 67.701 42.7924 67.6268 43.0287C67.5525 43.265 67.3654 43.3742 67.1292 43.2999L65.8877 42.9249C65.7714 42.8578 65.6586 42.7307 65.6058 42.6072Z" fill="#192E36"/>
<path d="M65.2237 43.9685C65.2273 43.9085 65.2309 43.8486 65.238 43.7286C65.3087 43.5523 65.5557 43.4467 65.7321 43.5174L67.199 44.1465C67.3754 44.2172 67.481 44.4642 67.4103 44.6405C67.3396 44.8169 67.0926 44.9225 66.9162 44.8518L65.4493 44.2227C65.3293 44.2155 65.2166 44.0884 65.2237 43.9685Z" fill="#192E36"/>
<path d="M64.6895 45.8624C64.6931 45.8024 64.6967 45.7425 64.7038 45.6225C64.7745 45.4462 65.0216 45.3406 65.1979 45.4113L66.3122 45.899C66.4885 45.9697 66.5941 46.2167 66.5235 46.393C66.4528 46.5694 66.2057 46.675 66.0294 46.6043L64.9151 46.1166C64.7952 46.1094 64.7388 46.0459 64.6895 45.8624Z" fill="#192E36"/>
<path d="M64.1204 47.333C64.1275 47.2131 64.1347 47.0931 64.1982 47.0368C64.3289 46.864 64.5723 46.8183 64.7451 46.949L65.6652 47.6659C65.8379 47.7965 65.8836 48.04 65.7529 48.2127C65.6223 48.3855 65.3788 48.4311 65.2061 48.3005L64.2859 47.5836C64.166 47.5764 64.1132 47.4529 64.1204 47.333Z" fill="#192E36"/>
<path d="M63.1386 48.6586C63.1457 48.5386 63.1529 48.4187 63.2164 48.3623C63.3471 48.1896 63.587 48.2039 63.7597 48.3345L64.7326 49.1749C64.9054 49.3056 64.8911 49.5454 64.7604 49.7182C64.6298 49.8909 64.3899 49.8766 64.2172 49.7459L63.2442 48.9056C63.1914 48.7821 63.135 48.7185 63.1386 48.6586Z" fill="#192E36"/>
<path d="M61.9734 50.0333C61.9805 49.9133 61.9877 49.7934 62.1148 49.6806C62.3018 49.5714 62.5417 49.5857 62.6545 49.7128L63.3276 50.5353C63.4368 50.7223 63.4224 50.9622 63.2954 51.075C63.1083 51.1842 62.8684 51.1699 62.7557 51.0428L62.0826 50.2203C62.0226 50.2167 61.9662 50.1532 61.9734 50.0333Z" fill="#192E36"/>
<path d="M60.8225 51.1683C60.8296 51.0484 60.8368 50.9284 60.9003 50.872C61.031 50.6993 61.2744 50.6536 61.4472 50.7843L62.4237 51.5647C62.5964 51.6954 62.6421 51.9388 62.5114 52.1115C62.3808 52.2843 62.1373 52.3299 61.9646 52.1993L60.9881 51.4189C60.8753 51.2918 60.8189 51.2283 60.8225 51.1683Z" fill="#192E36"/>
<path d="M59.6501 52.663C59.5972 52.5395 59.6679 52.3632 59.795 52.2504C59.9821 52.1412 60.2219 52.1555 60.3311 52.3425L60.8807 53.2178C60.9899 53.4049 60.9756 53.6448 60.7886 53.754C60.6015 53.8632 60.3617 53.8489 60.2525 53.6618L59.7029 52.7865C59.6465 52.723 59.6465 52.723 59.6501 52.663Z" fill="#192E36"/>
<path d="M58.2592 53.7837C58.2664 53.6637 58.2736 53.5438 58.3371 53.4874C58.4678 53.3147 58.7112 53.269 58.8839 53.3997L59.8605 54.18C60.0332 54.3107 60.0789 54.5542 59.9482 54.7269C59.8175 54.8996 59.5741 54.9453 59.4013 54.8146L58.4248 54.0342C58.3085 53.9671 58.2521 53.9036 58.2592 53.7837Z" fill="#192E36"/>
<path d="M56.7136 54.4738C56.7208 54.3539 56.7279 54.2339 56.855 54.1212C56.9857 53.9484 57.2855 53.9663 57.3983 54.0934L58.6496 55.3114C58.8223 55.4421 58.8045 55.7419 58.6774 55.8547C58.5467 56.0274 58.2469 56.0096 58.1341 55.8825L56.8193 54.7208C56.7629 54.6573 56.7101 54.5338 56.7136 54.4738Z" fill="#192E36"/>
<path d="M55.4114 55.1183C55.4185 54.9983 55.4257 54.8784 55.4928 54.762C55.6235 54.5893 55.8633 54.6036 56.0361 54.7343L56.8891 55.5675C57.0618 55.6981 57.0475 55.938 56.9169 56.1107C56.7862 56.2835 56.5463 56.2692 56.3736 56.1385L55.5206 55.3053C55.4606 55.3017 55.4078 55.1782 55.4114 55.1183Z" fill="#192E36"/>
</g>
<defs>
<clipPath id="clip0">
<rect width="68.1226" height="102.184" fill="white" transform="translate(106.058 6.08362) rotate(93.4132)"/>
</clipPath>
</defs>
</svg>
