<svg width="79" height="77" viewBox="0 0 79 77" fill="none" xmlns="http://www.w3.org/2000/svg">
<ellipse cx="39.3191" cy="38.5" rx="39.3191" ry="38.5" fill="#7A9533"/>
<path d="M39.5 22C30.4019 22 23 29.4019 23 38.5V45.3359C23 47.0255 24.48 48.4 26.3 48.4H27.95C28.3876 48.4 28.8073 48.2262 29.1167 47.9167C29.4262 47.6073 29.6 47.1876 29.6 46.75V38.264C29.6 37.8264 29.4262 37.4068 29.1167 37.0973C28.8073 36.7879 28.3876 36.614 27.95 36.614H26.4518C27.3692 30.2286 32.8637 25.3 39.5 25.3C46.1363 25.3 51.6308 30.2286 52.5482 36.614H51.05C50.6124 36.614 50.1927 36.7879 49.8833 37.0973C49.5738 37.4068 49.4 37.8264 49.4 38.264V48.4C49.4 50.2199 47.92 51.7 46.1 51.7H42.8V50.05H36.2V55H46.1C49.7399 55 52.7 52.0399 52.7 48.4C54.5199 48.4 56 47.0255 56 45.3359V38.5C56 29.4019 48.5981 22 39.5 22Z" fill="white"/>
</svg>
