<svg width="50" height="54" viewBox="0 0 50 54" fill="none" xmlns="http://www.w3.org/2000/svg">
<path d="M44.974 29.9729C43.0824 29.9729 41.4874 28.3734 41.3408 26.3298L41.2704 25.3379H48.6723L48.6018 26.3298C48.4553 28.3734 46.8621 29.9729 44.974 29.9729Z" fill="#FF393D"/>
<path d="M48.6113 13.3624H41.0729V25.338H48.6113V13.3624Z" fill="#FF393D"/>
<path d="M41.0722 13.3624H33.0562V25.338H41.0722V13.3624Z" fill="#FF393D"/>
<path d="M37.0156 29.9729C35.1266 29.9729 33.5325 28.3734 33.3852 26.3298L33.3137 25.3379H40.7211L40.6488 26.3316C40.4995 28.3734 38.9027 29.9729 37.0156 29.9729Z" fill="#FF393D"/>
<path d="M33.0564 13.3624H24.9998V25.338H33.0564V13.3624Z" fill="#FF393D"/>
<path d="M29.062 29.9729C27.1722 29.9729 25.5772 28.3725 25.4316 26.3298L25.361 25.3379H32.7621L32.6906 26.3298C32.5432 28.3734 30.95 29.9729 29.062 29.9729Z" fill="#FF393D"/>
<path d="M25.0004 13.3624H17.0233V25.338H25.0004V13.3624Z" fill="#FF393D"/>
<path d="M21.1085 29.9729C19.2178 29.9729 17.6218 28.3734 17.4753 26.3298L17.4048 25.3379H24.8086L24.738 26.3298C24.5898 28.3734 22.9965 29.9729 21.1085 29.9729Z" fill="#FF393D"/>
<path d="M17.0231 13.3624H9.00623V25.338H17.0231V13.3624Z" fill="#FF393D"/>
<path d="M13.1515 29.9729C11.2608 29.9729 9.66568 28.3725 9.52101 26.3298L9.4505 25.3379H16.8543L16.7829 26.3307C16.6346 28.3734 15.0395 29.9729 13.1515 29.9729Z" fill="#FF393D"/>
<path d="M37.9637 0.925659H12.035V9.61167H37.9637V0.925659Z" fill="#E1E1E1"/>
<path d="M9.00606 13.3624H1.38892V25.338H9.00606V13.3624Z" fill="#FF393D"/>
<path d="M5.1957 29.9729C3.26156 29.9729 1.51909 28.3191 1.3907 26.3605L1.38892 25.3379H8.89939L8.82794 26.3307C8.68054 28.3734 7.08463 29.9729 5.1957 29.9729Z" fill="#FF393D"/>
<path d="M29.63 49.9136V34.0915H20.3707V49.9136H2.77814V29.3109L4.0133 29.7494C4.43829 29.8995 4.82531 29.9727 5.19604 29.9727C6.49267 29.9727 7.70343 29.2087 8.35631 27.9799L9.17462 26.44L9.99201 27.9807C10.6449 29.2087 11.8547 29.9727 13.1523 29.9727C14.448 29.9727 15.6579 29.2087 16.3107 27.9807L17.1291 26.4418L17.9474 27.9807C18.6002 29.2087 19.8119 29.9727 21.1086 29.9727C22.4034 29.9727 23.6142 29.2087 24.2661 27.9807L25.0853 26.4391L25.9028 27.9807C26.5538 29.2087 27.7655 29.9727 29.0621 29.9727C30.3579 29.9727 31.5686 29.2087 32.2205 27.979L33.038 26.4364L33.8564 27.9781C34.5092 29.2087 35.7199 29.9727 37.0166 29.9727C38.3123 29.9727 39.524 29.2087 40.1768 27.9799L40.9952 26.44L41.8126 27.9807C42.4646 29.2087 43.6762 29.9727 44.9746 29.9727C45.2911 29.9727 45.6202 29.914 46.0082 29.7856L47.2226 29.3878V49.9136H29.63Z" fill="#E1E1E1"/>
<path d="M29.6296 34.0919H20.3704V49.914H29.6296V34.0919Z" fill="white"/>
<path d="M49.074 49.9138H0.925964V52.7866H49.074V49.9138Z" fill="#7A9533"/>
<path d="M43.9817 34.2554H33.7966V45.3828H43.9817V34.2554Z" fill="#C9F7FA"/>
<path d="M16.2035 34.2039H6.01837V45.4343H16.2035V34.2039Z" fill="#C9F7FA"/>
<path d="M3.70361 49.5414H1.85175V29.0237H3.70361V49.5414Z" fill="#11565B"/>
<path d="M48.1486 49.5414H46.2968V29.0237H48.1486V49.5414Z" fill="#11565B"/>
<path d="M20.3704 50.67V34.0919H29.6296V50.67" fill="#BDC3C7"/>
<path d="M30.5555 50.67H28.7037V35.0178H21.2962V50.67H19.4444V33.166H30.5555V50.67Z" fill="#11565B"/>
<path d="M27.7739 42.87H25.9221V41.1085H27.7739V42.87Z" fill="#11565B"/>
<path d="M49.5373 25.3381H47.6854V14.2885H2.31508V25.3381H0.463257V12.4366H49.5373V25.3381Z" fill="#11565B"/>
<path d="M44.9743 30.8991C43.2816 30.8991 41.7833 29.8999 40.9944 28.4152C40.2046 29.8999 38.7072 30.8991 37.0163 30.8991C35.324 30.8991 33.827 29.8999 33.0381 28.4125C32.2497 29.8999 30.7531 30.8991 29.0618 30.8991C27.3691 30.8991 25.8722 29.8999 25.0836 28.4152C24.2947 29.8999 22.7982 30.8991 21.1083 30.8991C19.4155 30.8991 17.9182 29.9008 17.1287 28.4152C16.3393 29.9008 14.8425 30.8991 13.152 30.8991C11.4593 30.8991 9.96234 29.9008 9.17387 28.4152C8.38491 29.9008 6.88752 30.8991 5.19573 30.8991C2.74797 30.8991 0.625774 28.8619 0.464847 26.359L0.463013 24.4122H49.5371L49.5298 26.303C49.3643 28.9052 47.3642 30.8991 44.9743 30.8991ZM42.2648 26.264C42.377 27.8265 43.5628 29.0472 44.9743 29.0472C46.3831 29.0472 47.5668 27.8265 47.678 26.264H42.2648ZM34.3095 26.264C34.422 27.8274 35.607 29.0472 37.0163 29.0472C38.4255 29.0472 39.6114 27.8274 39.7258 26.264H34.3095ZM26.355 26.264C26.4658 27.8265 27.6507 29.0472 29.0618 29.0472C30.4701 29.0472 31.6542 27.8265 31.7668 26.264H26.355ZM18.3987 26.264C18.5109 27.8265 19.6968 29.0472 21.1083 29.0472C22.5161 29.0472 23.7002 27.8265 23.8141 26.264H18.3987ZM10.4452 26.264C10.556 27.8265 11.741 29.0472 13.152 29.0472C14.5612 29.0472 15.7458 27.8265 15.8597 26.264H10.4452ZM2.31484 26.264V26.2993C2.41072 27.7614 3.73089 29.0472 5.19573 29.0472C6.60632 29.0472 7.79175 27.8274 7.90432 26.264H2.31484Z" fill="#11565B"/>
<path d="M9.93219 26.2594H8.08032V13.3624H9.93219V26.2594Z" fill="#11565B"/>
<path d="M17.9492 26.2594H16.0974V13.3624H17.9492V26.2594Z" fill="#11565B"/>
<path d="M33.9822 26.2594H32.1303V13.3624H33.9822V26.2594Z" fill="#11565B"/>
<path d="M41.9988 26.2594H40.147V13.3624H41.9988V26.2594Z" fill="#11565B"/>
<path d="M25.9257 26.2594H24.0739V13.3624H25.9257V26.2594Z" fill="#11565B"/>
<path d="M50 53.7124H0V48.9879H50V53.7124ZM1.85187 51.8606H48.1481V50.8397H1.85187V51.8606Z" fill="#7A9533"/>
<path d="M44.9077 46.3088H32.8706V33.3296H44.9077V46.3088ZM34.7225 44.4569H43.0558V35.1814H34.7225V44.4569Z" fill="#11565B"/>
<path d="M17.1298 46.3603H5.09277V33.278H17.1298V46.3603ZM6.9446 44.5084H15.278V35.1298H6.9446V44.5084Z" fill="#11565B"/>
<path d="M17.9488 13.8155H16.097V10.1896H17.9488V13.8155Z" fill="#11565B"/>
<path d="M33.9822 14.9937H32.1303V10.1896H33.9822V14.9937Z" fill="#11565B"/>
<path d="M37.964 10.5378H12.0353C11.524 10.5378 11.1094 10.1227 11.1094 9.6119V0.925889C11.1094 0.415044 11.524 0 12.0353 0H37.964C38.4753 0 38.8899 0.415044 38.8899 0.925889V9.6119C38.8899 10.1227 38.4753 10.5378 37.964 10.5378ZM12.9613 8.68596H37.0381V1.85182H12.9613V8.68596Z" fill="#11565B"/>
</svg>
