<svg width="20" height="20" viewBox="0 0 20 20" fill="none" xmlns="http://www.w3.org/2000/svg">
<path d="M0.872326 3.1671L3.53449 0.507437C3.85945 0.182477 4.2944 0 4.75434 0C5.21428 0 5.64923 0.179978 5.97419 0.507437L8.84133 3.36958C9.16629 3.69454 9.34877 4.13198 9.34877 4.59193C9.34877 5.05437 9.16879 5.48681 8.84133 5.81427L6.60161 8.05649C7.11184 9.24531 7.84494 10.3255 8.76134 11.2386C9.67873 12.161 10.7511 12.8884 11.9409 13.4033L14.1807 11.1611C14.5056 10.8361 14.9406 10.6537 15.4005 10.6537C15.6274 10.6528 15.8521 10.6973 16.0616 10.7844C16.2711 10.8715 16.461 10.9996 16.6204 11.1611L19.49 14.0232C19.815 14.3482 19.9974 14.7857 19.9974 15.2456C19.9974 15.708 19.8175 16.1405 19.49 16.4679L16.8303 19.1276C16.2754 19.6825 15.5105 20 14.7256 20C14.5631 20 14.4056 19.9875 14.2457 19.96C10.9361 19.4151 7.65148 17.6528 4.99931 15.0031C2.34964 12.3485 0.589859 9.06387 0.0399284 5.75178C-0.117552 4.8119 0.197409 3.84452 0.872326 3.1671ZM1.81221 5.45432C2.29965 8.40145 3.88445 11.3411 6.27165 13.7283C8.65885 16.1155 11.596 17.7003 14.5431 18.1877C14.9131 18.2502 15.293 18.1252 15.563 17.8578L18.1752 15.2456L15.4055 12.4734L12.4109 15.4731L12.3884 15.4956L11.8485 15.2956C10.2113 14.6937 8.72468 13.743 7.49152 12.5094C6.25836 11.2758 5.30818 9.78881 4.70685 8.15148L4.50687 7.61155L7.52649 4.59443L4.75684 1.82227L2.14466 4.43445C1.8747 4.70441 1.74972 5.08436 1.81221 5.45432Z" fill="#4F1026"/>
</svg>
