<svg width="8" height="8" viewBox="0 0 8 8" fill="none" xmlns="http://www.w3.org/2000/svg">
<path d="M7.39107 5.77568L5.86462 5.10553C5.79941 5.07706 5.72694 5.07106 5.65811 5.08844C5.58929 5.10581 5.52784 5.14562 5.48301 5.20186L4.807 6.04793C3.74608 5.53551 2.89229 4.66089 2.39207 3.5741L3.21799 2.88161C3.27301 2.83577 3.31195 2.77282 3.32892 2.70228C3.34589 2.63174 3.33996 2.55746 3.31204 2.49069L2.65784 0.927003C2.62719 0.855018 2.57298 0.796246 2.50456 0.760819C2.43614 0.725392 2.3578 0.715532 2.28304 0.732938L0.865622 1.06801C0.793547 1.08506 0.729242 1.12663 0.683202 1.18594C0.637162 1.24525 0.612105 1.3188 0.612122 1.39457C0.612122 4.97569 3.4456 7.87269 6.936 7.87269C7.00999 7.87274 7.08182 7.84708 7.13974 7.79992C7.19767 7.75275 7.23827 7.68686 7.25492 7.61301L7.58201 6.16101C7.5989 6.08406 7.58907 6.00349 7.55422 5.93316C7.51937 5.86283 7.46168 5.80714 7.39107 5.77568Z" fill="white"/>
</svg>
