<svg width="202" height="113" viewBox="0 0 202 113" fill="none" xmlns="http://www.w3.org/2000/svg">
<path d="M198.694 17.8438C198.263 17.8438 197.832 18.3057 197.832 18.0747C197.832 18.0747 197.832 17.8438 197.832 17.6128C198.263 17.1508 199.34 16.6888 199.987 16.2268C199.34 15.3029 197.832 16.4578 196.538 16.6888C197.401 15.5339 198.478 15.7649 199.556 15.3029C198.263 14.6099 196.107 13.917 195.245 15.5339C195.03 15.9959 194.599 16.2268 193.737 16.4578C192.659 16.9198 192.659 16.6888 191.797 17.6128C190.935 18.5367 191.15 18.0747 190.288 18.9987C189.642 19.6917 189.211 19.9226 188.564 20.1536L187.055 20.8466C184.253 22.2325 182.96 20.6156 179.727 18.7677C176.494 16.9198 176.063 15.0719 176.063 15.0719C175.417 14.6099 174.339 13.686 173.477 13.224C172.184 12.3001 171.322 10.6832 169.813 9.75921C168.52 9.06625 167.227 8.1423 165.934 7.44934C164.856 6.75637 163.994 5.83243 162.916 5.13946C161.839 4.4465 160.545 4.21552 159.252 4.21552C156.45 3.75354 153.433 3.06058 150.631 2.36762L140.932 0.75071C138.777 0.288736 136.622 0.519721 134.466 0.288734C128.647 -0.17324 123.043 0.0577463 117.224 0.0577463C116.578 0.0577463 115.931 0.0577463 115.5 0.0577463L107.31 0.519722C103.646 0.750709 100.198 1.90564 96.5335 2.36762C92.8696 2.82959 88.9901 1.67466 85.3261 2.13663C82.0932 2.36762 78.8602 2.82959 75.8429 3.52255C72.8255 4.21551 70.0236 5.13946 67.0062 6.2944C65.0665 7.21835 63.1267 7.44934 61.4025 8.37328C59.8938 9.06625 58.6006 10.2212 57.3075 10.9141C55.1522 11.8381 52.7814 12.0691 50.6261 13.224C48.6863 14.148 46.9621 15.5339 45.4534 16.6888C43.0826 18.3057 40.4963 19.4607 38.341 21.3086C36.8323 22.4635 35.9702 24.0804 34.0304 24.7734C32.5217 25.2353 30.582 25.2353 29.0733 25.0044C27.5646 24.7734 26.2714 23.6184 24.9783 22.9255C23.0385 21.7705 20.8832 21.0776 18.728 20.8466C16.3571 20.6156 13.9863 20.6156 11.6155 19.6917C9.0292 18.7677 7.30497 16.2268 5.79628 13.917C5.14969 12.993 4.28758 12.0691 3.20994 11.6071C1.70125 11.1451 1.05466 12.0691 0.408079 13.224C-0.0229772 13.917 -0.238505 14.148 0.408079 14.6099C1.27019 15.3029 2.77889 15.5339 2.77889 16.9198C2.77889 18.5367 2.99441 20.6156 3.20994 22.2325C3.42547 22.9255 3.20994 23.8494 3.42547 24.7734C3.641 25.4663 4.07205 26.1593 4.50311 26.8523C4.93416 27.7762 5.36522 28.7001 6.01181 29.3931C7.08945 30.548 7.73603 31.241 7.30497 33.0889C7.30497 33.3199 8.81367 33.7819 8.81367 33.7819C8.81367 34.2438 7.95156 33.7819 7.73603 34.0129C8.16708 34.4748 9.0292 34.4748 9.46025 34.7058C9.0292 34.9368 8.81367 34.9368 8.38261 35.6298C8.81367 35.1678 10.1068 35.8608 10.5379 36.3227C9.89131 36.3227 9.46025 35.8607 8.81367 36.5537C9.24472 36.3227 13.3398 37.0157 12.0466 38.1706C11.6155 38.6326 10.7534 37.4777 10.1068 38.4016C11.1845 38.1706 11.8311 39.0946 12.9087 39.3256C12.4776 39.7875 11.6155 39.5565 10.9689 40.0185C11.6155 40.7115 12.4776 40.0185 13.1242 40.7115C12.9087 41.1735 12.6932 41.1735 11.8311 41.1735C13.1242 42.0974 14.8484 41.6354 16.1416 41.8664C17.0037 42.0974 18.0814 41.4044 18.9435 41.4044C19.3745 41.4044 20.0211 41.1735 20.4522 41.1735C20.8832 41.1735 20.6677 43.4833 20.4522 43.7143C20.0211 44.4073 18.9435 43.7143 18.2969 43.7143C18.9435 44.4073 19.3745 44.8693 20.2367 44.8693C19.5901 45.1002 18.9435 45.7932 18.2969 45.5622C18.9435 46.2552 19.5901 45.7932 20.2367 46.0242C21.9609 46.4862 21.0988 49.027 20.8832 50.182C20.6677 51.3369 20.6677 52.7228 20.2367 53.8777C19.8056 55.0327 19.159 55.9566 18.728 57.3425C18.0814 59.6524 15.7106 60.1144 14.4174 61.9623C13.5553 63.1172 13.1242 64.7341 12.2621 65.8891C11.4 67.275 9.89131 67.506 8.59814 67.737C6.44286 68.1989 6.22733 69.5849 6.01181 71.6637C6.01181 72.5877 6.22733 73.2807 6.44286 73.9736C6.65839 74.6666 6.44286 75.5905 6.87392 76.2835C8.16708 79.2863 11.6155 81.8272 14.8485 81.3652C16.5727 81.1342 18.0814 81.3652 19.5901 81.3652C20.4522 81.3652 23.0385 80.2103 22.823 82.2892C22.823 82.9821 22.3919 82.9821 22.823 83.4441C23.0385 83.6751 23.9006 83.6751 24.3317 83.9061C25.4093 84.1371 26.7025 84.368 27.7801 83.6751C28.6422 83.2131 29.0733 82.2892 30.1509 82.2892C31.6596 82.0582 32.0907 82.2892 33.8149 82.0582C35.5391 81.5962 35.9702 80.9032 37.6944 80.6723C39.6342 80.2103 38.9876 80.2103 41.3584 79.9793C45.2379 79.5173 49.1174 76.9765 52.9969 75.8215C54.9366 74.6666 56.4453 73.0497 58.3851 71.8947C58.8162 71.6638 59.0317 71.6638 59.4627 71.4328C59.6783 72.3567 59.6783 73.2807 59.8938 74.2046C60.1093 76.0525 60.9714 78.1314 60.7559 79.9793C60.5404 81.5962 59.6783 82.9821 59.2472 84.599C58.8161 86.216 58.3851 87.6019 57.3075 88.9878C56.6609 89.9117 55.5832 90.8357 54.9366 91.7596C54.0745 92.6836 53.6435 93.8385 52.7814 94.7625C52.1348 95.4554 51.2727 95.6864 50.4106 96.1484C49.764 96.3794 49.9795 96.8414 50.195 97.5343C50.6261 98.4583 51.7037 97.9963 52.1348 98.6893C52.3503 99.1512 50.8416 100.537 52.1348 101.461C52.9969 102.154 54.0745 102.154 54.9366 102.385C57.0919 103.078 58.8161 101.461 59.8938 99.8442C60.5404 98.9202 61.187 97.9963 61.8335 97.0723C62.2646 96.1484 62.6957 94.9935 63.3422 94.0695C63.9888 93.1456 64.6354 92.2216 65.282 91.2977C66.5751 89.4498 67.6528 87.1399 68.946 85.292C70.0236 83.6751 70.8857 81.5962 72.1789 79.9793C73.2565 78.5934 74.1186 76.9765 73.9031 75.1286C73.9031 74.6666 73.9031 74.4356 73.6876 73.9736C73.472 73.2807 73.2565 72.5877 73.041 71.8947C74.1186 72.3567 74.9807 73.2807 75.4118 74.4356C76.0584 76.5145 74.7652 78.5934 74.3342 80.6723C73.9031 84.599 73.2565 88.9878 73.2565 92.9146C73.2565 95.2244 73.2565 97.0723 72.3944 99.1512C71.3168 101.23 70.2391 103.54 68.2994 104.695C67.2217 105.388 66.1441 105.619 65.0665 106.081C64.6354 106.312 63.9888 106.312 63.3422 106.543C63.1267 106.543 62.9112 107.005 62.9112 107.236C62.9112 107.467 63.5578 107.698 63.5578 107.698C63.9888 107.929 63.9888 108.16 63.5578 108.622C63.1267 109.546 62.2646 110.701 62.2646 111.625C62.2646 111.856 62.2646 112.087 62.2646 112.317L64.4199 112.087C65.282 111.856 66.3596 111.856 67.2217 111.856C67.8683 111.856 68.7304 112.086 69.377 111.856C70.0236 111.394 70.6702 111.163 71.3168 110.932C71.7478 110.701 71.9634 110.47 72.3944 110.239C72.8255 110.008 73.2565 110.47 73.6876 110.701C73.9031 110.701 75.1963 109.084 75.1963 109.084C75.4118 108.622 75.6273 108.16 75.8429 107.698C76.0584 107.005 76.4894 106.543 76.9205 106.081C78.2137 104.695 79.5068 103.078 80.5845 101.692C81.4466 100.537 83.1708 98.6892 83.3863 97.0723C83.8174 94.3005 84.464 91.2977 86.1882 89.2188C87.2658 87.8329 88.7745 86.9089 89.4211 85.292C90.2832 83.4441 90.9298 81.3652 91.7919 79.5173C92.8696 76.9765 94.1627 74.4356 95.887 72.1257C96.9646 70.7398 98.2578 69.5849 99.1199 68.1989C100.629 66.1201 101.922 65.1961 104.508 64.5032C106.663 63.8102 108.603 63.3482 110.758 63.5792C112.914 64.0412 115.069 64.2722 117.44 64.0412C119.164 64.0412 120.888 63.3482 122.612 63.5792C124.768 64.0412 127.57 63.3482 129.94 63.1172C131.665 62.8862 133.82 62.6553 134.035 64.9651C134.251 66.582 133.82 68.199 133.604 69.5849C133.389 71.4328 133.173 72.8187 132.527 74.4356C131.665 76.7455 131.018 78.8244 130.587 81.3652C130.156 83.9061 129.509 86.6779 129.078 89.2188C128.863 90.3737 128.216 91.2977 127.57 92.2216C126.923 93.1456 125.845 93.6075 125.199 94.3005C124.337 95.2244 123.475 96.1484 123.043 97.3033C122.828 97.7653 122.612 98.4583 122.397 99.1512C122.397 99.8442 122.828 99.6132 123.043 99.6132C123.69 99.8442 123.259 100.537 123.043 100.768C122.828 101.692 123.475 101.461 124.121 101.461C125.414 101.692 126.707 101.692 128.216 101.23C129.078 100.999 129.94 100.768 130.587 100.306C131.018 100.075 131.234 99.8442 131.665 99.3822C131.88 99.1512 132.311 98.4583 132.527 99.1512C132.742 99.8442 133.604 98.9202 134.035 98.6893C134.898 97.7653 135.76 96.3794 135.975 94.9935C136.191 93.6075 136.406 92.2216 136.837 91.0667C137.268 89.9117 137.699 88.9878 138.13 87.8329C138.561 86.6779 138.777 85.523 139.424 84.599C139.855 83.6751 140.501 82.7511 141.148 82.0582C141.363 81.8272 141.579 81.5962 141.794 81.3652C142.225 80.9032 143.519 78.3624 144.381 77.4384C145.243 76.5145 145.889 74.4356 146.32 73.2807C146.536 72.3567 147.829 70.0468 148.476 69.3539C149.122 68.8919 149.984 67.044 150.631 65.8891C151.062 64.5032 151.278 62.8862 152.14 61.7313C153.648 59.4214 157.959 60.1144 159.683 61.7313C160.976 62.8862 162.054 64.9651 163.132 66.3511C163.994 67.275 165.071 68.1989 165.718 69.3539C166.58 70.5088 166.365 71.8947 166.796 73.2807C167.227 76.2835 169.382 78.3624 170.675 81.1342C171.753 83.4441 171.322 85.754 171.968 88.0639C173.261 92.2216 171.753 96.3794 173.477 100.537C173.693 101.23 174.124 101.923 174.339 102.385C174.555 103.078 176.279 106.543 177.357 105.157C177.788 104.695 177.788 103.771 178.65 103.54C179.296 103.54 179.727 103.771 180.374 103.771C181.883 104.002 182.314 101.461 182.529 100.306C183.176 96.8414 182.96 93.1456 181.236 90.1427C180.374 88.5258 179.727 86.6779 179.727 84.599C179.727 83.6751 179.943 82.9821 179.943 82.0582C180.158 79.9793 180.158 77.9004 180.374 75.8215C180.589 74.6666 181.02 73.5117 181.02 72.1257C181.236 70.7398 181.02 69.5849 180.805 68.1989C180.374 66.1201 182.098 65.6581 182.745 64.0412C183.391 62.4243 183.607 60.5764 183.822 58.9595C184.253 56.6496 184.684 54.5707 185.116 52.2608C185.547 48.3341 186.409 44.1763 186.409 40.0185C186.409 38.1706 186.193 36.3227 185.762 34.4748C185.547 33.5509 185.547 32.6269 185.331 31.472C185.116 30.548 184.684 29.6241 184.253 28.7002C183.822 27.7762 182.098 25.2353 182.529 24.3114C183.176 24.7734 185.547 25.6973 185.978 25.4663C187.055 25.4663 188.133 25.2353 188.995 24.5424C190.073 23.8494 190.719 22.6945 191.581 21.7705C192.875 20.6156 194.168 18.7677 195.892 18.7677C196.538 18.7677 197.401 19.2297 198.047 18.7677C199.556 18.0747 200.202 17.8438 201.496 16.9198C199.771 17.8438 199.556 17.6128 198.694 17.8438Z" fill="#4F1026" fill-opacity="0.81"/>
</svg>
