<svg width="108" height="96" viewBox="0 0 108 96" fill="none" xmlns="http://www.w3.org/2000/svg">
<path d="M82.1401 92.4258C82.1401 92.4258 86.4759 95.3135 88.1277 93.0922C91.6376 92.6479 95.1476 91.7593 95.1476 91.7593C95.1476 91.7593 98.2446 91.5372 96.3864 88.6495C94.5282 85.7617 87.5083 85.0953 87.5083 85.0953C87.5083 85.0953 82.7595 83.7625 84.8242 82.2075C86.6824 80.6526 92.67 68.8794 93.2894 67.9908C98.2446 68.8794 101.342 65.1031 101.342 65.1031L103.2 62.4374C103.2 62.4374 104.645 59.3275 102.374 57.5504C100.929 55.7734 99.2769 43.5559 97.6252 42.2231C97.6252 40.8903 94.9411 38.4468 91.0182 36.2254C87.3018 35.559 101.342 15.7889 102.374 14.9004C103.406 14.234 108.568 6.01495 107.949 4.46C107.329 2.90505 103.819 8.01418 103.819 8.01418C103.819 8.01418 94.3217 13.7897 89.16 19.3431C83.9983 24.8965 82.966 28.8949 82.966 28.8949C82.966 28.8949 81.9337 29.3392 81.7272 28.6728C81.5207 28.0064 78.4237 14.234 69.9585 8.68059C65.2098 4.01574 63.971 1.57224 63.971 1.57224C63.971 1.57224 61.2869 -1.53766 61.0804 1.57224C60.8739 4.90428 61.6998 14.234 63.558 17.1217C64.3839 20.8981 70.9909 32.8934 70.9909 32.8934C70.9909 32.8934 71.8167 40.2239 71.1973 40.446C70.5779 40.446 57.5705 33.1155 48.8988 32.0048C47.2471 31.7827 45.3889 31.5606 43.5307 31.3384C42.9112 31.3384 42.2918 31.1163 41.6724 31.1163C35.8913 30.8942 29.9038 31.1163 24.7421 33.7819C24.3291 34.0041 23.7097 34.0041 23.2968 34.2262C22.4709 34.6705 21.4386 34.8926 20.6127 35.3369C19.9933 35.559 19.3739 35.7811 18.961 36.0033C17.9286 36.4476 17.3092 36.8918 17.3092 37.3361C16.8963 37.5582 14.0058 40.0017 11.7346 42.8895C11.3217 43.5559 10.7023 44.0002 10.2893 44.6666C8.84406 46.4437 7.81173 48.8872 7.60526 51.3307C7.60526 53.7741 7.19232 55.9955 6.77939 58.2169C6.57292 58.8833 6.57292 59.5497 6.57292 60.2161C6.36645 61.3268 6.36646 62.2153 6.36646 62.2153L6.15998 63.1038C6.15998 63.1038 3.68237 62.8817 2.8565 63.5481C2.03063 64.2145 -1.06639 65.1031 0.378889 69.1015C1.82416 73.3221 4.50824 75.9877 4.92118 76.432C5.33412 76.8763 10.7023 81.9854 12.9734 82.2075C15.2446 82.4296 18.3416 84.8731 18.1351 85.5396C18.1351 87.3166 17.7222 89.0937 21.8515 90.2044C25.9809 91.3151 33.6202 92.2036 36.5107 93.9807C39.4013 95.7578 41.6724 94.8693 41.6724 94.8693C41.6724 94.8693 44.7695 96.4242 47.2471 95.5357C49.9311 94.425 53.0282 95.7578 53.6476 95.3135C54.267 94.6471 56.3316 93.3143 53.854 90.6487C51.3764 87.983 50.1376 85.5396 48.6923 85.5396C47.2471 85.5396 39.1948 83.9846 39.1948 83.9846L32.7943 82.8739C32.7943 82.8739 34.4461 80.2083 43.5307 81.5411C51.9958 81.9854 55.9187 82.6518 55.9187 82.6518C55.9187 82.6518 58.6028 84.8731 70.7844 86.8724C73.262 87.0945 81.9336 92.2036 81.9336 92.2036H82.1401V92.4258Z" fill="#4F1026" fill-opacity="0.81"/>
</svg>
