<svg width="79" height="77" viewBox="0 0 79 77" fill="none" xmlns="http://www.w3.org/2000/svg">
<ellipse cx="39.3191" cy="38.5" rx="39.3191" ry="38.5" fill="#7A9533"/>
<path d="M54.956 38.352C55.628 37.464 56 36.376 56 35.244C56 33.448 54.996 31.748 53.38 30.8C52.964 30.556 52.4903 30.4276 52.008 30.428H42.416L42.656 25.512C42.712 24.324 42.292 23.196 41.476 22.336C41.0755 21.9121 40.5924 21.5749 40.0565 21.3451C39.5205 21.1153 38.9431 20.9979 38.36 21C36.28 21 34.44 22.4 33.888 24.404L30.452 36.844H25.28C24.572 36.844 24 37.416 24 38.124V52.684C24 53.392 24.572 53.964 25.28 53.964H49.332C49.7 53.964 50.06 53.892 50.392 53.748C52.296 52.936 53.524 51.076 53.524 49.012C53.524 48.508 53.452 48.012 53.308 47.532C53.98 46.644 54.352 45.556 54.352 44.424C54.352 43.92 54.28 43.424 54.136 42.944C54.808 42.056 55.18 40.968 55.18 39.836C55.172 39.332 55.1 38.832 54.956 38.352ZM26.88 51.084V39.724H30.12V51.084H26.88ZM52.336 36.964L51.46 37.724L52.016 38.74C52.1992 39.0747 52.2942 39.4505 52.292 39.832C52.292 40.492 52.004 41.12 51.508 41.552L50.632 42.312L51.188 43.328C51.3712 43.6627 51.4662 44.0385 51.464 44.42C51.464 45.08 51.176 45.708 50.68 46.14L49.804 46.9L50.36 47.916C50.5432 48.2507 50.6382 48.6265 50.636 49.008C50.636 49.904 50.108 50.712 49.292 51.08H32.68V39.596L36.66 25.176C36.7626 24.8064 36.9829 24.4804 37.2875 24.2472C37.5921 24.0141 37.9644 23.8866 38.348 23.884C38.652 23.884 38.952 23.972 39.192 24.152C39.588 24.448 39.8 24.896 39.776 25.372L39.392 33.308H51.968C52.68 33.744 53.12 34.48 53.12 35.244C53.12 35.904 52.832 36.528 52.336 36.964Z" fill="white"/>
</svg>
