<svg width="156" height="159" viewBox="0 0 156 159" fill="none" xmlns="http://www.w3.org/2000/svg">
<path d="M20.9367 34.1107C20.9367 34.1107 28.3327 32.3431 26.1413 37.0567C26.1413 37.0567 24.2238 39.7082 23.676 40.592C23.1281 41.4758 22.0324 42.065 21.2107 44.4218C20.115 45.8948 18.4714 49.1354 18.4714 49.1354C18.4714 49.1354 14.6364 52.6707 15.1843 55.6167C14.6364 56.7951 13.5407 57.9735 12.7189 59.1519C12.1711 59.7411 11.6232 60.3303 11.0754 60.6249C6.14473 65.044 3.67938 71.8198 1.7619 78.3011C1.48798 79.1849 1.21405 80.0687 0.940125 80.9525C-0.703445 87.1391 -0.429504 93.915 3.67938 98.9232C3.95331 99.5124 4.50116 100.102 5.04901 100.691C14.9104 113.359 22.5803 118.662 23.1282 120.724C23.676 122.786 33.5373 128.383 34.0852 129.856C34.633 131.329 39.2898 134.57 39.2898 134.57C39.2898 134.57 34.907 140.167 38.1941 143.703C38.1941 143.703 37.6462 143.703 39.2898 141.641C39.2898 139.578 40.6594 137.811 41.7551 137.811C42.8508 137.811 42.303 141.641 44.2205 138.105C55.1775 144.881 65.3128 145.765 65.3128 145.765C65.3128 145.765 64.2171 149.889 63.1214 149.889C62.0257 149.889 52.9861 154.308 52.4382 154.898C51.8904 155.487 49.699 158.433 49.699 158.433C49.699 158.433 51.0686 159.022 52.7122 158.727C54.3557 158.433 55.4514 158.433 56.5471 158.138C57.6428 157.549 62.5735 155.192 65.0388 155.192C67.5042 155.192 75.9959 151.657 78.4612 152.246C80.9266 152.835 75.9959 149.595 75.448 149.595C74.9002 149.595 68.5999 151.068 68.5999 147.238C68.5999 143.703 70.5174 140.462 70.5174 140.462C70.5174 140.462 101.471 155.487 126.398 143.114C125.85 142.524 124.481 141.641 124.481 141.641C124.481 141.641 130.507 138.694 122.015 136.927C126.946 133.392 120.646 132.802 120.646 132.802H120.098C120.098 132.802 124.481 130.151 117.907 128.678C120.098 125.143 113.524 123.375 113.524 123.375C113.524 123.375 113.524 121.313 111.332 120.429C112.976 116.894 108.045 116.599 108.045 116.599C108.045 116.599 108.319 113.064 107.223 112.475C106.128 111.886 108.593 109.823 108.867 107.467C109.689 105.699 112.976 107.761 113.25 103.342C120.372 110.118 125.303 102.458 125.303 102.458C125.303 102.458 132.699 107.467 136.534 98.334C145.573 98.334 145.573 89.7905 145.573 89.7905C145.573 89.7905 155.434 85.3715 149.956 75.9442C159.817 70.3468 154.065 60.9195 154.065 60.9195C154.065 60.9195 160.365 50.903 150.23 44.4218C158.448 32.9323 145.847 27.6295 145.847 27.6295C145.847 27.6295 145.847 13.7832 133.246 14.9616C131.055 0.820674 118.728 7.30192 118.728 7.30192C118.728 7.30192 113.524 -4.18756 103.115 4.6505C95.7186 -4.48216 87.5008 5.82891 87.5008 5.82891C87.5008 5.82891 76.5437 1.99909 75.722 12.6048C68.326 13.194 66.9563 25.8619 66.9563 25.8619C66.9563 25.8619 62.5735 31.4593 63.1214 37.0567C61.2039 41.4758 61.4778 44.1272 61.4778 44.1272C61.4778 44.1272 56.5471 45.3056 55.1775 46.7786C53.8079 48.2516 47.7815 46.1894 47.5076 50.0192C46.4118 49.43 43.9465 50.6084 43.9465 50.6084L36.5505 56.5005C36.5505 56.5005 36.0027 51.7868 39.0158 47.957C42.029 43.8326 49.699 33.2269 46.4119 26.7457C43.1248 19.9698 40.9333 13.194 27.511 17.613C17.1018 21.7374 17.1018 28.8079 17.1018 28.8079C17.1018 28.8079 13.8147 33.5215 15.7321 33.2269C17.1018 34.9945 16.5539 38.8244 16.5539 38.8244L18.1975 43.8326C18.1975 43.8326 19.2932 45.011 19.2932 42.6542C19.2932 40.2974 19.841 37.9406 20.3889 37.646C20.9367 37.646 20.9367 34.1107 20.9367 34.1107Z" fill="#4F1026" fill-opacity="0.81"/>
</svg>
