<svg width="59" height="44" viewBox="0 0 59 44" fill="none" xmlns="http://www.w3.org/2000/svg">
<path d="M44.931 9.67068C44.931 9.67068 43.9901 11.0597 43.3628 13.5688C42.7355 16.078 44.3485 17.6462 45.7823 17.3774C47.1713 17.1085 48.157 16.6605 48.2915 14.3753C48.4707 12.0454 44.931 9.67068 44.931 9.67068Z" fill="#7A9533"/>
<path d="M39.1959 7.56482C39.1959 7.56482 37.2244 9.35707 37.6724 12.7175C38.1205 16.1228 40.0024 16.4364 40.9881 16.2124C41.9738 15.9884 42.8252 13.8377 42.3771 11.7766C41.8842 9.71552 39.1959 7.56482 39.1959 7.56482Z" fill="#7A9533"/>
<path d="M51.607 12.7624C51.607 12.7624 54.5642 11.5078 57.1182 13.5689C59.6273 15.63 59.1792 17.3774 58.3279 18.3631C57.4318 19.3937 56.1772 20.245 54.0265 18.0943C51.831 15.9436 51.607 12.7624 51.607 12.7624Z" fill="#7A9533"/>
<path d="M52.2792 13.1656C52.2792 13.1656 53.0409 15.4507 54.161 16.1228C55.2812 16.7949 55.7293 16.0332 55.9533 15.8092C56.1773 15.5852 56.3117 14.3306 54.6987 13.7033C53.1753 13.1208 52.2792 13.1656 52.2792 13.1656Z" fill="#192E36"/>
<path d="M46.2304 9.0882C46.2304 9.0882 54.2059 9.89471 53.5786 6.13099C52.9514 2.36727 50.5318 3.48742 48.2915 5.32448C46.0512 7.16153 45.2447 8.90898 45.2447 8.90898L46.2304 9.0882Z" fill="#7A9533"/>
<path d="M46.1857 8.46092C46.1857 8.46092 50.2631 9.26743 50.1287 7.51998C49.9943 5.77254 48.202 6.39983 47.2611 7.16154C46.3201 7.96805 46.1857 8.46092 46.1857 8.46092Z" fill="#192E36"/>
<path d="M45.1551 10.2084C45.1551 10.2084 43.6317 13.076 45.0207 13.7481C46.4096 14.4202 46.5889 13.1208 46.096 12.0006C45.6031 10.9253 45.1551 10.2084 45.1551 10.2084Z" fill="#192E36"/>
<path d="M39.375 6.71349C39.375 6.71349 41.6153 6.35504 43.9452 5.36931C46.2751 4.38357 47.3953 2.99458 47.1264 1.51597C46.8576 0.0373667 45.2446 -0.276277 43.4971 0.216591C41.7945 0.709459 40.4055 1.74 39.7334 3.62186C39.1061 5.54853 39.375 6.71349 39.375 6.71349Z" fill="#7A9533"/>
<path d="M39.9128 6.04137C39.9128 6.04137 43.4973 5.59331 43.3629 4.20432C43.1837 2.81533 41.5706 2.81533 40.4505 4.15951C39.3303 5.59331 39.9128 6.04137 39.9128 6.04137Z" fill="#192E36"/>
<path d="M39.2406 8.01286C39.2406 8.01286 40.2712 9.58108 40.7641 10.298C41.3017 11.0149 40.8985 12.2695 39.9575 12.5383C39.0614 12.7623 38.3445 11.0149 38.5686 9.84992C38.8374 8.68496 39.2406 8.01286 39.2406 8.01286Z" fill="#192E36"/>
<path d="M27.5014 6.08618C27.5462 6.08618 27.5911 6.04137 27.6359 6.04137C27.9495 5.99657 35.701 5.14525 42.0635 7.60959C48.3363 10.0291 51.8312 12.4487 51.876 12.4487C52.0552 12.5831 52.1 12.8071 51.9656 12.9863C51.8312 13.1656 51.6072 13.2104 51.4279 13.0759C51.3831 13.0311 47.9779 10.7012 41.7498 8.32649C35.6114 5.95176 27.7703 6.80308 27.6807 6.80308C27.4566 6.84788 27.2774 6.66866 27.2774 6.48943C27.2326 6.31021 27.3222 6.13098 27.5014 6.08618Z" fill="#192E36"/>
<path d="M6.4425 26.0697C3.57491 26.0697 1.64824 29.3406 2.23072 31.4016C2.85801 33.4627 4.42622 34.6725 6.93537 34.6725C9.44452 34.6725 10.7887 32.3426 10.7887 29.7886C10.7887 27.2347 6.4425 26.0697 6.4425 26.0697Z" fill="#EF413D"/>
<path d="M16.8374 29.7887C14.9555 29.4303 11.8191 31.6258 12.0431 33.6869C12.2671 35.7479 13.7458 37.809 16.1653 37.6746C18.5848 37.5402 20.6459 36.42 20.6459 33.6869C20.6907 30.9985 16.8374 29.7887 16.8374 29.7887Z" fill="#EF413D"/>
<path d="M42.1082 28.6686C42.5562 30.5056 45.8271 32.5219 47.6193 31.4465C49.4116 30.3712 50.6661 28.2205 49.5908 26.025C48.4706 23.8743 46.5888 22.4405 44.1244 23.5607C41.6601 24.6808 42.1082 28.6686 42.1082 28.6686Z" fill="#EF413D"/>
<path d="M37.09 36.9577C38.9718 36.8681 41.5706 34.0453 40.8537 32.0738C40.1368 30.1023 38.2549 28.4445 35.925 29.1166C33.5951 29.7887 31.8477 31.3569 32.4749 34.0005C33.0574 36.644 37.09 36.9577 37.09 36.9577Z" fill="#EF413D"/>
<path d="M8.72755 24.8152C9.66848 24.7704 10.923 23.3814 10.5646 22.4404C10.2061 21.4995 9.31003 20.693 8.14506 21.0066C7.02491 21.3203 6.17359 22.082 6.44243 23.3814C6.80088 24.6808 8.72755 24.8152 8.72755 24.8152Z" fill="#A03535"/>
<path d="M6.48723 35.2999C5.77033 35.8824 5.5463 37.7194 6.35281 38.3019C7.20413 38.8844 8.4139 39.0188 9.1308 38.0779C9.8477 37.137 10.1165 36.0168 9.1308 35.1655C8.14506 34.3142 6.48723 35.2999 6.48723 35.2999Z" fill="#A03535"/>
<path d="M32.9678 38.9739C32.2509 39.5564 32.0269 41.3935 32.8334 41.9759C33.6847 42.5584 34.8945 42.6928 35.6114 41.7519C36.3283 40.811 36.5971 39.6908 35.6114 38.8395C34.6705 37.9434 32.9678 38.9739 32.9678 38.9739Z" fill="#A03535"/>
<path d="M43.0043 22.6197C43.8556 22.2612 44.5725 20.5138 43.9004 19.7521C43.2283 18.9904 42.1082 18.5423 41.1673 19.2592C40.2263 19.9761 39.6886 20.9619 40.4055 22.082C41.1224 23.1574 43.0043 22.6197 43.0043 22.6197Z" fill="#A03535"/>
<path d="M48.7395 32.9251C47.8882 32.5666 46.1855 33.3284 46.0959 34.3141C46.0063 35.3446 46.4992 36.4648 47.6641 36.644C48.8291 36.8232 49.9493 36.4648 50.1733 35.1654C50.4421 33.866 48.7395 32.9251 48.7395 32.9251Z" fill="#A03535"/>
<path d="M38.1203 20.4242C36.7762 19.08 32.9228 19.1696 31.9819 21.0067C31.041 22.8437 31.1306 25.3977 33.1917 26.6523C35.2528 27.9068 37.6275 28.0861 39.1509 25.8457C40.6295 23.6054 38.1203 20.4242 38.1203 20.4242Z" fill="#EF413D"/>
<path d="M16.8824 20.2001C13.97 20.2001 11.9986 22.5301 12.2674 24.8152C12.4914 27.1451 13.3428 28.5789 16.3896 28.2204C19.4364 27.862 20.5117 27.0555 20.5117 24.4567C20.5117 20.2001 16.8824 20.2001 16.8824 20.2001Z" fill="#EF413D"/>
<path d="M26.2021 24.9497C24.0514 24.8601 22.3487 26.6523 21.7215 28.9374C21.0942 31.2225 23.1105 32.9252 26.2021 32.9252C29.2937 32.9252 30.2346 29.8784 30.145 27.8621C30.0106 25.8458 26.2021 24.9497 26.2021 24.9497Z" fill="#EF413D"/>
<path d="M25.8435 35.6135C23.2 35.6135 21.5869 37.5401 21.7214 40.5422C21.8558 43.5442 25.0818 43.9026 26.7845 43.7682C28.5319 43.6338 31.0859 40.2285 29.6072 37.0921C28.6215 34.8966 25.8435 35.6135 25.8435 35.6135Z" fill="#EF413D"/>
<path d="M25.261 23.9639C25.037 23.9639 24.8577 23.8295 24.8577 23.6054C24.8129 23.2022 23.4239 13.6585 26.9188 7.11675C27.0084 6.89272 27.2773 6.84792 27.5013 6.93753C27.7253 7.02714 27.7701 7.29598 27.6805 7.52001C24.3201 13.8377 25.6642 23.4262 25.709 23.5158C25.7539 23.7399 25.5746 23.9639 25.3506 24.0087C25.3058 23.9639 25.3058 23.9639 25.261 23.9639Z" fill="#192E36"/>
<path d="M9.98215 20.4242C9.93735 20.4242 9.93735 20.4242 9.89254 20.4242C9.66851 20.3794 9.53409 20.1554 9.5789 19.9314C9.6237 19.7522 10.6094 15.406 17.3304 15.3611C17.5544 15.3611 17.7336 15.5404 17.7336 15.7644C17.7336 15.9884 17.5544 16.1677 17.3304 16.1677C11.2815 16.2125 10.3854 20.0658 10.3854 20.1106C10.3854 20.2898 10.2062 20.4242 9.98215 20.4242Z" fill="#192E36"/>
<path d="M16.7926 19.4385H16.7478C16.5238 19.3937 16.3446 19.2144 16.3894 18.9904C16.8822 15.2715 19.1673 10.074 27.3221 6.31026C27.5461 6.22065 27.7701 6.31026 27.8597 6.5343C27.9494 6.75833 27.8597 6.98236 27.6357 7.07197C21.4525 9.89476 17.8232 14.0617 17.1511 19.08C17.1511 19.3041 16.9718 19.4385 16.7926 19.4385Z" fill="#192E36"/>
<path d="M32.9678 19.4385C32.8782 19.4385 32.7886 19.3936 32.7438 19.3488C32.6989 19.304 26.3365 14.5994 27.6358 6.48946C27.6807 6.26543 27.9047 6.08621 28.1287 6.13101C28.3527 6.17582 28.532 6.39985 28.4872 6.62388C27.2326 14.2409 33.1918 18.6319 33.2366 18.6767C33.4158 18.8112 33.4607 19.08 33.3262 19.2592C33.2366 19.3936 33.1022 19.4385 32.9678 19.4385Z" fill="#192E36"/>
<path d="M38.927 18.7663C38.7926 18.7663 38.703 18.7215 38.6134 18.6319C38.5686 18.5871 35.1633 14.7338 28.98 14.2857C28.756 14.2857 28.5768 14.0617 28.5768 13.8376C28.5768 13.6136 28.8008 13.4344 29.0248 13.4344C35.5665 13.8824 39.0614 17.915 39.2407 18.0942C39.3751 18.2735 39.3751 18.5423 39.1959 18.6767C39.151 18.7215 39.0614 18.7663 38.927 18.7663Z" fill="#192E36"/>
<path d="M19.9291 19.8865C19.9291 19.8865 19.8843 19.8865 19.9291 19.8865C19.6603 19.8865 19.481 19.6625 19.5258 19.4385C19.9291 13.8377 24.8578 12.7175 24.9026 12.7175C25.1266 12.6727 25.3506 12.8072 25.3955 13.0312C25.4403 13.2552 25.3058 13.4792 25.0818 13.5241C24.9026 13.5689 20.7356 14.5546 20.3324 19.4833C20.3324 19.7073 20.1531 19.8865 19.9291 19.8865Z" fill="#192E36"/>
<path d="M7.38341 10.1635C7.38341 10.1635 6.98015 12.4935 4.29178 13.4792C1.60341 14.4649 0.438444 13.8377 0.0799947 12.7623C-0.278455 11.687 0.528056 9.62587 3.30604 9.49145C6.12883 9.31223 7.38341 10.1635 7.38341 10.1635Z" fill="#7A9533"/>
<path d="M7.3834 10.1635C7.06976 10.2979 6.35286 11.5077 5.00867 11.911C3.66449 12.3142 3.30604 12.2246 2.94759 11.7317C2.54433 11.1941 3.44046 10.0291 4.42619 10.0739C5.41193 10.1187 7.3834 10.1635 7.3834 10.1635Z" fill="#192E36"/>
<path d="M27.6807 5.99659C27.8151 6.0862 27.8599 6.22062 27.8151 6.39984C27.7703 6.57907 27.5911 6.71348 27.367 6.66868C22.3039 5.3693 16.4343 6.98232 14.1044 7.74403C11.6849 8.55054 7.51789 10.4772 7.47309 10.522C7.29386 10.6116 7.06983 10.522 7.02502 10.3428C6.93541 10.1636 7.02502 9.93953 7.20425 9.89472C7.38347 9.80511 11.4608 7.92325 13.9252 7.11674C16.2999 6.35504 22.3039 4.69721 27.5463 6.04139C27.6359 5.95178 27.6807 5.99659 27.6807 5.99659Z" fill="#192E36"/>
<path d="M12.4018 8.32654C12.4018 8.32654 9.71339 9.71553 8.86207 12.9416C8.01075 16.1676 10.9232 16.2572 12.2225 14.0169C13.5219 11.7318 12.4018 8.32654 12.4018 8.32654Z" fill="#7A9533"/>
<path d="M12.2673 8.55057C12.2673 8.55057 9.75811 11.1045 10.1614 11.911C10.5646 12.7175 12.1328 12.4487 12.2673 11.1941C12.3569 9.93956 12.2673 8.55057 12.2673 8.55057Z" fill="#192E36"/>
<path d="M19.3019 6.39987C19.3019 6.39987 19.7052 8.95383 18.3162 10.8805C16.972 12.852 15.583 13.1208 14.6869 12.4935C13.7459 11.8662 14.418 9.93956 15.4038 8.81941C16.3447 7.69925 19.3019 6.39987 19.3019 6.39987Z" fill="#7A9533"/>
<path d="M19.1226 6.57904C19.1226 6.57904 17.0615 7.87842 16.5686 8.77454C16.031 9.67067 17.6888 10.0291 18.1817 9.26741C18.6297 8.4609 19.1226 6.57904 19.1226 6.57904Z" fill="#192E36"/>
<path d="M19.3468 5.81736C19.3468 5.81736 15.7623 6.89271 13.7012 4.83163C11.6401 2.77054 12.5362 1.11271 13.5668 0.3062C14.5973 -0.500312 16.524 0.485424 17.5993 2.23287C18.6747 3.8907 19.3468 5.81736 19.3468 5.81736Z" fill="#7A9533"/>
<path d="M18.4955 5.90696C18.2715 5.90696 13.9253 5.32448 15.4487 3.353C16.9721 1.38153 18.4955 5.90696 18.4955 5.90696Z" fill="#192E36"/>
<path d="M12.2673 7.65447C12.2673 7.65447 10.027 8.41618 7.74188 7.78889C5.45677 7.1616 4.42622 5.10052 5.6808 3.75633C6.93537 2.41214 8.72762 2.68098 9.84778 3.66672C10.9679 4.65245 12.2673 7.65447 12.2673 7.65447Z" fill="#7A9533"/>
<path d="M11.8639 7.7889C11.8639 7.7889 7.51774 7.92331 7.74177 6.31029C7.9658 4.69727 10.1613 5.05572 10.8334 5.99665C11.5055 6.93758 11.8639 7.7889 11.8639 7.7889Z" fill="#192E36"/>
</svg>
