<svg width="171" height="85" viewBox="0 0 171 85" fill="none" xmlns="http://www.w3.org/2000/svg">
<path d="M33.813 56.8977C33.813 56.8977 54.7417 75.6983 59.2433 71.9066C63.666 68.1149 69.3523 56.3448 63.1921 45.2066C59.4803 50.7362 57.3479 56.1868 57.3479 56.1868C57.3479 56.1868 53.557 46.3125 45.6594 44.8906C47.7128 52.711 49.3713 57.4507 49.3713 57.4507C49.3713 57.4507 45.9753 56.3448 41.8686 55.7128C37.7618 55.0019 33.813 56.8977 33.813 56.8977Z" fill="#C4C4C4" fill-opacity="0.54"/>
<path d="M45.6596 89.1273L45.2647 88.8903C44.8698 88.6533 36.4983 83.0447 35.3137 75.6193C34.6029 71.1956 36.7352 67.7199 39.1045 67.0879C41.5528 66.377 43.9221 68.1938 45.5016 71.8276C49.3715 80.6749 45.9755 88.4163 45.8175 88.7323L45.6596 89.1273ZM40.2102 67.7199C39.9733 67.7199 39.6574 67.7199 39.4204 67.7989C37.367 68.4308 35.5506 71.4326 36.1824 75.4613C37.1301 81.6228 43.6062 86.6785 45.3437 87.8634C45.9755 86.0465 48.0289 79.332 44.8698 72.0646C43.6062 69.2998 41.9477 67.7199 40.2102 67.7199Z" fill="#C4C4C4" fill-opacity="0.54"/>
<path d="M45.4226 87.7053C45.4226 87.7053 46.5283 77.5151 44.159 76.4092C41.8687 75.3032 38.7886 78.7 40.763 81.7017C42.7374 84.7825 45.4226 87.7053 45.4226 87.7053Z" fill="#C4C4C4" fill-opacity="0.54"/>
<path d="M32.5495 101.134C30.4961 101.134 23.7041 100.818 19.5184 96.5527C16.9912 94.0248 15.7275 91.418 15.7275 88.9692C15.7275 87.1524 16.5173 85.4145 17.9389 84.0716C18.8866 83.2026 20.1502 82.7287 21.6508 82.8867C24.3359 83.1237 27.495 85.0195 29.4694 87.4683C32.1546 90.9441 33.4182 100.265 33.4182 100.66L33.4972 101.134H33.0233C33.1023 101.134 32.8654 101.134 32.5495 101.134ZM21.2559 83.6766C20.1502 83.6766 19.2815 83.9926 18.5707 84.7035C17.3071 85.8885 16.5963 87.3893 16.5963 89.0482C16.5963 91.2601 17.7809 93.7089 20.1502 96.0787C24.178 100.107 30.891 100.423 32.7074 100.423C32.3915 98.4485 31.2069 90.9441 28.9955 88.1003C27.1791 85.7305 24.178 83.9926 21.8087 83.8346C21.4928 83.6766 21.3349 83.6766 21.2559 83.6766Z" fill="#C4C4C4" fill-opacity="0.54"/>
<path d="M70.616 70.7216C63.903 69.3787 58.3747 73.8024 57.8218 79.253C57.348 84.7036 58.6116 88.4163 65.7194 88.9693C72.9063 89.5222 75.7494 88.1793 76.934 82.2548C78.9874 72.3805 70.616 70.7216 70.616 70.7216ZM72.1955 85.0196C69.7472 87.6264 65.7194 87.8634 63.0343 85.4145C60.428 82.9657 60.1911 78.937 62.6394 76.2512C65.0876 73.6444 69.1154 73.4074 71.8006 75.8562C74.4068 78.2261 74.6437 82.3338 72.1955 85.0196Z" fill="#C4C4C4" fill-opacity="0.54"/>
<path d="M96.6783 90.0753C87.5961 90.0753 82.2257 84.3877 75.3547 76.0143C64.377 62.7433 67.5361 46.5495 83.8052 32.6466C99.3635 19.2966 122.109 8.86933 122.346 8.71134C122.662 8.55335 123.056 8.63236 123.293 8.86934C123.53 9.10632 123.609 9.50128 123.451 9.81725C123.372 9.97524 115.238 26.327 104.655 39.519C117.212 34.5424 136.798 30.1187 137.035 30.1187C137.351 30.0398 137.746 30.1977 137.904 30.5137C138.062 30.8297 138.062 31.2247 137.825 31.4617C137.667 31.6196 124.004 48.8403 111.842 60.1365C129.138 57.2927 156.147 54.8439 156.384 54.8439C156.7 54.8439 157.016 55.0019 157.174 55.2389C157.332 55.5548 157.332 55.8708 157.095 56.1868C156.779 56.5818 148.566 66.693 121.319 81.6229C110.499 87.5475 102.759 90.0753 96.6783 90.0753ZM120.845 11.3182C114.764 14.3199 97.4681 23.1673 84.9108 33.9105C69.4315 47.1815 66.3514 62.5063 76.6973 74.9874C87.0432 87.5474 93.2823 95.1309 120.608 80.122C141.379 68.7468 151.093 60.0575 154.489 56.6608C147.302 57.3717 123.688 59.6625 109.393 62.1904C108.999 62.2693 108.683 62.0324 108.525 61.7164C108.367 61.4004 108.446 61.0054 108.762 60.7684C119.029 51.7631 131.033 37.3862 135.14 32.2516C128.98 33.6735 112 37.9392 102.286 42.3628C101.97 42.5208 101.496 42.4418 101.259 42.1259C101.022 41.8099 101.022 41.4149 101.259 41.0989C110.341 30.5137 118.002 16.6108 120.845 11.3182Z" fill="#C4C4C4" fill-opacity="0.54"/>
<path d="M95.8741 33.1836C96.5794 32.4099 96.5242 31.2108 95.7507 30.5053C94.9772 29.7998 93.7784 29.855 93.073 30.6287C92.3677 31.4024 92.423 32.6015 93.1964 33.307C93.9699 34.0125 95.1688 33.9572 95.8741 33.1836Z" fill="#C4C4C4" fill-opacity="0.54"/>
<path d="M93.38 40.2018C94.2617 39.2347 94.1926 37.7358 93.2257 36.8539C92.2589 35.9721 90.7603 36.0411 89.8787 37.0082C88.997 37.9753 89.066 39.4742 90.0329 40.3561C90.9998 41.2379 92.4983 41.1689 93.38 40.2018Z" fill="#C4C4C4" fill-opacity="0.54"/>
<path d="M81.9894 49.9163C82.8711 48.9492 82.802 47.4503 81.8351 46.5684C80.8683 45.6865 79.3697 45.7556 78.488 46.7227C77.6063 47.6898 77.6754 49.1887 78.6423 50.0705C79.6091 50.9524 81.1077 50.8834 81.9894 49.9163Z" fill="#C4C4C4" fill-opacity="0.54"/>
<path d="M89.4376 56.0386C90.3193 55.0715 90.2502 53.5726 89.2833 52.6907C88.3165 51.8088 86.8179 51.8779 85.9363 52.845C85.0546 53.8121 85.1236 55.311 86.0905 56.1929C87.0574 57.0747 88.5559 57.0057 89.4376 56.0386Z" fill="#C4C4C4" fill-opacity="0.54"/>
<path d="M96.8004 62.4406C97.976 61.1511 97.8839 59.1526 96.5948 57.9768C95.3056 56.8009 93.3076 56.893 92.132 58.1825C90.9564 59.4719 91.0485 61.4704 92.3376 62.6463C93.6268 63.8221 95.6249 63.73 96.8004 62.4406Z" fill="#C4C4C4" fill-opacity="0.54"/>
<path d="M102.565 68.7045C103.741 67.415 103.649 65.4165 102.359 64.2407C101.07 63.0648 99.0722 63.1569 97.8966 64.4464C96.7211 65.7358 96.8131 67.7343 98.1023 68.9102C99.3915 70.086 101.39 69.9939 102.565 68.7045Z" fill="#C4C4C4" fill-opacity="0.54"/>
<path d="M84.1266 72.5199C85.0082 71.5528 84.9392 70.0539 83.9723 69.1721C83.0055 68.2902 81.5069 68.3592 80.6252 69.3263C79.7436 70.2934 79.8126 71.7923 80.7795 72.6742C81.7463 73.5561 83.2449 73.487 84.1266 72.5199Z" fill="#C4C4C4" fill-opacity="0.54"/>
<path d="M96.7599 83.0642C97.6415 82.0971 97.5725 80.5982 96.6056 79.7164C95.6388 78.8345 94.1402 78.9036 93.2585 79.8706C92.3769 80.8377 92.4459 82.3366 93.4128 83.2185C94.3796 84.1004 95.8782 84.0313 96.7599 83.0642Z" fill="#C4C4C4" fill-opacity="0.54"/>
<path d="M91.1192 48.4751C92.0009 47.508 91.9319 46.0091 90.965 45.1273C89.9981 44.2454 88.4996 44.3144 87.6179 45.2815C86.7362 46.2486 86.8053 47.7475 87.7722 48.6294C88.739 49.5113 90.2376 49.4422 91.1192 48.4751Z" fill="#C4C4C4" fill-opacity="0.54"/>
<path d="M114.945 80.9612C115.827 79.9941 115.758 78.4952 114.791 77.6133C113.824 76.7315 112.326 76.8005 111.444 77.7676C110.562 78.7347 110.631 80.2336 111.598 81.1155C112.565 81.9973 114.064 81.9283 114.945 80.9612Z" fill="#C4C4C4" fill-opacity="0.54"/>
<path d="M86.3702 63.643C87.3401 62.5792 87.2641 60.9305 86.2006 59.9604C85.137 58.9903 83.4886 59.0663 82.5188 60.1301C81.5489 61.1939 81.6249 62.8427 82.6884 63.8128C83.752 64.7828 85.4004 64.7068 86.3702 63.643Z" fill="#C4C4C4" fill-opacity="0.54"/>
<path d="M89.6866 78.719C90.6565 77.6552 90.5805 76.0064 89.517 75.0363C88.4534 74.0662 86.805 74.1422 85.8352 75.206C84.8653 76.2698 84.9413 77.9186 86.0048 78.8887C87.0684 79.8587 88.7168 79.7828 89.6866 78.719Z" fill="#C4C4C4" fill-opacity="0.54"/>
<path d="M100.737 76.7857C101.707 75.722 101.631 74.0732 100.567 73.1031C99.5037 72.133 97.8553 72.209 96.8854 73.2728C95.9156 74.3366 95.9916 75.9854 97.0551 76.9554C98.1187 77.9255 99.767 77.8495 100.737 76.7857Z" fill="#C4C4C4" fill-opacity="0.54"/>
<path d="M106.238 83.3158C107.208 82.252 107.132 80.6032 106.068 79.6331C105.005 78.6631 103.356 78.739 102.386 79.8028C101.417 80.8666 101.493 82.5154 102.556 83.4855C103.62 84.4556 105.268 84.3796 106.238 83.3158Z" fill="#C4C4C4" fill-opacity="0.54"/>
<path d="M109.518 75.0281C110.488 73.9643 110.412 72.3155 109.348 71.3454C108.284 70.3753 106.636 70.4513 105.666 71.5151C104.696 72.5789 104.772 74.2277 105.836 75.1978C106.899 76.1678 108.548 76.0919 109.518 75.0281Z" fill="#C4C4C4" fill-opacity="0.54"/>
<path d="M94.3527 71.9536C95.6752 70.5029 95.5716 68.2546 94.1213 66.9318C92.671 65.609 90.4232 65.7126 89.1007 67.1632C87.7782 68.6138 87.8818 70.8622 89.3321 72.185C90.7823 73.5078 93.0302 73.4042 94.3527 71.9536Z" fill="#C4C4C4" fill-opacity="0.54"/>
<path d="M79.7457 57.3572C80.6274 56.3901 80.5583 54.8912 79.5915 54.0093C78.6246 53.1274 77.1261 53.1965 76.2444 54.1636C75.3627 55.1307 75.4317 56.6296 76.3986 57.5115C77.3655 58.3934 78.864 58.3243 79.7457 57.3572Z" fill="#C4C4C4" fill-opacity="0.54"/>
<path d="M86.36 41.6016C87.2416 40.6345 87.1726 39.1356 86.2057 38.2537C85.2389 37.3718 83.7403 37.4409 82.8586 38.408C81.977 39.3751 82.046 40.874 83.0129 41.7559C83.9797 42.6377 85.4783 42.5687 86.36 41.6016Z" fill="#C4C4C4" fill-opacity="0.54"/>
<path d="M98.3868 45.4723C99.0922 44.6986 99.0369 43.4995 98.2634 42.794C97.4899 42.0885 96.2911 42.1437 95.5857 42.9174C94.8804 43.6911 94.9356 44.8902 95.7091 45.5957C96.4826 46.3012 97.6815 46.2459 98.3868 45.4723Z" fill="#C4C4C4" fill-opacity="0.54"/>
<path d="M103.838 54.5473C104.544 53.7737 104.489 52.5745 103.715 51.869C102.942 51.1635 101.743 51.2188 101.037 51.9925C100.332 52.7661 100.387 53.9652 101.161 54.6707C101.934 55.3762 103.133 55.321 103.838 54.5473Z" fill="#C4C4C4" fill-opacity="0.54"/>
<path d="M124.37 76.3174C125.075 75.5437 125.02 74.3446 124.246 73.6391C123.473 72.9336 122.274 72.9888 121.569 73.7625C120.863 74.5362 120.919 75.7353 121.692 76.4408C122.466 77.1463 123.664 77.091 124.37 76.3174Z" fill="#C4C4C4" fill-opacity="0.54"/>
<path d="M116.488 73.7083C117.193 72.9347 117.138 71.7356 116.364 71.03C115.591 70.3245 114.392 70.3798 113.687 71.1535C112.981 71.9271 113.037 73.1262 113.81 73.8318C114.584 74.5373 115.783 74.482 116.488 73.7083Z" fill="#C4C4C4" fill-opacity="0.54"/>
<path d="M96.5787 52.9819C97.284 52.2082 97.2288 51.0091 96.4553 50.3036C95.6818 49.5981 94.483 49.6533 93.7776 50.427C93.0723 51.2007 93.1275 52.3998 93.901 53.1053C94.6745 53.8108 95.8734 53.7556 96.5787 52.9819Z" fill="#C4C4C4" fill-opacity="0.54"/>
<path d="M78.316 64.6884C79.0213 63.9148 78.9661 62.7157 78.1926 62.0102C77.4191 61.3046 76.2203 61.3599 75.5149 62.1336C74.8096 62.9072 74.8648 64.1063 75.6383 64.8119C76.4118 65.5174 77.6107 65.4621 78.316 64.6884Z" fill="#C4C4C4" fill-opacity="0.54"/>
<path d="M101.178 60.1227C101.737 59.5102 101.693 58.5609 101.081 58.0024C100.468 57.4439 99.5192 57.4876 98.9608 58.1001C98.4024 58.7126 98.4461 59.6619 99.0585 60.2204C99.6708 60.7789 100.62 60.7352 101.178 60.1227Z" fill="#C4C4C4" fill-opacity="0.54"/>
<path d="M105.908 61.4855C106.466 60.873 106.422 59.9237 105.81 59.3652C105.198 58.8067 104.249 58.8504 103.69 59.4629C103.132 60.0754 103.176 61.0247 103.788 61.5832C104.4 62.1417 105.349 62.098 105.908 61.4855Z" fill="#C4C4C4" fill-opacity="0.54"/>
<path d="M108.406 66.7926C108.965 66.1801 108.921 65.2308 108.309 64.6723C107.696 64.1138 106.747 64.1575 106.189 64.77C105.63 65.3825 105.674 66.3318 106.286 66.8903C106.899 67.4489 107.848 67.4051 108.406 66.7926Z" fill="#C4C4C4" fill-opacity="0.54"/>
<path d="M117.607 23.3251C117.528 23.3251 117.37 23.3251 117.291 23.2461C117.133 23.0881 117.133 22.8512 117.291 22.6932L134.429 5.07748C134.587 4.91949 134.824 4.91949 134.982 5.07748C135.139 5.23546 135.139 5.47246 134.982 5.63044L117.844 23.1671C117.765 23.2461 117.686 23.3251 117.607 23.3251Z" fill="#C4C4C4" fill-opacity="0.54"/>
<path d="M107.814 36.7541C107.735 36.7541 107.656 36.7541 107.577 36.6751C107.419 36.5171 107.34 36.2801 107.498 36.1221C107.577 36.0431 109.788 33.1203 121.003 23.6411C132.217 14.1618 145.327 6.81532 145.485 6.73633C145.722 6.65733 145.959 6.65734 146.038 6.89433C146.117 7.13131 146.038 7.36828 145.88 7.44727C145.722 7.52626 132.691 14.7937 121.556 24.194C110.499 33.5943 108.208 36.5171 108.208 36.5171C108.051 36.7541 107.893 36.7541 107.814 36.7541Z" fill="#C4C4C4" fill-opacity="0.54"/>
<path d="M112.552 34.7792C112.394 34.7792 112.236 34.7003 112.157 34.5423C112.078 34.3053 112.157 34.0683 112.394 33.9893C112.473 33.9893 118.554 31.5405 125.82 25.5369C133.165 19.5334 142.405 13.5298 142.484 13.5298C142.642 13.3718 142.958 13.4508 143.037 13.6878C143.195 13.8458 143.116 14.1618 142.879 14.2408C142.8 14.3198 133.56 20.2443 126.294 26.2479C118.949 32.3304 112.71 34.7792 112.71 34.7792C112.631 34.7002 112.631 34.7792 112.552 34.7792Z" fill="#C4C4C4" fill-opacity="0.54"/>
<path d="M122.819 33.1204C122.661 33.1204 122.503 33.0414 122.424 32.8045C122.345 32.5675 122.503 32.3305 122.74 32.2515C130.401 30.0397 137.746 24.5101 137.825 24.4311C137.983 24.2731 138.299 24.3521 138.378 24.5101C138.535 24.6681 138.456 24.9841 138.299 25.0631C138.22 25.142 130.717 30.7506 122.898 33.0415C122.898 33.1205 122.819 33.1204 122.819 33.1204Z" fill="#C4C4C4" fill-opacity="0.54"/>
<path d="M118.08 33.3574C118.001 33.3574 117.843 33.2784 117.764 33.1994C117.607 33.0414 117.607 32.8044 117.764 32.6465C117.843 32.6465 118.87 31.6195 127.242 26.7219C135.534 21.8243 158.358 9.73816 158.595 9.65917C158.832 9.58017 159.069 9.65915 159.148 9.81714C159.227 10.0541 159.148 10.2911 158.99 10.3701C158.753 10.5281 135.929 22.5352 127.636 27.4328C119.502 32.2515 118.396 33.1994 118.317 33.1994C118.238 33.3574 118.159 33.3574 118.08 33.3574Z" fill="#C4C4C4" fill-opacity="0.54"/>
<path d="M141.458 29.4867C141.3 29.4867 141.142 29.4077 141.063 29.2497C140.984 29.0127 141.063 28.7757 141.221 28.6968C153.383 21.9823 157.885 15.9787 157.885 15.9787C158.043 15.8207 158.28 15.7417 158.438 15.8997C158.595 16.0577 158.674 16.2947 158.517 16.4527C158.359 16.6897 153.857 22.6142 141.537 29.4077C141.537 29.4867 141.537 29.4867 141.458 29.4867Z" fill="#C4C4C4" fill-opacity="0.54"/>
<path d="M124.004 50.2621C123.846 50.2621 123.767 50.1831 123.688 50.1041C123.53 49.9461 123.609 49.6302 123.767 49.5512C123.767 49.5512 126.847 47.3393 137.508 38.334C148.249 29.3287 154.488 25.695 154.567 25.616C154.804 25.537 155.041 25.537 155.12 25.774C155.199 26.0109 155.199 26.2479 154.962 26.3269C154.883 26.3269 148.723 29.9607 137.982 38.966C127.242 47.9713 124.24 50.1831 124.162 50.1831C124.162 50.1831 124.083 50.2621 124.004 50.2621Z" fill="#C4C4C4" fill-opacity="0.54"/>
<path d="M117.527 58.4775C117.369 58.4775 117.212 58.3985 117.133 58.2405C117.054 58.0035 117.133 57.7665 117.29 57.6876C135.06 48.4452 150.539 35.0952 150.697 35.0162C150.855 34.8583 151.171 34.8582 151.25 35.0952C151.408 35.2532 151.408 35.5692 151.171 35.6482C151.013 35.8062 135.455 49.1562 117.606 58.4775C117.685 58.4775 117.606 58.4775 117.527 58.4775Z" fill="#C4C4C4" fill-opacity="0.54"/>
<path d="M128.268 55.4758C128.11 55.4758 127.952 55.3968 127.873 55.2388C127.794 55.0018 127.794 54.7648 128.031 54.6858C153.541 40.0719 165.466 26.327 165.545 26.169C165.703 26.011 165.94 26.011 166.098 26.09C166.256 26.248 166.256 26.485 166.177 26.6429C166.098 26.8009 154.094 40.7039 128.426 55.3178C128.426 55.4758 128.347 55.4758 128.268 55.4758Z" fill="#C4C4C4" fill-opacity="0.54"/>
<path d="M132.849 55.7127C132.691 55.7127 132.533 55.6337 132.454 55.4757C132.375 55.2388 132.454 55.0018 132.691 54.9228C152.672 45.8385 161.123 37.8601 161.202 37.7811C161.36 37.6231 161.597 37.6231 161.755 37.7811C161.913 37.9391 161.913 38.176 161.755 38.334C161.676 38.413 153.067 46.5494 133.007 55.6337C132.928 55.7127 132.849 55.7127 132.849 55.7127Z" fill="#C4C4C4" fill-opacity="0.54"/>
<path d="M142.01 54.1328C141.852 54.1328 141.695 54.0538 141.616 53.8958C141.537 53.6588 141.616 53.4218 141.852 53.3428C154.884 48.6032 158.99 44.0215 159.069 43.9425C159.227 43.7845 159.464 43.7845 159.622 43.8635C159.78 44.0215 159.78 44.2585 159.701 44.4165C159.543 44.5745 155.436 49.1561 142.168 54.0538C142.089 54.1328 142.089 54.1328 142.01 54.1328Z" fill="#C4C4C4" fill-opacity="0.54"/>
<path d="M151.013 53.8168C150.855 53.8168 150.697 53.7378 150.618 53.5799C150.54 53.3429 150.618 53.1059 150.855 53.0269C161.675 49.2352 165.071 44.6535 165.071 44.5745C165.229 44.4165 165.466 44.3376 165.624 44.4955C165.782 44.6535 165.861 44.8905 165.703 45.0485C165.545 45.2065 162.149 49.8671 151.092 53.7378C151.092 53.8168 151.092 53.8168 151.013 53.8168Z" fill="#C4C4C4" fill-opacity="0.54"/>
<path d="M6.7242 137.077C6.56625 137.077 6.40829 136.998 6.25034 136.919C5.85546 136.682 5.77648 136.129 6.09239 135.734C36.2613 94.7359 54.6628 85.4935 55.3736 85.0986C55.7684 84.8616 56.2423 85.0986 56.4792 85.4935C56.7162 85.8885 56.4792 86.4415 56.0843 86.5995C55.9264 86.6785 37.209 96.1578 7.35601 136.761C7.19806 136.919 6.96113 137.077 6.7242 137.077Z" fill="#C4C4C4" fill-opacity="0.54"/>
<path d="M145.727 15.3739C146.609 14.4068 146.54 12.9079 145.573 12.0261C144.606 11.1442 143.108 11.2133 142.226 12.1803C141.344 13.1474 141.413 14.6463 142.38 15.5282C143.347 16.4101 144.845 16.341 145.727 15.3739Z" fill="#C4C4C4" fill-opacity="0.54"/>
<path d="M168.258 46.3373C169.14 45.3702 169.071 43.8713 168.104 42.9894C167.137 42.1076 165.638 42.1766 164.757 43.1437C163.875 44.1108 163.944 45.6097 164.911 46.4916C165.878 47.3734 167.376 47.3044 168.258 46.3373Z" fill="#C4C4C4" fill-opacity="0.54"/>
<path d="M161.126 45.8467C162.007 44.8796 161.938 43.3807 160.971 42.4988C160.005 41.617 158.506 41.686 157.624 42.6531C156.743 43.6202 156.812 45.1191 157.779 46.001C158.745 46.8828 160.244 46.8138 161.126 45.8467Z" fill="#C4C4C4" fill-opacity="0.54"/>
<path d="M161.073 18.7555C161.955 17.7884 161.886 16.2895 160.919 15.4077C159.952 14.5258 158.454 14.5948 157.572 15.5619C156.69 16.529 156.759 18.0279 157.726 18.9098C158.693 19.7917 160.192 19.7226 161.073 18.7555Z" fill="#C4C4C4" fill-opacity="0.54"/>
<path d="M168.297 28.6113C169.472 27.3219 169.38 25.3234 168.091 24.1475C166.802 22.9717 164.804 23.0638 163.628 24.3532C162.453 25.6427 162.545 27.6412 163.834 28.817C165.123 29.9929 167.121 29.9008 168.297 28.6113Z" fill="#C4C4C4" fill-opacity="0.54"/>
<path d="M142.029 26.0672C142.999 25.0034 142.923 23.3547 141.859 22.3846C140.796 21.4145 139.147 21.4905 138.177 22.5543C137.208 23.6181 137.284 25.2669 138.347 26.2369C139.411 27.207 141.059 27.131 142.029 26.0672Z" fill="#C4C4C4" fill-opacity="0.54"/>
<path d="M137.239 6.37447C138.209 5.31068 138.133 3.66192 137.069 2.69186C136.006 1.72179 134.357 1.79775 133.387 2.86154C132.418 3.92534 132.494 5.57412 133.557 6.54419C134.621 7.51426 136.269 7.43826 137.239 6.37447Z" fill="#C4C4C4" fill-opacity="0.54"/>
<path d="M164.146 38.9775C165.116 37.9137 165.04 36.2649 163.976 35.2949C162.913 34.3248 161.264 34.4008 160.295 35.4646C159.325 36.5284 159.401 38.1771 160.464 39.1472C161.528 40.1173 163.176 40.0413 164.146 38.9775Z" fill="#C4C4C4" fill-opacity="0.54"/>
<path d="M162.125 11.9106C163.388 10.5245 163.289 8.37605 161.904 7.11202C160.518 5.848 158.37 5.94702 157.106 7.33317C155.842 8.71932 155.941 10.8677 157.327 12.1317C158.713 13.3958 160.861 13.2968 162.125 11.9106Z" fill="#C4C4C4" fill-opacity="0.54"/>
<path d="M159.339 27.7471C160.662 26.2965 160.558 24.0482 159.108 22.7254C157.657 21.4025 155.41 21.5062 154.087 22.9568C152.765 24.4074 152.868 26.6557 154.318 27.9786C155.769 29.3014 158.017 29.1978 159.339 27.7471Z" fill="#C4C4C4" fill-opacity="0.54"/>
<path d="M151.198 8.73558C152.756 7.02706 152.634 4.37901 150.925 2.82102C149.217 1.26303 146.57 1.38508 145.012 3.09359C143.455 4.80211 143.577 7.45013 145.285 9.00812C146.993 10.5661 149.64 10.4441 151.198 8.73558Z" fill="#C4C4C4" fill-opacity="0.54"/>
<path d="M155.186 37.9878C156.743 36.2793 156.621 33.6312 154.913 32.0732C153.205 30.5152 150.558 30.6373 149 32.3458C147.442 34.0543 147.564 36.7023 149.273 38.2603C150.981 39.8183 153.628 39.6963 155.186 37.9878Z" fill="#C4C4C4" fill-opacity="0.54"/>
</svg>
