<svg width="109" height="172" viewBox="0 0 109 172" fill="none" xmlns="http://www.w3.org/2000/svg">
<path d="M77.7857 2.44436H78.746C78.746 5.32436 80.3466 6.60436 80.9868 9.16436H81.627C81.627 11.4044 81.3069 13.6444 81.3069 15.8844C81.9471 19.7244 86.4286 23.5644 82.5873 25.4844C82.5873 24.8444 79.7064 24.5244 79.3863 23.8844C79.3863 26.4444 78.1058 27.0844 77.7857 29.6444C77.4656 29.6444 76.8254 29.6444 76.5053 29.3244C76.5053 31.2444 76.5053 32.8444 76.1852 34.7644C80.0265 37.6444 78.4259 46.9244 81.9471 49.8044C85.1481 50.7644 88.0291 51.4044 91.2302 52.3644C94.1111 53.9644 99.2328 60.6844 101.794 63.5644C102.754 64.5244 104.034 65.4844 104.995 66.1244C105.315 67.0844 105.315 68.3644 105.635 69.3244C106.275 69.6444 106.595 70.2844 107.235 70.6044C108.196 72.5244 109.156 81.4844 108.836 84.3644C108.196 88.2044 104.355 90.1244 103.394 93.6444V97.1644C102.754 99.0844 101.474 100.684 100.513 101.964C101.474 104.524 99.5529 108.044 98.9127 109.964C97.9524 113.484 96.9921 117.644 95.3915 120.524C94.7513 121.164 93.791 121.804 93.1508 122.444C90.91 125.324 86.4286 127.884 83.8677 130.444C83.8677 143.884 88.6693 156.684 98.9127 159.564C104.675 161.164 104.995 157.644 108.836 161.804C108.516 163.724 108.196 161.804 106.275 162.764C101.794 164.684 94.7513 160.844 97.3122 165.004C98.2725 166.604 98.5926 168.204 98.2725 168.204C97.6323 168.844 98.9127 170.764 98.5926 170.764C97.3122 170.124 96.0317 169.484 94.7513 168.524C91.8704 166.924 87.3889 165.004 84.828 163.404C79.7063 165.004 72.0238 168.204 65.3016 166.604C65.3016 166.284 62.4206 167.564 62.4206 167.244C62.7407 166.284 62.7407 166.604 63.3809 165.644C66.582 162.444 67.5423 164.364 72.0238 162.764C73.6243 161.804 76.1852 159.244 76.1852 159.244C74.9048 160.204 72.664 160.204 70.1032 159.564C69.1429 159.244 67.8624 160.204 66.2619 160.204C66.582 158.924 67.5423 159.244 67.8624 157.964C70.1032 156.044 80.3466 155.084 81.627 152.844C85.7884 147.084 72.9841 130.764 70.4233 127.564C67.5423 129.164 64.0212 132.364 58.8995 131.404C57.6191 130.764 56.0185 130.444 54.7381 129.804C52.8175 129.484 51.537 131.084 48.9762 130.764C46.4153 130.444 39.6931 128.524 37.1323 129.484C33.6111 131.084 26.8889 148.044 29.7698 154.444C31.3704 157.964 41.6138 162.444 41.9339 162.764C40.9735 162.764 38.4127 162.764 35.8519 162.444C34.2513 162.124 34.2513 162.764 34.2513 162.764C34.2513 162.764 43.2143 164.044 45.455 166.924C45.455 167.564 47.3757 168.524 47.3757 169.164C46.0952 169.164 44.1746 168.524 43.2143 168.204C38.0926 165.964 32.0106 168.524 27.5291 167.564C25.9286 167.244 23.6878 164.684 22.4074 165.644C19.5265 166.924 6.08201 170.444 4.80159 171.404C4.48148 169.484 13.7646 165.324 14.0847 164.684C14.0847 164.684 0.960317 162.764 0 163.084C2.24074 157.644 7.68254 160.844 13.7645 160.844C22.0873 160.844 24.9682 150.924 27.5291 143.244C28.1693 141.324 24.9683 137.804 25.6085 135.884C25.6085 134.924 24.6481 134.284 24.328 133.964C24.328 133.004 23.3677 133.004 23.6878 131.724C23.0476 130.764 22.4074 129.484 21.7672 128.524C21.4471 128.524 21.4471 128.844 21.127 128.844C20.8069 124.044 17.9259 119.244 15.3651 116.044C14.4048 114.764 11.5238 114.444 10.8836 112.844V110.924C9.92328 109.964 9.28306 108.684 8.32275 107.724C8.32275 105.804 8.32275 103.884 8.64286 101.964C8.00265 99.7244 7.36243 97.4844 6.72222 95.2444C6.08201 92.6844 7.04233 90.7644 8.00265 89.8044C8.32275 89.4844 8.32275 89.4844 8.64286 89.1644C7.04233 86.6044 3.52116 76.0444 5.7619 71.2444C6.08201 70.2844 7.36243 69.9644 8.00265 69.0044C7.36243 68.6844 7.36243 69.0044 7.36243 68.0444C8.64285 66.4444 9.60318 64.8444 10.8836 62.9244C10.2434 62.9244 10.2434 62.9244 9.92327 62.2844C10.2434 61.9644 10.5635 61.6444 10.8836 61.3244C11.5238 61.0044 12.4841 60.6844 13.1243 60.0444V58.4444C15.3651 58.4444 15.3651 57.4844 16.6455 56.2044C16.3254 55.8844 16.3254 55.8844 16.0053 54.9244C17.2857 53.9644 18.5661 53.3244 20.1667 54.2844C20.1667 51.4044 22.4074 50.1244 25.2884 50.4444C25.2884 50.7644 25.6085 50.7644 25.6085 51.0844C27.8492 49.4844 31.3704 50.1244 33.9312 48.8444C35.5317 45.3244 38.7328 42.7644 40.3333 38.9244C43.2143 31.8844 43.8545 24.5244 47.3757 18.4444C48.6561 16.5244 49.9365 14.9244 51.2169 13.0044C52.1772 12.3644 53.1376 12.0444 54.0979 11.4044V9.80436C55.6984 5.96436 64.9815 2.76436 70.7434 2.76436C70.7434 2.12436 71.0635 1.80436 71.0635 1.16436C74.5847 -0.435639 73.9445 -0.115638 78.1058 0.524362V2.44436" fill="#FF393D"/>
</svg>
