<svg width="139" height="180" viewBox="0 0 139 180" fill="none" xmlns="http://www.w3.org/2000/svg">
<path d="M121.919 32.2076C121.919 32.2076 120.16 33.2629 120.16 36.4287C120.16 39.5946 121.919 37.484 121.216 43.1123C121.567 46.9817 121.919 50.1476 121.919 50.1476C121.919 50.1476 123.327 55.424 123.327 58.2382C123.327 61.0523 127.549 66.3288 126.845 73.364C126.141 80.3993 131.771 91.304 125.438 105.023C120.864 111.706 117.697 113.817 117.697 113.817C117.697 113.817 113.475 120.501 107.141 118.39C105.03 121.556 101.512 122.963 101.512 122.963C101.512 122.963 94.1229 127.184 93.4192 128.591C92.7155 129.998 89.9007 128.943 85.3266 135.275C82.16 139.496 80.0489 139.144 80.0489 139.144C80.0489 139.144 81.1044 145.476 76.1785 145.476C70.9007 146.883 69.1414 150.752 70.5489 151.456C70.9007 152.863 75.8266 169.748 78.9933 171.155C82.16 172.913 84.6229 170.803 84.6229 170.803C84.6229 170.803 89.197 169.044 89.9007 171.506C88.4933 172.913 86.3822 172.913 86.3822 172.913C86.3822 172.913 87.0859 173.969 92.0118 174.321C96.9378 174.321 100.456 177.135 99.4007 177.486C98.3452 178.19 92.0118 176.783 90.6044 177.486C88.8452 177.486 85.6785 177.135 83.9192 177.135C82.16 177.486 80.7526 177.486 80.7526 177.486C80.7526 177.486 81.4563 179.949 80.0489 179.949C78.9933 179.245 78.6415 177.838 77.9378 177.486C77.2341 176.783 73.3637 173.617 71.6044 174.321C69.4933 175.024 64.2155 175.376 63.5118 175.024C62.8081 174.321 69.4933 172.913 69.4933 172.21C69.4933 171.155 65.2711 170.803 65.2711 170.803C65.2711 170.803 59.9933 169.044 57.1785 166.582C54.3637 164.119 52.9563 163.416 48.3822 163.416C46.6229 165.175 44.16 170.099 44.16 170.099C44.16 170.099 42.4007 168.341 43.1044 167.285C43.8081 166.23 45.9192 160.602 45.9192 159.898C45.9192 159.195 46.9748 155.677 45.9192 155.677C44.8637 155.677 40.9933 157.436 38.8822 156.381C42.4007 154.973 47.3266 152.511 47.3266 152.511C47.3266 152.511 48.734 144.069 48.734 141.606C48.0303 140.199 43.4563 140.551 43.4563 140.551C43.4563 140.551 40.6414 140.903 38.8822 140.551C37.1229 140.199 27.2711 133.868 25.5118 133.868C24.1044 133.868 13.5489 119.093 12.8452 116.631C12.1415 114.169 8.27108 103.968 12.1415 96.9323C16.0118 93.4146 8.97478 88.4899 8.97478 88.4899C8.97478 88.4899 6.15996 83.2135 6.51182 81.4546C6.86367 79.6958 5.45627 75.4746 5.80812 75.1229C6.15998 74.4193 -1.22892 70.1982 0.178486 67.384C1.93775 64.5699 0.882195 62.1076 1.5859 61.7558C2.64145 61.404 0.178488 57.5346 2.64145 56.8311C5.10441 56.1276 0.178488 46.2782 2.64145 43.1123C-0.877067 34.3182 0.178491 33.2629 1.5859 33.2629C2.99331 32.9111 -0.525221 30.4487 2.9933 27.2829C6.51182 24.117 6.15997 22.3582 7.21552 22.0064C8.62293 21.3029 11.0859 19.544 11.0859 19.544C11.0859 19.544 11.7896 16.7299 13.5489 16.7299C15.3081 16.7299 14.6044 13.9158 18.8266 15.3229C22.3451 7.23228 29.734 13.564 29.734 13.564C29.734 13.564 35.0118 18.137 37.8266 27.9864C38.8822 31.1523 38.1785 34.3182 38.8822 36.077C39.5859 37.8358 39.5859 43.464 39.5859 43.464C39.5859 43.464 47.6785 52.9617 49.4377 52.9617C51.197 53.6652 61.4007 57.8864 75.8266 54.7205C87.4378 50.1476 91.3081 34.6699 91.3081 34.6699C91.3081 34.6699 99.7526 18.8405 105.734 16.0264C108.197 12.8605 115.586 9.69463 115.586 9.69463C115.586 9.69463 113.123 8.28757 112.419 8.28757C111.716 8.28757 111.012 5.82522 112.419 5.12169C112.419 5.12169 112.771 2.65934 113.475 2.30758C114.178 1.95581 115.586 4.0664 115.586 4.0664C115.586 4.0664 116.641 4.41816 116.641 0.196989L117.345 1.60405C117.345 1.60405 117.697 3.36287 118.753 3.36287C119.456 3.36287 119.456 1.25228 119.456 1.25228C119.456 1.25228 120.16 0.900517 120.16 1.60405C120.16 2.30758 120.512 4.0664 121.216 4.0664C121.919 4.0664 123.327 3.36287 124.734 0.196989C125.438 -0.506541 125.086 0.900514 125.086 0.900514C125.086 0.900514 124.382 4.0664 125.438 4.0664C126.493 4.0664 127.549 2.30758 128.253 2.30758C128.956 2.30758 127.901 4.0664 127.901 4.0664C127.901 4.0664 127.197 6.17698 127.901 6.17698C128.604 6.17698 130.364 4.76993 130.364 4.76993C130.364 4.76993 131.067 5.1217 130.364 5.82522C130.012 6.52875 129.66 8.99111 130.364 8.63934C131.067 8.63934 131.771 8.28757 131.771 8.28757C131.771 8.28757 132.475 9.69463 132.475 10.3982C132.475 11.1017 132.827 11.8052 132.827 13.2123C132.827 14.6193 134.586 15.3229 134.586 15.3229C134.586 15.3229 135.29 17.4335 134.586 17.4335C134.234 17.4335 139.16 20.2476 138.808 23.0617C132.123 22.0064 130.364 22.7099 130.364 22.7099C130.364 22.7099 133.882 30.097 126.141 34.3182C122.623 35.0217 121.919 32.2076 121.919 32.2076Z" fill="#FF393D"/>
</svg>
