<svg width="246" height="168" viewBox="0 0 246 168" fill="none" xmlns="http://www.w3.org/2000/svg">
<path d="M233.883 87.6627C233.883 89.8038 235.107 95.0038 235.719 96.8391C236.331 98.6744 239.085 104.486 239.085 105.71C239.085 105.71 239.697 103.569 239.697 102.345C239.697 101.121 239.085 80.3215 238.779 75.1215C238.473 69.9215 237.249 58.2979 237.555 56.7685C237.861 55.2391 233.271 67.1685 233.883 87.6627ZM2.24358 34.4391C4.38554 32.298 7.13951 31.0744 11.4235 26.1803C16.6254 20.3685 14.1774 17.9215 12.9534 15.1685C9.89348 8.13325 15.7074 7.52148 18.4614 7.52148C19.9914 7.52148 21.2154 8.13325 23.0513 8.13325C24.5813 7.52149 26.4173 4.46266 29.4772 1.40384C32.2312 -1.3491 36.8212 0.48619 38.0452 2.32148C38.9631 3.54501 42.3291 7.82737 42.0231 5.07443C41.7171 3.54501 44.7771 3.54501 45.6951 5.3803C46.0011 6.29795 48.755 11.1921 48.755 11.1921C52.733 15.4744 71.7048 24.0391 84.5566 24.0391C106.588 24.0391 136.576 27.098 179.11 27.7097C206.343 28.0156 229.599 25.2627 233.883 27.7097C236.637 29.545 239.391 33.5215 240.615 36.5803C241.227 38.1097 241.533 40.2509 241.533 41.4744C241.533 42.698 241.839 46.3685 241.533 47.898C241.227 49.4274 241.533 53.0979 241.839 54.0156C241.839 54.9332 241.533 60.4391 241.533 61.6627C241.533 62.8862 241.533 64.4156 241.227 65.6391C241.227 66.8626 241.533 73.2862 241.533 74.8156C241.533 76.345 241.839 77.2627 241.839 78.4862C241.533 79.7097 242.145 83.6862 241.533 84.6038C240.921 85.5215 241.839 88.5803 241.839 90.1097C241.839 91.6391 241.839 92.5568 241.839 93.7803C241.839 95.0038 242.757 98.6744 242.757 100.204C242.757 101.733 243.063 103.569 243.063 104.18C242.757 105.098 243.369 106.933 243.369 107.545C243.369 108.157 242.757 111.827 242.757 112.133C242.757 112.439 245.205 114.58 245.511 115.498C245.511 116.11 244.899 118.557 244.593 119.78C244.287 121.004 243.675 126.204 243.675 128.345C243.675 130.486 243.063 132.933 243.063 133.545C243.063 134.157 243.063 142.11 243.063 143.945C243.063 145.78 243.063 153.427 243.063 155.263C243.063 157.098 243.369 158.933 243.369 159.545C243.369 160.157 243.981 160.463 243.675 161.074C243.369 161.686 242.757 162.91 242.757 163.521C242.757 164.133 241.839 165.357 241.839 165.663C241.839 165.969 231.435 167.192 230.823 165.663C230.211 164.133 231.129 163.216 231.741 162.604C232.353 161.686 233.883 158.933 233.883 157.71C233.883 156.792 233.883 155.569 233.883 154.651C233.883 154.039 234.189 148.533 234.189 147.004C234.189 145.474 233.883 133.545 228.069 123.451C225.621 119.169 224.091 116.416 222.255 113.357C220.725 114.886 217.053 117.333 215.217 117.945C215.829 120.392 217.053 123.145 217.053 124.674C216.747 126.204 214.911 128.039 213.687 129.569C212.769 130.792 209.097 137.216 208.485 138.133C207.873 139.051 207.873 139.969 206.955 140.274C206.037 140.58 205.119 140.886 204.201 142.721C203.283 144.557 200.223 150.98 197.775 154.651C195.021 158.321 193.491 160.769 193.185 162.298C192.879 163.827 192.879 166.274 192.573 166.58C192.267 166.886 183.699 168.11 181.863 166.886C180.028 165.663 179.11 165.051 183.087 159.545C187.065 154.039 190.125 148.839 191.349 147.616C192.573 146.392 197.775 135.992 197.775 133.239C197.775 130.792 197.469 124.063 197.163 122.533C196.857 121.31 193.797 120.086 191.349 119.169C188.289 118.251 180.946 114.274 180.028 113.357C170.236 118.557 142.39 116.721 114.238 106.016C105.364 102.651 104.446 106.321 104.446 107.545C104.446 108.769 104.14 112.133 104.14 112.745C104.14 113.663 104.14 116.416 104.446 117.945C104.752 119.474 104.752 121.31 104.446 122.227C104.14 123.145 103.528 125.286 104.14 127.121C104.752 128.651 104.446 130.18 104.14 131.404C103.834 132.321 103.222 135.686 103.222 139.357C103.222 143.027 103.222 145.474 103.528 147.921C103.834 150.369 104.14 154.957 104.14 156.18C104.446 157.71 104.752 160.157 104.446 160.463C104.14 160.769 104.14 161.38 104.14 161.38C104.446 161.686 105.058 162.604 105.058 162.604C105.058 162.91 104.446 163.827 104.446 164.133C104.14 164.439 102.61 164.439 102.304 164.439C101.998 164.439 101.386 165.357 101.08 166.274C100.774 167.192 93.1245 167.498 91.5945 166.886C90.0645 166.274 92.2065 163.216 92.8185 162.604C93.4305 161.992 94.6545 161.074 94.6545 160.463C94.6545 159.851 94.9605 155.263 95.2665 154.039C95.5725 153.121 96.1845 148.533 96.1845 147.921C95.8785 147.31 95.5725 146.392 95.8785 145.78C95.8785 145.169 96.4905 143.639 96.1845 142.721C95.8785 141.804 93.7365 136.604 93.1245 134.463C92.5125 132.321 91.9005 129.874 91.5945 128.039C91.2885 126.204 90.9825 121.921 90.6765 121.616C90.3705 121.31 89.4526 125.286 89.1466 126.816C89.1466 128.345 89.4526 129.874 89.1466 130.486C88.8406 131.098 87.6166 132.321 87.3106 133.545C87.0046 134.769 86.0866 139.663 85.7806 141.192C85.7806 142.416 84.2506 155.569 84.2506 156.792C84.2506 158.016 83.9446 159.239 83.9446 159.545C83.9446 159.851 84.2506 160.769 84.2506 161.074C84.2506 161.38 83.9446 162.298 83.6386 162.298C83.3326 162.298 82.7206 161.992 82.1086 162.298C81.4966 162.298 81.4967 162.91 80.8847 163.827C80.2727 164.745 80.2727 165.969 77.5187 166.274C74.4587 166.58 70.4808 166.58 70.7868 165.051C71.0928 163.216 72.3168 160.769 72.6228 160.463C72.9288 160.157 74.1527 159.851 74.4587 158.933C74.7647 158.016 75.3767 153.427 75.9887 152.204C76.6007 150.98 77.5187 146.086 77.8247 145.169C78.1307 144.251 78.7427 139.357 78.1307 137.521C77.5187 135.686 76.2947 131.71 76.6007 127.427C76.9067 123.145 77.5187 114.58 77.2127 113.969C77.2127 113.969 77.5187 110.91 74.1527 109.992C68.9508 108.157 64.9728 102.039 63.7489 91.6391C61.3009 73.2862 41.1051 47.2862 39.5751 45.4509C37.1272 46.0627 19.9914 43.9215 16.3194 46.6744C10.8115 50.6509 6.52751 48.5097 1.93756 45.145C-1.12241 42.6979 -0.204391 36.8862 2.24358 34.4391Z" fill="#FF393D"/>
</svg>
