<svg width="203" height="167" viewBox="0 0 203 167" fill="none" xmlns="http://www.w3.org/2000/svg">
<path d="M167.345 27.4405C167.345 27.4405 164.865 28.9935 161.144 30.8571C158.664 34.2737 159.904 40.4858 159.904 40.4858C159.904 40.4858 163.624 47.319 165.175 49.1826C166.415 51.0462 180.367 70.3036 177.576 90.1821C176.646 93.9094 174.786 97.6366 172.616 101.364C171.376 103.227 170.135 104.78 168.585 106.644C156.183 118.136 142.542 130.25 125.799 135.53C124.559 135.841 123.629 136.151 122.389 136.462C118.668 137.394 114.638 138.015 109.677 138.636C109.057 142.053 109.677 146.401 109.677 146.401C109.677 146.401 114.018 154.477 114.018 155.719C113.707 157.272 126.109 154.787 130.14 156.03C134.17 157.272 136.961 156.34 136.961 158.825C140.681 160.378 139.441 161.621 139.441 161.621C139.441 161.621 145.022 165.348 139.751 166.59C134.48 167.833 119.598 165.969 112.777 164.727C105.956 163.484 107.817 165.658 107.197 165.348C106.576 165.037 109.057 161.931 105.956 162.552C102.856 163.174 97.8953 163.174 99.7555 161.621C101.616 160.068 105.026 158.204 102.546 157.272C100.066 156.34 100.686 153.856 101.616 152.303C102.546 150.75 102.236 140.81 101.306 138.325C91.6944 137.394 77.1224 133.977 77.1224 133.977C77.1224 133.977 60.6901 134.288 43.0176 133.356C32.4761 129.629 25.6552 126.523 25.6552 126.523C25.6552 126.523 5.8124 120.621 1.16175 122.174C-2.86882 121.553 4.88226 118.447 4.88226 118.447C4.88226 118.447 17.284 114.72 19.1443 112.856C21.0045 111.303 25.0351 109.129 25.0351 106.023C23.7949 104.78 6.12243 111.924 6.12243 111.924C6.12243 111.924 11.0831 106.023 19.7643 102.606C15.1137 101.985 6.12243 108.197 6.12243 108.197C6.12243 108.197 18.5242 99.5002 21.0045 99.1896C23.4849 98.879 52.6289 85.8337 56.0394 85.5231C57.2796 85.5231 60.07 83.6595 63.4805 81.7959C76.5023 72.1672 91.3844 65.6445 106.887 62.2279C110.607 60.9855 114.638 59.7431 116.188 59.7431C118.978 59.7431 124.559 58.1901 131.69 60.3643C132.93 49.8038 135.1 44.5236 135.1 44.5236C135.1 44.5236 135.721 29.9253 134.48 25.2663C135.411 18.1224 138.821 1.34988 154.013 0.107475C169.205 -1.13493 174.166 8.80434 174.166 8.80434C174.166 8.80434 177.576 16.2588 180.677 19.6754C183.777 23.092 203 26.8193 203 30.2359C198.349 33.9631 171.686 26.8193 171.686 26.8193L167.345 27.4405Z" fill="#FF393D"/>
</svg>
