<svg width="275" height="144" viewBox="0 0 275 144" fill="none" xmlns="http://www.w3.org/2000/svg">
<path d="M3.81747 22.7206C4.40479 22.7206 4.9921 23.3088 4.9921 23.0147C4.9921 23.0147 4.9921 22.7206 4.9921 22.4265C4.40479 21.8382 2.93652 21.25 2.05557 20.6618C2.93652 19.4853 4.9921 20.9559 6.754 21.25C5.57938 19.7794 4.11111 20.0735 2.64288 19.4853C4.40479 18.6029 7.34128 17.7206 8.5159 19.7794C8.80954 20.3677 9.39685 20.6618 10.5715 20.9559C12.0397 21.5441 12.0397 21.25 13.2143 22.4265C14.3889 23.6029 14.0953 23.0147 15.2699 24.1912C16.1508 25.0735 16.7381 25.3677 17.619 25.6618L19.6746 26.5441C23.4921 28.3088 25.254 26.25 29.6588 23.8971C34.0635 21.5441 34.6508 19.1912 34.6508 19.1912C35.5318 18.6029 37 17.4265 38.1746 16.8382C39.9365 15.6618 41.1111 13.6029 43.1667 12.4265C44.9286 11.5441 46.6905 10.3677 48.4524 9.4853C49.9207 8.60294 51.0953 7.42647 52.5635 6.54412C54.0318 5.66177 55.7937 5.36765 57.5556 5.36765C61.373 4.77942 65.4842 3.89706 69.3016 3.01471L82.5159 0.955885C85.4524 0.36765 88.3889 0.661765 91.3254 0.367648C99.254 -0.220588 106.889 0.0735289 114.818 0.0735289C115.698 0.0735289 116.579 0.0735289 117.167 0.0735289L128.325 0.661766C133.317 0.955884 138.016 2.42647 143.008 3.01471C148 3.60294 153.286 2.13236 158.278 2.72059C162.683 3.01471 167.087 3.60294 171.198 4.48529C175.31 5.36765 179.127 6.54412 183.238 8.01471C185.881 9.19118 188.524 9.4853 190.873 10.6618C192.929 11.5441 194.691 13.0147 196.452 13.8971C199.389 15.0735 202.619 15.3677 205.556 16.8382C208.198 18.0147 210.548 19.7794 212.603 21.25C215.833 23.3088 219.357 24.7794 222.294 27.1324C224.349 28.6029 225.524 30.6618 228.167 31.5441C230.222 32.1324 232.865 32.1324 234.921 31.8382C236.976 31.5441 238.738 30.0735 240.5 29.1912C243.143 27.7206 246.079 26.8382 249.016 26.5441C252.246 26.25 255.476 26.25 258.706 25.0735C262.23 23.8971 264.579 20.6618 266.635 17.7206C267.516 16.5441 268.691 15.3676 270.159 14.7794C272.214 14.1912 273.095 15.3677 273.976 16.8382C274.564 17.7206 274.857 18.0147 273.976 18.6029C272.802 19.4853 270.746 19.7794 270.746 21.5441C270.746 23.6029 270.452 26.25 270.159 28.3088C269.865 29.1912 270.159 30.3677 269.865 31.5441C269.571 32.4265 268.984 33.3088 268.397 34.1912C267.81 35.3677 267.222 36.5441 266.341 37.4265C264.873 38.8971 263.992 39.7794 264.579 42.1324C264.579 42.4265 262.524 43.0147 262.524 43.0147C262.524 43.603 263.698 43.0147 263.992 43.3088C263.405 43.8971 262.23 43.8971 261.643 44.1912C262.23 44.4853 262.524 44.4853 263.111 45.3677C262.524 44.7794 260.762 45.6618 260.175 46.25C261.056 46.25 261.643 45.6618 262.524 46.5441C261.937 46.25 256.357 47.1324 258.119 48.6029C258.706 49.1912 259.881 47.7206 260.762 48.8971C259.294 48.603 258.413 49.7794 256.944 50.0735C257.532 50.6618 258.706 50.3676 259.587 50.9559C258.706 51.8382 257.532 50.9559 256.651 51.8382C256.944 52.4265 257.238 52.4265 258.413 52.4265C256.651 53.6029 254.302 53.0147 252.54 53.3088C251.365 53.603 249.897 52.7206 248.722 52.7206C248.135 52.7206 247.254 52.4265 246.667 52.4265C246.079 52.4265 246.373 55.3677 246.667 55.6618C247.254 56.5441 248.722 55.6618 249.603 55.6618C248.722 56.5441 248.135 57.1324 246.96 57.1324C247.841 57.4265 248.722 58.3088 249.603 58.0147C248.722 58.8971 247.841 58.3088 246.96 58.603C244.611 59.1912 245.786 62.4265 246.079 63.8971C246.373 65.3677 246.373 67.1324 246.96 68.603C247.548 70.0735 248.429 71.25 249.016 73.0147C249.897 75.9559 253.127 76.5441 254.889 78.8971C256.064 80.3677 256.651 82.4265 257.825 83.8971C259 85.6618 261.056 85.9559 262.817 86.25C265.754 86.8382 266.048 88.603 266.341 91.25C266.341 92.4265 266.048 93.3088 265.754 94.1912C265.46 95.0735 265.754 96.25 265.167 97.1324C263.405 100.956 258.706 104.191 254.302 103.603C251.952 103.309 249.897 103.603 247.841 103.603C246.667 103.603 243.143 102.132 243.437 104.779C243.437 105.662 244.024 105.662 243.437 106.25C243.143 106.544 241.968 106.544 241.381 106.838C239.913 107.132 238.151 107.426 236.683 106.544C235.508 105.956 234.921 104.779 233.452 104.779C231.397 104.485 230.81 104.779 228.46 104.485C226.111 103.897 225.524 103.015 223.175 102.721C220.532 102.132 221.413 102.132 218.183 101.838C212.897 101.25 207.611 98.0147 202.325 96.5441C199.683 95.0735 197.627 93.0147 194.984 91.5441C194.397 91.25 194.103 91.25 193.516 90.9559C193.222 92.1324 193.222 93.3088 192.929 94.4853C192.635 96.8383 191.46 99.4853 191.754 101.838C192.048 103.897 193.222 105.662 193.81 107.721C194.397 109.779 194.984 111.544 196.452 113.309C197.333 114.485 198.802 115.662 199.683 116.838C200.857 118.015 201.444 119.485 202.619 120.662C203.5 121.544 204.675 121.838 205.849 122.426C206.73 122.721 206.437 123.309 206.143 124.191C205.556 125.368 204.087 124.779 203.5 125.662C203.206 126.25 205.262 128.015 203.5 129.191C202.325 130.074 200.857 130.074 199.683 130.368C196.746 131.25 194.397 129.191 192.929 127.132C192.048 125.956 191.167 124.779 190.286 123.603C189.698 122.426 189.111 120.956 188.23 119.779C187.349 118.603 186.468 117.426 185.587 116.25C183.825 113.897 182.357 110.956 180.595 108.603C179.127 106.544 177.952 103.897 176.191 101.838C174.722 100.074 173.548 98.0147 173.841 95.6618C173.841 95.0735 173.841 94.7794 174.135 94.1912C174.429 93.3088 174.722 92.4265 175.016 91.5441C173.548 92.1324 172.373 93.3088 171.786 94.7794C170.905 97.4265 172.667 100.074 173.254 102.721C173.841 107.721 174.722 113.309 174.722 118.309C174.722 121.25 174.722 123.603 175.897 126.25C177.365 128.897 178.833 131.838 181.476 133.309C182.944 134.191 184.413 134.485 185.881 135.074C186.468 135.368 187.349 135.368 188.23 135.662C188.524 135.662 188.817 136.25 188.817 136.544C188.817 136.838 187.937 137.132 187.937 137.132C187.349 137.426 187.349 137.721 187.937 138.309C188.524 139.485 189.698 140.956 189.698 142.132C189.698 142.426 189.698 142.721 189.698 143.015L186.762 142.721C185.587 142.427 184.119 142.426 182.944 142.426C182.064 142.426 180.889 142.721 180.008 142.426C179.127 141.838 178.246 141.544 177.365 141.25C176.778 140.956 176.484 140.662 175.897 140.368C175.31 140.074 174.722 140.662 174.135 140.956C173.841 140.956 172.079 138.897 172.079 138.897C171.786 138.309 171.492 137.721 171.198 137.132C170.905 136.25 170.317 135.662 169.73 135.074C167.968 133.309 166.206 131.25 164.738 129.485C163.564 128.015 161.214 125.662 160.921 123.603C160.333 120.074 159.452 116.25 157.103 113.603C155.635 111.838 153.579 110.662 152.698 108.603C151.524 106.25 150.643 103.603 149.468 101.25C148 98.0147 146.238 94.7794 143.889 91.8382C142.421 90.0735 140.659 88.603 139.484 86.8382C137.429 84.1912 135.667 83.0147 132.143 82.1324C129.206 81.25 126.564 80.6618 123.627 80.9559C120.691 81.5441 117.754 81.8382 114.524 81.5441C112.175 81.5441 109.825 80.6618 107.476 80.9559C104.54 81.5441 100.722 80.6618 97.4921 80.3677C95.1429 80.0735 92.2064 79.7794 91.9127 82.7206C91.6191 84.7794 92.2064 86.8383 92.5 88.603C92.7937 90.9559 93.0873 92.7206 93.9683 94.7794C95.1429 97.7206 96.0238 100.368 96.6111 103.603C97.1984 106.838 98.0794 110.368 98.6667 113.603C98.9604 115.074 99.8413 116.25 100.722 117.426C101.603 118.603 103.071 119.191 103.952 120.074C105.127 121.25 106.302 122.426 106.889 123.897C107.183 124.485 107.476 125.368 107.77 126.25C107.77 127.132 107.183 126.838 106.889 126.838C106.008 127.132 106.595 128.015 106.889 128.309C107.183 129.485 106.302 129.191 105.421 129.191C103.659 129.485 101.897 129.485 99.8413 128.897C98.6667 128.603 97.4921 128.309 96.6111 127.721C96.0238 127.426 95.7302 127.132 95.1429 126.544C94.8492 126.25 94.2619 125.368 93.9683 126.25C93.6746 127.132 92.5 125.956 91.9127 125.662C90.7381 124.485 89.5635 122.721 89.2699 120.956C88.9762 119.191 88.6826 117.426 88.0953 115.956C87.5079 114.485 86.9207 113.309 86.3334 111.838C85.746 110.368 85.4524 108.897 84.5715 107.721C83.9841 106.544 83.1032 105.368 82.2222 104.485C81.9286 104.191 81.6349 103.897 81.3413 103.603C80.754 103.015 78.9921 99.7794 77.8175 98.603C76.6429 97.4265 75.7619 94.7794 75.1746 93.3088C74.881 92.1324 73.1191 89.1912 72.2381 88.3088C71.3572 87.7206 70.1826 85.3677 69.3016 83.8971C68.7143 82.1324 68.4207 80.0735 67.246 78.603C65.1905 75.6618 59.3175 76.5441 56.9683 78.603C55.2064 80.0735 53.7381 82.7206 52.2699 84.4853C51.0953 85.6618 49.627 86.8382 48.7461 88.3088C47.5715 89.7794 47.8651 91.5441 47.2778 93.3088C46.6905 97.1324 43.754 99.7794 41.9921 103.309C40.5238 106.25 41.1111 109.191 40.2302 112.132C38.4683 117.426 40.5238 122.721 38.1746 128.015C37.881 128.897 37.2937 129.779 37 130.368C36.7064 131.25 34.3572 135.662 32.8889 133.897C32.3016 133.309 32.3016 132.132 31.127 131.838C30.2461 131.838 29.6588 132.132 28.7778 132.132C26.7222 132.426 26.1349 129.191 25.8413 127.721C24.9603 123.309 25.254 118.603 27.6032 114.779C28.7778 112.721 29.6588 110.368 29.6588 107.721C29.6588 106.544 29.3651 105.662 29.3651 104.485C29.0714 101.838 29.0715 99.1912 28.7778 96.5441C28.4841 95.0735 27.8968 93.603 27.8968 91.8382C27.6032 90.0735 27.8969 88.603 28.1905 86.8382C28.7778 84.1912 26.4286 83.603 25.5476 81.5441C24.6667 79.4853 24.373 77.1324 24.0794 75.0735C23.4921 72.1324 22.9048 69.4853 22.3175 66.5441C21.7302 61.5441 20.5556 56.25 20.5556 50.9559C20.5556 48.6029 20.8492 46.25 21.4365 43.8971C21.7302 42.7206 21.7302 41.5441 22.0238 40.0735C22.3175 38.8971 22.9048 37.7206 23.4921 36.5441C24.0794 35.3677 26.4286 32.1324 25.8413 30.9559C24.9603 31.5441 21.7302 32.7206 21.1429 32.4265C19.6746 32.4265 18.2064 32.1324 17.0318 31.25C15.5635 30.3677 14.6826 28.8971 13.508 27.7206C11.7461 26.25 9.98416 23.8971 7.63495 23.8971C6.754 23.8971 5.57941 24.4853 4.69846 23.8971C2.64288 23.0147 1.7619 22.7206 0 21.5441C2.34921 22.7206 2.64288 22.4265 3.81747 22.7206Z" fill="#FF393D"/>
</svg>
