<svg width="136" height="145" viewBox="0 0 136 145" fill="none" xmlns="http://www.w3.org/2000/svg">
<path d="M0.532227 6.90139C4.9799 7.94862 6.54967 8.21042 11.259 11.6139C15.9683 15.0174 19.8927 18.4209 21.2008 21.8243C22.509 25.4896 23.0322 28.8931 22.509 33.3438C22.2473 37.7945 21.9857 43.5543 24.602 49.8376C27.4799 56.121 30.6194 60.048 32.9741 64.2369C35.3287 68.4258 39.2532 75.7564 41.0846 77.8509C42.916 79.9453 43.7008 81.778 45.2706 84.396C46.8404 87.0141 51.5497 92.2502 54.166 94.8683C57.0439 97.4863 57.0439 97.4863 57.0439 97.4863C57.0439 97.4863 57.5671 99.319 59.1369 100.366C60.9683 101.413 61.2299 101.937 62.0148 103.246C62.7997 104.555 63.3229 105.864 63.3229 105.864L64.6311 102.461L65.1543 106.388L66.4625 103.77L66.7241 107.435L67.7706 104.555L69.3404 108.744L70.6485 105.864L71.695 109.791L73.0032 106.911C73.0032 106.911 74.0497 109.006 74.8345 110.577C75.6194 112.147 76.6659 113.195 76.6659 114.766C76.6659 116.336 75.8811 117.645 74.5729 117.384C76.666 118.693 77.1892 118.169 77.1892 118.169C77.1892 118.169 72.7415 127.07 71.4334 128.903C70.1253 130.736 68.2939 133.877 68.0322 134.663C67.7706 135.448 66.7241 137.543 64.8927 137.805C63.0613 138.328 61.2299 138.328 60.445 138.328C59.6601 138.066 58.8753 138.066 58.8753 138.066L58.352 139.375C58.352 139.375 54.9508 139.899 51.8113 139.899C48.6718 139.899 46.3171 139.375 46.3171 142.517C51.0264 142.517 63.0613 142.517 63.0613 142.517C63.0613 142.517 60.445 143.041 60.9683 144.873C61.7532 144.088 61.7532 143.826 62.2764 144.088C62.2764 144.873 62.7997 145.397 65.416 144.611C67.7706 143.826 69.0787 143.564 69.602 142.255C70.3869 140.946 70.3869 140.161 70.3869 140.161C70.3869 140.161 71.4334 140.684 71.9566 139.375C72.4799 138.066 73.2648 136.495 73.2648 136.495C73.2648 136.495 74.0497 138.59 74.3113 139.637C74.5729 140.684 75.3578 140.684 75.3578 140.684L76.1427 141.732C76.1427 141.732 75.8811 138.852 75.3578 137.281C74.8346 135.71 74.5729 133.354 74.5729 133.354C74.5729 133.354 79.2822 124.191 81.3753 121.049C83.4683 118.169 86.0845 112.671 86.0845 112.671C86.0845 112.671 86.8694 111.362 87.6543 112.933C88.4392 111.362 88.9624 110.838 88.9624 110.838C88.9624 110.838 91.0555 111.886 93.1485 112.671C92.6253 111.886 92.6252 110.053 92.6252 110.053C92.6252 110.053 96.288 114.242 99.6892 114.242C98.6427 112.933 98.9043 111.624 98.9043 111.624C98.9043 111.624 103.09 114.504 103.875 116.336C104.66 118.169 106.492 121.834 107.015 123.929C107.538 125.761 108.323 128.118 109.369 129.689C110.416 130.998 111.201 131.783 110.416 132.83C109.893 133.877 108.061 137.019 106.753 137.543C105.707 138.066 104.137 138.852 102.305 139.114C100.474 139.375 96.288 139.114 95.7648 139.114C95.2415 139.114 94.9799 139.899 94.9799 139.899C94.9799 139.899 93.9334 139.637 93.6718 141.208C94.4566 140.684 95.7648 140.423 95.7648 141.208C95.7648 141.47 96.8113 141.47 99.1659 141.47C101.259 141.47 100.997 141.47 100.997 141.47C99.4276 142.517 99.6892 142.779 99.6892 142.779C99.6892 142.779 100.997 141.993 102.567 141.993C102.567 143.041 104.137 143.041 107.015 142.255C109.631 141.732 112.247 139.637 113.294 138.328C114.34 137.019 114.864 134.925 113.817 132.83C116.433 132.83 117.218 132.307 115.649 129.427C114.079 126.547 114.079 126.023 114.079 126.023C114.079 126.023 118.526 126.809 118.788 125.5C119.311 124.976 120.358 124.714 120.358 124.714C120.358 124.714 118.526 124.452 116.695 124.452C114.864 124.452 113.294 124.976 112.509 123.929C111.724 122.882 109.108 118.431 107.538 114.504C105.968 110.577 105.183 106.65 105.183 106.65C105.183 106.65 106.753 107.697 109.631 106.126C108.061 105.864 108.061 105.602 108.061 105.602C108.061 105.602 111.724 105.864 111.986 105.864C112.247 105.864 110.678 104.293 110.678 104.293L113.817 105.341L111.462 102.461L116.433 102.984L115.125 101.413L118.003 101.675L116.172 98.01C116.172 98.01 117.742 98.7954 119.835 99.5808C121.928 100.366 124.805 101.413 124.805 101.413L124.544 99.5808C124.544 99.5808 126.375 100.89 128.73 101.675C131.346 102.461 132.654 102.984 132.654 102.984L135.532 104.555C135.532 104.555 133.701 101.413 134.224 99.8426C134.747 98.01 135.532 92.7738 133.439 88.5849C131.085 84.396 127.683 79.1599 127.683 79.1599C127.683 79.1599 126.637 76.5418 131.869 79.1599C128.992 75.4946 126.114 71.5675 123.236 70.2585C120.358 68.9495 119.835 69.9967 115.387 66.5932C110.939 63.1897 104.922 57.6918 98.9043 54.0265C92.8869 50.623 87.3927 45.9105 79.0206 43.5543C70.6485 41.198 63.5846 39.1036 59.3985 36.4855C54.9508 33.8674 49.195 29.4167 46.3171 22.8716C43.7008 16.3264 41.3462 9.51945 37.1601 6.37778C32.9741 3.2361 29.5729 0.356235 24.602 0.0944284C19.6311 -0.167378 14.3985 0.0944273 11.7822 1.14165C9.16595 2.18888 7.59618 4.02152 7.59618 4.02152C7.59618 4.02152 7.07292 4.02152 4.9799 4.54513C3.1485 4.80694 0.532227 6.90139 0.532227 6.90139Z" fill="#FF393D"/>
</svg>
