<svg width="162" height="134" viewBox="0 0 162 134" fill="none" xmlns="http://www.w3.org/2000/svg">
<path d="M38.7898 129.258C38.7898 129.258 32.2861 133.304 29.8085 130.191C24.5435 129.569 19.2786 128.324 19.2786 128.324C19.2786 128.324 14.6331 128.012 17.4204 123.965C20.2077 119.919 30.7376 118.985 30.7376 118.985C30.7376 118.985 37.8607 117.117 34.7637 114.938C31.9764 112.759 22.995 96.26 22.0659 95.0148C14.6331 96.26 9.98756 90.968 9.98756 90.968L7.20024 87.2324C7.20024 87.2324 5.03233 82.8742 8.43906 80.3839C10.607 77.8935 13.0846 60.7721 15.5622 58.9044C15.5622 57.0366 19.5883 53.6123 25.4726 50.4993C31.0473 49.5654 9.98756 21.86 8.43906 20.6148C6.89055 19.6809 -0.85199 8.1629 0.0771179 5.98382C1.00623 3.80474 6.27115 10.9646 6.27115 10.9646C6.27115 10.9646 20.5174 19.0583 28.26 26.8407C36.0025 34.6232 37.551 40.2265 37.551 40.2265C37.551 40.2265 39.0995 40.8491 39.4092 39.9152C39.7189 38.9813 44.3645 19.6809 57.0622 11.8985C64.1854 5.36123 66.0436 1.93696 66.0436 1.93696C66.0436 1.93696 70.0697 -2.4212 70.3794 1.93696C70.6891 6.60642 69.4503 19.6809 66.663 23.7278C65.4242 29.0198 55.5137 45.8299 55.5137 45.8299C55.5137 45.8299 54.2749 56.1027 55.204 56.414C56.1331 56.414 75.6443 46.1412 88.6518 44.5847C91.1294 44.2734 93.9167 43.9621 96.704 43.6508C97.6331 43.6508 98.5622 43.3395 99.4913 43.3395C108.163 43.0282 117.144 43.3395 124.887 47.0751C125.506 47.3864 126.435 47.3864 127.055 47.6977C128.294 48.3202 129.842 48.6315 131.081 49.2541C132.01 49.5654 132.939 49.8767 133.559 50.188C135.107 50.8106 136.036 51.4332 136.036 52.0558C136.656 52.3671 140.991 55.7914 144.398 59.8382C145.017 60.7721 145.947 61.3947 146.566 62.3286C148.734 64.819 150.282 68.2433 150.592 71.6675C150.592 75.0918 151.212 78.2048 151.831 81.3178C152.141 82.2516 152.141 83.1855 152.141 84.1194C152.45 85.6759 152.45 86.9211 152.45 86.9211L152.76 88.1663C152.76 88.1663 156.476 87.855 157.715 88.7889C158.954 89.7228 163.6 90.968 161.432 96.5713C159.264 102.486 155.238 106.222 154.618 106.844C153.999 107.467 145.947 114.627 142.54 114.938C139.133 115.249 134.488 118.673 134.797 119.607C134.797 122.098 135.417 124.588 129.223 126.145C123.029 127.701 111.57 128.946 107.234 131.437C102.898 133.927 99.4913 132.682 99.4913 132.682C99.4913 132.682 94.8458 134.861 91.1294 133.616C87.1033 132.059 82.4578 133.927 81.5286 133.304C80.5995 132.37 77.5025 130.503 81.2189 126.767C84.9354 123.032 86.7936 119.607 88.9615 119.607C91.1294 119.607 103.208 117.428 103.208 117.428L112.809 115.872C112.809 115.872 110.331 112.136 96.704 114.004C84.0063 114.627 78.1219 115.56 78.1219 115.56C78.1219 115.56 74.0958 118.673 55.8234 121.475C52.107 121.786 39.0995 128.946 39.0995 128.946H38.7898V129.258Z" fill="#FF393D"/>
</svg>
