<svg width="156" height="147" viewBox="0 0 156 147" fill="none" xmlns="http://www.w3.org/2000/svg">
<path d="M135.063 30.9338C135.063 30.9338 127.667 29.2886 129.859 33.6759C129.859 33.6759 131.776 36.1437 132.324 36.9664C132.872 37.789 133.968 38.3374 134.789 40.5311C135.885 41.9021 137.529 44.9184 137.529 44.9184C137.529 44.9184 141.364 48.2088 140.816 50.9509C141.364 52.0477 142.459 53.1446 143.281 54.2414C143.829 54.7898 144.377 55.3382 144.925 55.6124C149.855 59.7255 152.321 66.0323 154.238 72.0648C154.512 72.8874 154.786 73.7101 155.06 74.5327C156.703 80.291 156.43 86.5978 152.321 91.2593C152.047 91.8077 151.499 92.3561 150.951 92.9045C141.09 104.695 133.42 109.631 132.872 111.551C132.324 113.47 122.463 118.68 121.915 120.051C121.367 121.422 116.71 124.438 116.71 124.438C116.71 124.438 121.093 129.648 117.806 132.939C117.806 132.939 118.354 132.939 116.71 131.019C116.71 129.1 115.341 127.455 114.245 127.455C113.149 127.455 113.697 131.019 111.78 127.729C100.823 134.036 90.6872 134.858 90.6872 134.858C90.6872 134.858 91.7829 138.697 92.8786 138.697C93.9743 138.697 103.014 142.81 103.562 143.359C104.11 143.907 106.301 146.649 106.301 146.649C106.301 146.649 104.931 147.197 103.288 146.923C101.644 146.649 100.549 146.649 99.4529 146.375C98.3572 145.826 93.4265 143.633 90.9612 143.633C88.4958 143.633 80.0041 140.342 77.5388 140.891C75.0734 141.439 80.0041 138.423 80.552 138.423C81.0998 138.423 87.4001 139.794 87.4001 136.229C87.4001 132.939 85.4826 129.922 85.4826 129.922C85.4826 129.922 54.529 143.907 29.6017 132.39C30.1496 131.842 31.5192 131.019 31.5192 131.019C31.5192 131.019 25.4928 128.277 33.9845 126.632C29.0539 123.341 35.3542 122.793 35.3542 122.793H35.902C35.902 122.793 31.5192 120.325 38.0934 118.954C35.902 115.664 42.4762 114.018 42.4762 114.018C42.4762 114.018 42.4762 112.099 44.6677 111.276C43.0241 107.986 47.9548 107.712 47.9548 107.712C47.9548 107.712 47.6808 104.421 48.7765 103.873C49.8722 103.324 47.4069 101.405 47.133 99.2113C46.3112 97.566 43.0241 99.4855 42.7502 95.3724C35.6281 101.679 30.6974 94.5498 30.6974 94.5498C30.6974 94.5498 23.3014 99.2113 19.4664 90.7109C10.4269 90.7109 10.4269 82.7589 10.4269 82.7589C10.4269 82.7589 0.565547 78.6458 6.04407 69.8712C-3.81727 64.6612 1.93518 55.8866 1.93518 55.8866C1.93518 55.8866 -4.36512 46.5636 5.77014 40.5311C-2.44764 29.837 10.153 24.9013 10.153 24.9013C10.153 24.9013 10.153 12.0136 22.7536 13.1104C24.945 -0.0515306 37.2716 5.98102 37.2716 5.98102C37.2716 5.98102 42.4762 -4.71304 52.8854 3.51316C60.2814 -4.98725 68.4992 4.60998 68.4992 4.60998C68.4992 4.60998 79.4563 1.0453 80.278 10.9167C87.674 11.4652 89.0437 23.256 89.0437 23.256C89.0437 23.256 93.4265 28.466 92.8786 33.6759C94.7961 37.789 94.5222 40.2568 94.5222 40.2568C94.5222 40.2568 99.4529 41.3537 100.823 42.7247C102.192 44.0957 108.219 42.1763 108.492 45.741C109.588 45.1926 112.053 46.2894 112.053 46.2894L119.449 51.7735C119.449 51.7735 119.997 47.3862 116.984 43.8215C113.971 39.9826 106.301 30.1112 109.588 24.0787C112.875 17.7719 115.067 11.4651 128.489 15.5782C138.898 19.4171 138.898 25.9981 138.898 25.9981C138.898 25.9981 142.185 30.3854 140.268 30.1112C138.898 31.7564 139.446 35.3211 139.446 35.3211L137.803 39.9826C137.803 39.9826 136.707 41.0795 136.707 38.8858C136.707 36.6922 136.159 34.4985 135.611 34.2243C135.063 34.2243 135.063 30.9338 135.063 30.9338Z" fill="#FF393D"/>
</svg>
