<svg preserveAspectRatio="none" width="1440" height="1299" viewBox="0 0 1440 1299" fill="none" xmlns="http://www.w3.org/2000/svg">
<path fill-rule="evenodd" clip-rule="evenodd" d="M302.368 1105.66C452.222 1154.33 603.265 1171.03 726.296 1150.18C871.513 1125.58 1013.14 1082.41 1013.61 985.147C1014.12 881.739 886.806 763.011 728.656 669.125C572.268 576.286 372.958 502.556 197.15 500.457C33.8637 498.508 -38.3614 579.073 -87.1433 659.387C-128.86 728.07 -121.45 812.307 -45.2744 899.584C29.4381 985.185 157.503 1058.61 302.368 1105.66Z" fill="url(#paint0_linear)"/>
<path fill-rule="evenodd" clip-rule="evenodd" d="M624.742 1133.52C754.906 1100.07 870.647 1040.71 948.469 965.082C1040.32 875.811 1120.75 773.561 1074.63 696.288C1025.6 614.132 878.059 581.261 720.38 582.886C564.457 584.493 387.038 621.861 260.601 704.679C143.169 781.598 130.12 880.122 133.676 967.182C136.718 1041.63 182.239 1104.8 278.276 1137.33C372.468 1169.24 498.91 1165.86 624.742 1133.52Z" fill="url(#paint1_linear)"/>
<g filter="url(#filter0_d)">
<path fill-rule="evenodd" clip-rule="evenodd" d="M710.452 612.932C979.952 544.431 1056.26 485.159 1223.45 476.746C1382.45 468.746 1559.95 516.711 1567.95 682.211C1574.56 818.912 1669.9 770.748 1597.45 890.211C1526.09 1007.88 1517.45 1065.21 1355.95 1141.21C1238.16 1196.64 1115.95 1225.21 979.952 1225.21C857.17 1225.21 744.952 1218.21 638.452 1141.21C474.553 1022.71 906.952 1042.21 849.952 842.211C777.543 588.145 -138.596 851.979 -123.548 734.746C-107.764 611.788 -372.548 -550.527 -23.672 356.438C110.346 704.84 553.718 652.77 710.452 612.932Z" fill="url(#paint2_linear)" fill-opacity="0.99"/>
</g>
<defs>
<filter id="filter0_d" x="-230" y="0" width="1879.49" height="1262.21" filterUnits="userSpaceOnUse" color-interpolation-filters="sRGB">
<feFlood flood-opacity="0" result="BackgroundImageFix"/>
<feColorMatrix in="SourceAlpha" type="matrix" values="0 0 0 0 0 0 0 0 0 0 0 0 0 0 0 0 0 0 127 0"/>
<feOffset dy="12"/>
<feGaussianBlur stdDeviation="12.5"/>
<feColorMatrix type="matrix" values="0 0 0 0 0.270772 0 0 0 0 0.345833 0 0 0 0 0.0706076 0 0 0 0.45 0"/>
<feBlend mode="normal" in2="BackgroundImageFix" result="effect1_dropShadow"/>
<feBlend mode="normal" in="SourceGraphic" in2="effect1_dropShadow" result="shape"/>
</filter>
<linearGradient id="paint0_linear" x1="368.006" y1="1126.19" x2="576.952" y2="453.931" gradientUnits="userSpaceOnUse">
<stop stop-color="#B1CD65"/>
<stop offset="1" stop-color="#11565B"/>
</linearGradient>
<linearGradient id="paint1_linear" x1="681.375" y1="1118.24" x2="585.909" y2="401.437" gradientUnits="userSpaceOnUse">
<stop offset="0.0989583" stop-color="#11565B" stop-opacity="0.79"/>
<stop offset="1" stop-color="#B1CD65" stop-opacity="0.9"/>
</linearGradient>
<linearGradient id="paint2_linear" x1="812.429" y1="372.246" x2="1456.45" y2="1286.43" gradientUnits="userSpaceOnUse">
<stop offset="0.00520833" stop-color="#B3CAC0"/>
<stop offset="1" stop-color="#9BAE67"/>
</linearGradient>
</defs>
</svg>
